<?xml version="1.0" encoding="utf-8"?>
<!-- Generator: Adobe Illustrator 21.1.0, SVG Export Plug-In . SVG Version: 6.00 Build 0)  -->
<svg version="1.1" id="圖層_1" xmlns="http://www.w3.org/2000/svg" xmlns:xlink="http://www.w3.org/1999/xlink" x="0px" y="0px"
	 viewBox="0 0 100 100" style="enable-background:new 0 0 100 100;" xml:space="preserve">
<style type="text/css">
	.st0{fill:#FFFFFF;}
</style>
<path class="st0" d="M73.8,70c-11.3,0-22.4,0-33.5,0c3.4,1,6.3,3.1,8.3,6.7s2.6,7.4,1.8,11.6c-1.4,7.1-7,12-13.1,11.6
	s-11.2-6.3-11.8-13.6c-0.5-6.8,3-14.1,10.3-16.3c-0.8,0-1.8,0-2.6,0c-4.3,0-7.4-3-8.5-7.9c-2.9-13.5-5.7-26.9-8.6-40.2
	c-0.8-3.8-1.7-7.8-2.5-11.8c-2,0-4.1,0-6.2,0c-1.1,0-2.3,0-3.4,0C1.7,10-0.1,7.8,0,5c0-2.6,1.8-4.8,4-5c3.4,0,6.9,0,10.2,0.1
	c3.7,0.1,6.6,3.3,7.5,7.8c2.1,9.7,4.1,19.2,6.1,28.8c1.6,7.7,3.2,15.3,4.8,23c16.1,0,32.2,0,48.4,0c2.6-11.5,5.3-23,8-34.8
	c-19.2,0-38.2,0-57.5,0c-0.7-3.3-1.4-6.6-2.1-9.9c23.5,0,47,0,70.5,0c-1.4,5.8-2.6,11.5-4,17.3c-2.2,9.8-4.5,19.6-6.8,29.3
	c-1.3,5.6-4.2,8.2-9.1,8.2c-0.7,0-1.4,0-2.2,0.1c3.6,1.1,6.4,3.2,8.4,6.8c2,3.6,2.5,7.6,1.6,11.8c-1.6,7.1-7,11.6-13.1,11.1
	c-6-0.5-11-6.1-11.7-13.4C62.5,79.1,66.4,72.9,73.8,70z M38,79.9c-2.3,0-4.2,2.1-4.3,4.8c-0.1,2.8,1.8,5.1,4.2,5.1s4.3-2.2,4.3-5
	C42.2,82.2,40.3,79.9,38,79.9z M75.9,89.8c2.3,0,4.2-2.1,4.3-4.8c0.1-2.8-1.8-5.1-4.2-5.1c-2.3,0-4.2,2.1-4.3,4.8
	C71.7,87.6,73.5,89.8,75.9,89.8z"/>
</svg>
