<svg height="512pt" viewBox="-51 0 512 512" width="512pt" xmlns="http://www.w3.org/2000/svg"><path d="m293.402344 89.097656c-.902344.300782-1.5.601563-2.402344.300782-.898438.601562-2.101562.601562-3 .601562-6 0-11.699219-3.601562-14.101562-9.601562-11.398438-30.296876-40.496094-50.398438-72.898438-50.398438-8.402344 0-15-6.601562-15-15 0-8.402344 6.597656-15 15-15 36.898438 0 70.800781 19.199219 90 49.199219 4.5 6.300781 8.101562 13.199219 11.101562 20.699219 2.996094 7.5-1.199218 16.203124-8.699218 19.199218zm0 0" fill="#93bf00"/><path d="m293.402344 89.097656c-.902344.300782-1.5.601563-2.402344.300782v-40.199219c4.5 6.300781 8.101562 13.199219 11.101562 20.699219 2.996094 7.5-1.199218 16.203124-8.699218 19.199218zm0 0" fill="#56c225"/><path d="m409.199219 241.300781c-15.597657 116.097657-53.398438 193.296875-118.199219 234.097657-39.300781 24.902343-88.5 36.601562-148.800781 36.601562h-127.199219c-8.398438 0-15-6.601562-15-15 0-8.402344 6.601562-15 15-15h5.398438l40.503906-10.199219c103.5-25.800781 111.296875-116.199219 111.296875-239.800781 0-12.902344 2.402343-25.800781 5.699219-38.402344l64.503906-21.898437 96.898437 3 71.097657 29.101562c.902343 11.699219.601562 24.300781-1.199219 37.5zm0 0" fill="#ff6c6c"/><path d="m409.199219 241.300781c-15.597657 116.097657-53.398438 193.296875-118.199219 234.097657v-302.199219l48.300781 1.5 71.101563 29.101562c.898437 11.699219.597656 24.300781-1.203125 37.5zm0 0" fill="#ff193d"/><path d="m410.398438 203.800781-13.496094 4.796875c-27.003906 9.902344-43.800782 6-57.601563-3.898437-4.199219 24.902343-20.101562 44.398437-37.800781 61.800781-2.699219 3-6.597656 4.5-10.5 4.5-3.898438 0-7.800781-1.5-10.496094-4.5-18.304687-18.300781-34.804687-38.398438-38.101562-64.800781-14.101563 8.101562-29.703125 9.300781-52.800782-2.398438l-11.699218-5.703125c9.898437-35.097656 20.101562-64.898437 48-81.398437.597656-1.199219.898437-2.402344 1.5-3.601563 6.597656-14.398437 21.898437-48.597656 63.601562-48.597656 40.496094 0 56.699219 33.597656 62.097656 45.898438 36.898438 18.300781 54.898438 56.5 57.296876 97.902343zm0 0" fill="#a8d32a"/><path d="m410.398438 203.800781-13.496094 4.796875c-27.003906 9.902344-43.800782 6-57.601563-3.898437-4.199219 24.902343-20.101562 44.398437-37.800781 61.800781-2.699219 3-6.597656 4.5-10.5 4.5v-211c40.5 0 56.699219 33.601562 62.101562 45.898438 36.898438 18.300781 54.898438 56.5 57.296876 97.902343zm0 0" fill="#93bf00"/></svg>