<?xml version="1.0" encoding="utf-8"?>
<!-- Generator: Adobe Illustrator 21.1.0, SVG Export Plug-In . SVG Version: 6.00 Build 0)  -->
<svg version="1.1" id="圖層_1" xmlns="http://www.w3.org/2000/svg" xmlns:xlink="http://www.w3.org/1999/xlink" x="0px" y="0px"
	 viewBox="0 0 100 100" style="enable-background:new 0 0 100 100;" xml:space="preserve">
<path d="M69.8,67.4l5.6-6.2c0.9-1,2.4-0.3,2.4,1.1v28.4c0,5.2-3.7,9.4-8.3,9.4H8.3C3.7,100,0,95.8,0,90.6V21.9
	c0-5.2,3.7-9.4,8.3-9.4h47.5c1.2,0,1.9,1.7,1,2.7l-5.6,6.2c-0.3,0.3-0.6,0.4-1,0.4H8.3v68.7h61.1v-22C69.4,68.1,69.6,67.7,69.8,67.4
	z M97,28L51.4,79.2l-15.7,2c-4.5,0.6-8.4-3.7-7.9-8.9l1.7-17.7L75.2,3.4c4-4.5,10.4-4.5,14.4,0l7.5,8.4C101,16.3,101,23.5,97,28
	L97,28z M79.9,34L69.8,22.6L37.5,59l-1.3,12.8l11.3-1.4L79.9,34z M91.1,18.4L83.6,10c-0.7-0.8-1.9-0.8-2.6,0l-5.4,6l10.1,11.3l5.4-6
	C91.8,20.5,91.8,19.2,91.1,18.4z"/>
</svg>
