<?xml version="1.0" encoding="utf-8"?>
<!-- Generator: Adobe Illustrator 22.1.0, SVG Export Plug-In . SVG Version: 6.00 Build 0)  -->
<svg version="1.1" id="Capa_1" xmlns="http://www.w3.org/2000/svg" xmlns:xlink="http://www.w3.org/1999/xlink" x="0px" y="0px"
	 viewBox="0 0 512 512" style="enable-background:new 0 0 512 512;" xml:space="preserve">
<g>
	<g>
		<path d="M497,210h-16.5c-3.1-14.9-10.6-28.5-21.6-39.1c5.7-19.5,3.3-40.6-7-58.4c-10.3-17.8-27.4-30.4-47.1-35.3
			c-4.8-19.7-17.5-36.8-35.3-47.1c-17.8-10.3-38.9-12.7-58.4-7C297,8.5,277.5,0,257,0c-20.9,0-41.7,8.8-56,23.2
			c-19.5-5.7-40.7-3.3-58.5,6.9c-17.8,10.3-30.4,27.4-35.3,47.1c-19.7,4.8-36.8,17.5-47.1,35.3c-10.3,17.8-12.7,38.9-7,58.4
			c-11,10.6-18.6,24.2-21.6,39.1H15c-8.3,0-15,6.7-15,15c0,88.1,45.7,169.7,120,216.3V467c0,24.8,20.2,45,45,45h182
			c24.8,0,45-20.2,45-45v-25.7c74.3-46.5,120-128.2,120-216.3C512,216.7,505.3,210,497,210z M79.5,188c6-4.2,8.2-12.1,5-18.7
			c-6.3-13.4-5.7-29,1.6-41.8c7.4-12.7,20.6-21.1,35.4-22.3c7.3-0.6,13.1-6.4,13.7-13.7c1.2-14.8,9.5-28,22.3-35.4
			c12.7-7.4,28.4-8,41.8-1.6c6.6,3.1,14.6,1,18.7-5c8.1-11.7,23.7-19.5,39-19.5c14.7,0,28.5,7.3,37,19.5c4.2,6,12.1,8.2,18.7,5
			c13.4-6.3,29-5.7,41.8,1.6s21.1,20.6,22.3,35.4c0.6,7.3,6.4,13.1,13.7,13.7c14.8,1.2,28,9.5,35.4,22.3c7.4,12.7,8,28.3,1.6,41.8
			c-3.1,6.6-1,14.6,5,18.7c7.9,5.5,13.7,13.2,16.9,22H62.6C65.8,201.2,71.6,193.5,79.5,188z M362,467c0,8.3-6.7,15-15,15H165
			c-8.3,0-15-6.7-15-15v-17h212V467z M369.1,420H142.9C77.5,382.3,35.5,314.4,30.5,239.8h451C476.5,314.4,434.5,382.3,369.1,420z"/>
	</g>
</g>
<g>
	<g>
		<circle cx="287" cy="105" r="15"/>
	</g>
</g>
<g>
	<g>
		<circle cx="377" cy="165" r="15"/>
	</g>
</g>
<g>
	<g>
		<circle cx="135" cy="135" r="15"/>
	</g>
</g>
<g>
	<path d="M294.2,316.2c-3.4,4.9-7,9.2-10.3,13c-3.8,4.7-7.2,8.6-7.9,11.3c-1.3,4.3-5.4,14.2-14.9,14.2c-3.8,0-6.8-1.3-9-3.6
		c-2.5-2.5-3.6-6.3-3.4-10.3c0.9-11.5,6.3-20.7,17.6-30.1c6.8-5.8,10.6-16.7,4.9-24.8c-3.2-4.5-10.3-4.9-12.2-4.9
		c-2.2,0-3.8,0.4-4.5,0.5c-5.6,2.3-9.2,9.5-10.1,11.7c-2.5,5.8-6.8,12.6-16,11.5c-3.8-0.4-6.7-2-8.8-4.9c-2.3-3.1-3.2-7.4-2.5-11.7
		c1.8-10.3,6.1-22.9,22.1-30.4c6.5-3.1,14.4-4.7,22.1-4.7c14.2,0,25.9,5.2,32.6,14.2C306.6,285.2,302.5,304.3,294.2,316.2z
		 M274.2,373.8c2.2,3.6,2.7,8.1,1.6,13.1c-1.6,7.9-8.1,13.5-15.8,13.5c-10.4,0-16.9-8.8-16.9-16.9c0-7.4,4.7-17.8,15.1-17.8
		c1.3,0,2.5,0.2,3.8,0.4C267.8,367.4,271.9,370.1,274.2,373.8z"/>
</g>
<g>
	<g>
		<circle cx="225.7" cy="165" r="15"/>
	</g>
</g>
</svg>
