<?xml version="1.0" encoding="utf-8"?>
<!-- Generator: Adobe Illustrator 21.1.0, SVG Export Plug-In . SVG Version: 6.00 Build 0)  -->
<svg version="1.1" id="Capa_1" xmlns="http://www.w3.org/2000/svg" xmlns:xlink="http://www.w3.org/1999/xlink" x="0px" y="0px"
	 viewBox="0 0 100 100" style="enable-background:new 0 0 100 100;" xml:space="preserve">
<g>
	<g>
		<g>
			<path d="M97.1,41h-3.2c-0.6-2.9-2.1-5.6-4.2-7.6c1.1-3.8,0.6-7.9-1.4-11.4s-5.4-6-9.2-7c-0.9-3.8-3.4-7.2-6.9-9.2
				s-7.6-2.5-11.4-1.4C58,1.6,54.2,0,50.2,0c-4.1,0-8.1,1.7-10.9,4.5c-3.8-1.1-7.9-0.6-11.4,1.3c-3.5,2-5.9,5.4-6.9,9.2
				c-3.8,0.9-7.2,3.4-9.2,6.9s-2.5,7.6-1.4,11.4c-2.1,2.1-3.6,4.7-4.2,7.6H2.9C1.3,41,0,42.3,0,43.9c0,17.2,8.9,33.2,23.4,42.3v5
				c0,4.8,3.9,8.8,8.8,8.8h35.5c4.8,0,8.8-3.9,8.8-8.8v-5c14.5-9.1,23.4-25,23.4-42.3C100,42.3,98.7,41,97.1,41z M15.5,36.7
				c1.2-0.8,1.6-2.4,1-3.7c-1.2-2.6-1.1-5.7,0.3-8.2s4-4.1,6.9-4.4c1.4-0.1,2.6-1.3,2.7-2.7c0.2-2.9,1.9-5.5,4.4-6.9
				s5.5-1.6,8.2-0.3c1.3,0.6,2.9,0.2,3.7-1c1.6-2.3,4.6-3.8,7.6-3.8c2.9,0,5.6,1.4,7.2,3.8c0.8,1.2,2.4,1.6,3.7,1
				c2.6-1.2,5.7-1.1,8.2,0.3s4.1,4,4.4,6.9c0.1,1.4,1.3,2.6,2.7,2.7c2.9,0.2,5.5,1.9,6.9,4.4s1.6,5.5,0.3,8.2
				c-0.6,1.3-0.2,2.9,1,3.7c1.5,1.1,2.7,2.6,3.3,4.3H12.2C12.9,39.3,14,37.8,15.5,36.7z M70.7,91.2c0,1.6-1.3,2.9-2.9,2.9H32.2
				c-1.6,0-2.9-1.3-2.9-2.9v-3.3h41.4C70.7,87.9,70.7,91.2,70.7,91.2z M72.1,82H27.9c-12.8-7.4-21-20.6-22-35.2H94
				C93.1,61.4,84.9,74.7,72.1,82z"/>
		</g>
	</g>
	<g>
		<g>
			<circle cx="56.1" cy="20.5" r="2.9"/>
		</g>
	</g>
	<g>
		<g>
			<circle cx="73.6" cy="32.2" r="2.9"/>
		</g>
	</g>
	<g>
		<g>
			<circle cx="26.4" cy="26.3" r="2.9"/>
		</g>
	</g>
	<g>
		<path d="M57.5,61.7c-0.7,1-1.4,1.8-2,2.5c-0.7,0.9-1.4,1.7-1.5,2.2c-0.3,0.8-1.1,2.8-2.9,2.8c-0.7,0-1.3-0.3-1.8-0.7
			c-0.5-0.5-0.7-1.2-0.7-2c0.2-2.2,1.2-4,3.4-5.9c1.3-1.1,2.1-3.3,1-4.8c-0.6-0.9-2-1-2.4-1s-0.7,0.1-0.9,0.1
			c-1.1,0.4-1.8,1.9-2,2.3c-0.5,1.1-1.3,2.5-3.1,2.2c-0.7-0.1-1.3-0.4-1.7-1s-0.6-1.4-0.5-2.3c0.4-2,1.2-4.5,4.3-5.9
			c1.3-0.6,2.8-0.9,4.3-0.9c2.8,0,5.1,1,6.4,2.8C59.9,55.7,59.1,59.4,57.5,61.7z M53.6,73c0.4,0.7,0.5,1.6,0.3,2.6
			c-0.3,1.5-1.6,2.6-3.1,2.6c-2,0-3.3-1.7-3.3-3.3c0-1.4,0.9-3.5,2.9-3.5c0.3,0,0.5,0,0.7,0.1C52.3,71.7,53.1,72.3,53.6,73z"/>
	</g>
	<g>
		<g>
			<circle cx="44.1" cy="32.2" r="2.9"/>
		</g>
	</g>
</g>
</svg>
