<?xml version="1.0" encoding="utf-8"?>
<!-- Generator: Adobe Illustrator 21.1.0, SVG Export Plug-In . SVG Version: 6.00 Build 0)  -->
<svg version="1.1" id="Layer_1" xmlns="http://www.w3.org/2000/svg" xmlns:xlink="http://www.w3.org/1999/xlink" x="0px" y="0px"
	 viewBox="0 0 100 100" style="enable-background:new 0 0 100 100;" xml:space="preserve">
<g>
	<path d="M87.9,10.6c-4.6-4-10.5-6.2-16.6-6.2c-7.1,0-13.9,2.9-18.8,8.1c-0.9,0.9-1.7,1.9-2.5,3C44,7.2,34.1,2.9,24.2,4.9
		c-8.1,1.5-14.5,6.2-19,13.9C-1.1,29.6-1.6,40.2,3.7,50c2.8,5.3,6.5,10.4,11.3,15.7c8.7,9.7,19,18.9,32.4,28.9c0.9,0.6,1.8,1,2.7,1
		c1.5,0,2.5-0.8,3-1.2C65,85.3,74.5,77,82.8,68.1c4.6-4.9,9.9-11,13.7-18.6c1.6-3.3,3.5-7.7,3.4-12.6C99.7,26.2,95.7,17.3,87.9,10.6
		z M90.3,46c-3.4,6.7-8.3,12.3-12.5,16.9C70.1,71.1,61.3,78.8,50,87.4c-12.3-9.3-21.8-17.9-29.9-26.9c-4.3-4.8-7.7-9.5-10.3-14.2
		c-4.1-7.5-3.6-15,1.4-23.6c3.4-5.8,8.2-9.4,14.3-10.5c1.2-0.2,2.3-0.4,3.5-0.4c7.2,0,13.6,4.2,17.2,11.4l0.6,1.2
		c0.6,1.3,1.9,1.9,3.2,2c1.3,0,2.6-0.8,3.1-2.1c1.3-2.7,2.6-4.8,4.3-6.6c3.5-3.7,8.5-5.9,13.7-5.9c4.5,0,8.8,1.5,12.1,4.5
		c6.2,5.4,9.3,12.1,9.5,20.7C92.9,40.3,91.6,43.4,90.3,46z"/>
</g>
</svg>
