<?xml version="1.0" encoding="utf-8"?>
<!-- Generator: Adobe Illustrator 21.1.0, SVG Export Plug-In . SVG Version: 6.00 Build 0)  -->
<svg version="1.1" id="Layer_1" xmlns="http://www.w3.org/2000/svg" xmlns:xlink="http://www.w3.org/1999/xlink" x="0px" y="0px"
	 viewBox="0 0 100 100" style="enable-background:new 0 0 100 100;" xml:space="preserve">
<style type="text/css">
	.st0{fill:#FFFFFF;}
</style>
<path class="st0" d="M88.9,11.6c-4.6-4-10.5-6.2-16.6-6.2c-7.1,0-13.9,2.9-18.8,8.1c-0.9,0.9-1.7,1.9-2.5,3
	C45,8.2,35.1,3.9,25.2,5.9c-8.1,1.5-14.5,6.2-19,13.9C-0.1,30.6-0.6,41.2,4.7,51c2.8,5.3,6.5,10.4,11.3,15.7
	c8.7,9.7,19,18.9,32.4,28.9c0.9,0.6,1.8,1,2.7,1c1.5,0,2.5-0.8,3-1.2C66,86.3,75.5,78,83.8,69.1c4.6-4.9,9.9-11,13.7-18.6
	c1.6-3.3,3.5-7.7,3.4-12.6C100.7,27.2,96.7,18.3,88.9,11.6z M91.3,47c-3.4,6.7-8.3,12.3-12.5,16.9C71.1,72.1,62.3,79.8,51,88.4
	c-12.3-9.3-21.8-17.9-29.9-26.9c-4.3-4.8-7.7-9.5-10.3-14.2c-4.1-7.5-3.6-15,1.4-23.6c3.4-5.8,8.2-9.4,14.3-10.5
	c1.2-0.2,2.3-0.4,3.5-0.4c7.2,0,13.6,4.2,17.2,11.4l0.6,1.2c0.6,1.3,1.9,1.9,3.2,2c1.3,0,2.6-0.8,3.1-2.1c1.3-2.7,2.6-4.8,4.3-6.6
	c3.5-3.7,8.5-5.9,13.7-5.9c4.5,0,8.8,1.5,12.1,4.5c6.2,5.4,9.3,12.1,9.5,20.7C93.9,41.3,92.6,44.4,91.3,47z"/>
</svg>
