<?xml version="1.0" encoding="utf-8"?>
<!-- Generator: Adobe Illustrator 21.1.0, SVG Export Plug-In . SVG Version: 6.00 Build 0)  -->
<svg version="1.1" id="圖層_1" xmlns="http://www.w3.org/2000/svg" xmlns:xlink="http://www.w3.org/1999/xlink" x="0px" y="0px"
	 viewBox="0 0 100 100" style="enable-background:new 0 0 100 100;" xml:space="preserve">
<style type="text/css">
	.st0{fill:#FFFFFF;}
</style>
<path class="st0" d="M80.6,50c0,13.5,0,26.9,0,40.4c0,5.4-3.1,8.5-8.6,8.5c-14.8,0-29.5,0-44.3,0c-5.3,0-8.4-3.1-8.4-8.4
	c0-27,0-54.1,0-81.1c0-5.2,3.2-8.4,8.4-8.4c14.8,0,29.7,0,44.6,0c5.2,0,8.4,3.1,8.4,8.3C80.6,22.9,80.6,36.5,80.6,50z M22.5,80.4
	c18.4,0,36.7,0,55,0c0-21.4,0-42.7,0-64c-18.4,0-36.7,0-55,0C22.5,37.8,22.5,59,22.5,80.4z M77.6,83.6c-18.5,0-36.8,0-55.2,0
	c0,2.3,0,4.6,0,6.8c0,3.6,1.8,5.3,5.3,5.3c11,0,22,0,32.9,0c4.1,0,8.2,0,12.3,0c2.5,0,4.5-1.8,4.6-4.2
	C77.6,89.1,77.6,86.4,77.6,83.6z M22.4,13.2c18.5,0,36.8,0,55.2,0c0-1.3,0-2.5,0-3.8c0-3.6-1.7-5.3-5.3-5.3c-9.5,0-19.1,0-28.6,0
	c-5.5,0-11,0-16.5,0c-2.7,0-4.7,1.8-4.8,4.3C22.3,9.9,22.4,11.5,22.4,13.2z"/>
<path class="st0" d="M72.1,99.9H27.8c-5.8,0-9.5-3.6-9.5-9.4c0-27,0-54.1,0-81.1c0-5.8,3.6-9.4,9.4-9.4c14.8,0,29.7,0,44.6,0
	c5.8,0,9.4,3.6,9.4,9.3c0,9.5,0,19,0,28.4v52.5C81.7,96.4,78.1,99.9,72.1,99.9z M50,2.1c-7.4,0-14.9,0-22.3,0
	c-4.6,0-7.3,2.7-7.3,7.3c0,27,0,54.1,0,81.1c0,4.7,2.7,7.3,7.4,7.3h44.3c4.8,0,7.5-2.7,7.5-7.5V37.8c0-9.5,0-19,0-28.4
	c0-4.6-2.7-7.3-7.3-7.3C64.8,2.1,57.4,2.1,50,2.1z M67.8,96.9c-1.2,0-2.4,0-3.6,0H27.7c-4.2,0-6.3-2.2-6.4-6.3v-4.5v-3.4h57.2v1
	c0,0.8,0,1.6,0,2.4c0,1.8,0,3.7,0,5.5c-0.1,2.9-2.6,5.1-5.6,5.2C71.2,96.9,69.5,96.9,67.8,96.9z M23.4,84.8v1.3v4.5
	c0,3,1.3,4.3,4.3,4.3h36.5c2.9,0,5.8,0,8.7,0c2,0,3.5-1.4,3.6-3.2c0.1-1.8,0.1-3.6,0-5.4c0-0.5,0-1,0-1.4H23.4V84.8z M78.5,81.4
	H21.4V15.3h57.1C78.5,15.3,78.5,81.4,78.5,81.4z M23.5,79.4h53v-62h-53C23.5,17.4,23.5,79.4,23.5,79.4z M78.6,14.2H21.4v-1
	c0-0.5,0-1,0-1.5c0-1.1,0-2.2,0-3.3c0.1-3,2.6-5.3,5.8-5.3c3.9,0,7.8,0,11.7,0h33.4c4.1,0,6.3,2.2,6.3,6.4V14.2z M23.4,12.1h53.1
	V9.4c0-3-1.3-4.3-4.3-4.3H38.8c-3.9,0-7.8,0-11.7,0c-2.1,0-3.7,1.4-3.8,3.3c-0.1,1,0,2.1,0,3.2C23.4,11.8,23.4,12,23.4,12.1z"/>
<path class="st0" d="M46.9,89.6c0-1.7,1.4-3.1,3.1-3c1.7,0,3.1,1.5,3,3.1c0,1.6-1.4,3-3,3C48.3,92.8,46.9,91.4,46.9,89.6z"/>
<path class="st0" d="M50,93.8c-1.1,0-2.1-0.4-2.9-1.2c-0.8-0.8-1.2-1.8-1.2-2.9l0,0c0-1.1,0.4-2.1,1.2-2.9c0.8-0.8,1.9-1.2,2.9-1.2
	c1.1,0,2.1,0.5,2.9,1.3c0.8,0.8,1.2,1.8,1.1,2.9C54,91.9,52.2,93.8,50,93.8L50,93.8z M48,89.6c0,0.5,0.2,1,0.6,1.4
	c0.4,0.4,0.9,0.6,1.4,0.6l0,0c1.1,0,2-0.9,2-2c0-0.5-0.2-1-0.6-1.4c-0.4-0.4-0.9-0.6-1.4-0.6c-0.6,0-1,0.2-1.4,0.6
	C48.2,88.6,48,89.1,48,89.6L48,89.6z"/>
<path class="st0" d="M50,10.2c-1.9,0-3.8,0-5.7,0c-1.1,0-1.9-0.3-1.9-1.5c-0.1-1,0.6-1.5,1.9-1.5c3.8,0,7.6,0,11.5,0
	c1.1,0,1.9,0.3,1.9,1.5c0.1,1-0.7,1.5-1.9,1.5C53.8,10.2,51.9,10.2,50,10.2z"/>
<path class="st0" d="M53.4,11.2c-0.6,0-1.1,0-1.7,0h-3.4c-1.3,0-2.7,0-4,0l0,0c-2.5,0-2.9-1.7-2.9-2.5c0-0.7,0.2-1.3,0.6-1.8
	C42.4,6.5,43.1,6,44.3,6c2,0,3.9,0,5.9,0c1.9,0,3.7,0,5.6,0l0,0c2.4,0,2.9,1.5,3,2.5c0,0.7-0.2,1.3-0.6,1.8
	c-0.4,0.4-1.1,0.9-2.3,0.9C55,11.2,54.2,11.2,53.4,11.2z M46.6,9.2c0.6,0,1.1,0,1.7,0h3.4c1.3,0,2.7,0,4,0c0.5,0,0.7-0.1,0.8-0.2
	c0,0,0.1-0.1,0.1-0.2c0-0.3,0-0.6-0.9-0.5c-1.9,0-3.7,0-5.6,0c-2,0-3.9,0-5.9,0c-0.5,0-0.7,0.1-0.8,0.2c0,0-0.1,0.1-0.1,0.2
	c0,0.3,0,0.6,0.9,0.5C45.1,9.2,45.9,9.2,46.6,9.2z"/>
<path class="st0" d="M37.5,7.1c1,0.1,1.6,0.6,1.6,1.6c0,0.9-0.6,1.5-1.5,1.5c-0.9,0-1.4-0.5-1.4-1.5C36.1,7.7,36.8,7.3,37.5,7.1z"/>
<path class="st0" d="M37.7,11.2L37.7,11.2c-1.5,0-2.5-1-2.5-2.5c0-1.3,0.7-2.3,2.2-2.6h0.2h0.2c1.6,0.2,2.6,1.2,2.5,2.6
	c0,0.7-0.3,1.4-0.8,1.8C39,11,38.4,11.2,37.7,11.2z M37.6,8.2c-0.4,0.1-0.4,0.3-0.4,0.5c0,0.3,0.1,0.4,0.4,0.5c0.1,0,0.3,0,0.4-0.1
	c0.1-0.1,0.1-0.2,0.1-0.4S38.1,8.3,37.6,8.2z"/>
</svg>
