<?xml version="1.0" encoding="utf-8"?>
<!-- Generator: Adobe Illustrator 21.1.0, SVG Export Plug-In . SVG Version: 6.00 Build 0)  -->
<svg version="1.1" id="圖層_1" xmlns="http://www.w3.org/2000/svg" xmlns:xlink="http://www.w3.org/1999/xlink" x="0px" y="0px"
	 viewBox="0 0 100 100" style="enable-background:new 0 0 100 100;" xml:space="preserve">
<path d="M50,0C22.4,0,0,22.4,0,50s22.4,50,50,50s50-22.4,50-50S77.6,0,50,0z M50,93.5C26,93.5,6.5,74,6.5,50S26,6.5,50,6.5
	S93.5,26,93.5,50S74,93.5,50,93.5z M58.1,48.9l-14.5-4.1c-2.4-0.7-4.2-2.9-4.2-5.4c0-3.1,2.6-5.6,5.7-5.6h9.1c2.3,0,4.4,0.7,6.2,2
	c0.6,0.5,1.5,0.4,2.1-0.2l2.3-2.3c0.7-0.7,0.6-1.8-0.2-2.4c-2.9-2.3-6.6-3.6-10.4-3.6h-1v-8.1c0-0.9-0.7-1.6-1.6-1.6h-3.2
	c-0.9,0-1.6,0.7-1.6,1.6v8.1h-1.6c-6.7,0-12.2,5.4-12.2,12.1c0,5.4,3.6,10.1,8.9,11.6l14.5,4.1c2.4,0.7,4.2,2.9,4.2,5.4
	c0,3.1-2.6,5.6-5.7,5.6h-9.1c-2.3,0-4.4-0.7-6.2-2c-0.6-0.5-1.5-0.4-2.1,0.2l-2.3,2.3c-0.7,0.7-0.6,1.8,0.2,2.4
	c2.9,2.3,6.6,3.6,10.4,3.6h1v8.1c0,0.9,0.7,1.6,1.6,1.6h3.2c0.9,0,1.6-0.7,1.6-1.6v-8.1h1.6c6.7,0,12.2-5.4,12.2-12.1
	C67,55.2,63.3,50.4,58.1,48.9L58.1,48.9z"/>
</svg>
