<?xml version="1.0" encoding="utf-8"?>
<!-- Generator: Adobe Illustrator 21.1.0, SVG Export Plug-In . SVG Version: 6.00 Build 0)  -->
<svg version="1.1" id="圖層_1" xmlns="http://www.w3.org/2000/svg" xmlns:xlink="http://www.w3.org/1999/xlink" x="0px" y="0px"
	 viewBox="0 0 100 100" style="enable-background:new 0 0 100 100;" xml:space="preserve">
<style type="text/css">
	.st0{fill:#FFFFFF;}
</style>
<path class="st0" d="M50.9,76.4c-12.9,0-23.4-9-23.4-20.1s10.5-20,23.4-20s23.4,9,23.4,20.1S63.8,76.4,50.9,76.4z M50.9,41.6
	c-9.5,0-17.2,6.6-17.2,14.7s7.7,14.8,17.2,14.8s17.2-6.6,17.2-14.8S60.4,41.6,50.9,41.6z M44.7,56.3c0-2.9,2.8-5.3,6.3-5.3
	c1.7,0,3.1-1.2,3.1-2.7s-1.4-2.7-3.1-2.7c-6.9,0-12.5,4.8-12.5,10.7c0,1.5,1.4,2.7,3.1,2.7S44.7,57.8,44.7,56.3z M64.3,18.8
	c0.6,0,1.2,0.4,1.5,0.9l4.3,9.8h21.5c1.7,0,3.1,1.2,3.1,2.7v48.2c0,1.5-1.4,2.7-3.1,2.7H10.3c-1.7,0-3.1-1.2-3.1-2.7V32.3
	c0-1.5,1.4-2.7,3.1-2.7h21.5l3.9-9c0.4-1,1.6-1.7,2.9-1.7L64.3,18.8 M64.3,13.5H38.7c-3.9,0-7.4,2.1-8.8,5.2l-2.4,5.5H10.3
	c-5.2,0.1-9.4,3.7-9.4,8.1v48.2c0,4.4,4.2,8,9.4,8h81.3c5.2,0,9.4-3.6,9.4-8V32.3c0-4.4-4.2-8-9.4-8H74.3l-2.8-6.4
	C70.4,15.2,67.5,13.5,64.3,13.5L64.3,13.5z"/>
</svg>
