<?xml version="1.0" encoding="utf-8"?>
<!-- Generator: Adobe Illustrator 21.1.0, SVG Export Plug-In . SVG Version: 6.00 Build 0)  -->
<svg version="1.1" id="圖層_1" xmlns="http://www.w3.org/2000/svg" xmlns:xlink="http://www.w3.org/1999/xlink" x="0px" y="0px"
	 viewBox="0 0 100 100" style="enable-background:new 0 0 100 100;" xml:space="preserve">
<style type="text/css">
	.st0{fill:#FFFFFF;}
</style>
<path class="st0" d="M16.8,0c3.5,0,7,0,10.5,0c3.7,0,6,2.2,6,5.9c0.1,7.1,0.1,14.3,0,21.4c0,3.7-2.2,5.9-5.9,5.9
	c-7.1,0.1-14.3,0.1-21.4,0c-3.8,0-5.9-2.3-6-6.1c0-7,0-14,0-21C0,2.2,2.2,0,6.1,0C9.7,0,13.2,0,16.8,0z M22.2,11.2
	c-3.8,0-7.4,0-11,0c0,3.7,0,7.3,0,10.9c3.7,0,7.3,0,11,0C22.2,18.4,22.2,14.8,22.2,11.2z"/>
<path class="st0" d="M83.4,0c3.5,0,7,0,10.5,0c3.7,0,6,2.2,6,5.9c0.1,7.1,0.1,14.3,0,21.4c0,3.7-2.2,5.9-5.9,5.9
	c-7.2,0.1-14.4,0.1-21.6,0c-3.7,0-5.8-2.3-5.8-6c0-7.1,0-14.2,0-21.3c0-3.7,2.2-6,6-6C76.2,0,79.8,0,83.4,0z M77.8,11.1
	c0,3.7,0,7.3,0,11c3.7,0,7.3,0,11,0c0-3.7,0-7.3,0-11C85.1,11.1,81.5,11.1,77.8,11.1z"/>
<path class="st0" d="M0,83.2c0-3.5,0-7,0-10.5c0-3.8,2.2-6,6.1-6c7.1,0,14.1,0,21.2,0c3.8,0,6,2.2,6.1,5.9c0.1,7.1,0.1,14.3,0,21.4
	c0,3.7-2.3,5.9-6,6c-7.1,0-14.2,0-21.3,0c-3.8,0-6-2.3-6-6.1C0,90.3,0,86.7,0,83.2z M11.2,88.8c3.7,0,7.3,0,11,0c0-3.7,0-7.3,0-11
	c-3.7,0-7.3,0-11,0C11.2,81.5,11.2,85.1,11.2,88.8z"/>
<path class="st0" d="M88.9,77.7c0,3.7,0,7.5,0,11.2l0,0c-3.7,0-7.5,0-11.2,0l0,0c0-3.7,0-7.5,0-11.2C81.4,77.7,85.2,77.7,88.9,77.7
	L88.9,77.7z"/>
<path class="st0" d="M66.8,88.9c-3.7,0-7.4,0.1-11.1,0.1l0,0c0-3.8-0.1-7.6-0.1-11.3l0,0c3.8,0,7.5,0,11.3,0
	C66.8,81.4,66.8,85.2,66.8,88.9L66.8,88.9z"/>
<path class="st0" d="M77.7,55.6c3.8,0,7.6,0.1,11.3,0.1l0,0c0,3.7-0.1,7.4-0.1,11.1l0,0c-1.5,0-3.1-0.1-4.6-0.1
	c-2.2,0-4.4,0.1-6.6,0.1C77.7,63.1,77.7,59.3,77.7,55.6L77.7,55.6z"/>
<path class="st0" d="M55.6,66.8c0-3.7,0-7.5,0-11.2l0,0c3.8,0,7.5,0,11.3,0h-0.1c0,1.6-0.1,3.3-0.1,4.9c0,2.1,0.1,4.2,0.2,6.4
	C63.1,66.8,59.3,66.8,55.6,66.8L55.6,66.8z"/>
<path class="st0" d="M55.6,55.6c-3.7,0-7.3,0-11.1,0c0-3.8,0-7.4,0-11.1c3.6,0,7.2,0,11.1,0C55.6,48.2,55.6,51.9,55.6,55.6
	L55.6,55.6z"/>
<path class="st0" d="M88.9,88.9c3.6,0,7.3,0,11,0c0,3.6,0,7.2,0,10.9c-3.6,0-7.2,0-11,0C88.9,96.2,88.9,92.5,88.9,88.9L88.9,88.9z"
	/>
<path class="st0" d="M89,55.7c0-3.7,0-7.4,0-11.2c3.6,0,7.1,0,10.8,0c0,3.6,0,7.3,0,11.2C96.2,55.7,92.6,55.7,89,55.7L89,55.7z"/>
<path class="st0" d="M22.3,44.4c3.7,0,7.2,0,10.9,0c0,3.7,0,7.3,0,11c-3.6,0-7.2,0-10.9,0C22.3,51.8,22.3,48.2,22.3,44.4z"/>
<path class="st0" d="M55.7,89c0,2.9-0.1,5.8-0.1,8.8c0,0.7,0,1.3,0,2.1c-3.7,0-7.4,0-11.1,0c0-3.6,0-7.2,0-10.8
	c0.2,0,0.5-0.1,0.7-0.1C48.7,88.9,52.2,89,55.7,89L55.7,89z"/>
<path class="st0" d="M55.5,22.3c0,3.6,0,7.2,0,10.9c-3.6,0-7.3,0-11,0c0-3.6,0-7.2,0-10.9C48.1,22.3,51.8,22.3,55.5,22.3z"/>
<path class="st0" d="M44.5,0.1c3.7,0,7.3,0,11,0c0,3.7,0,7.2,0,10.9c-3.6,0-7.3,0-11,0C44.5,7.4,44.5,3.8,44.5,0.1z"/>
<path class="st0" d="M77.7,88.9c0,3.6,0,7.3,0,11c-3.6,0-7.2,0-11,0c0-1.3,0-2.7,0-4c0-2.3,0.1-4.7,0.1-7l0,0
	C70.4,88.9,74.1,88.9,77.7,88.9L77.7,88.9z"/>
<path class="st0" d="M88.9,66.8c3.6,0,7.2,0,11,0c0,3.6,0,7.2,0,10.9c-3.7,0-7.3,0-11,0l0,0C88.9,74.1,88.9,70.4,88.9,66.8
	L88.9,66.8z"/>
<path class="st0" d="M55.6,77.7c-3.7,0-7.3,0-11.1,0c0-3.6,0-7.2,0-11c1.3,0,2.6,0,3.8,0c2.4,0,4.8,0.1,7.3,0.2v-0.1
	C55.6,70.4,55.6,74.1,55.6,77.7L55.6,77.7z"/>
<path class="st0" d="M11,55.5c-3.6,0-7.2,0-10.9,0c0-3.6,0-7.3,0-11c3.6,0,7.2,0,10.9,0C11,48.2,11,51.8,11,55.5z"/>
<path class="st0" d="M66.8,55.6c-0.1-1.9-0.1-3.9-0.2-5.8c0-1.7,0-3.5,0-5.3c3.7,0,7.3,0,11,0c0,3.7,0,7.4,0,11.1l0,0
	C74.1,55.6,70.4,55.6,66.8,55.6L66.8,55.6z"/>
<path class="st0" d="M66.8,66.8c3.7,0,7.3,0,11,0c0,3.7,0,7.3,0,11c-3.7,0-7.3,0-11,0C66.8,74.1,66.8,70.4,66.8,66.8z"/>
</svg>
