<?xml version="1.0" encoding="utf-8"?>
<!-- Generator: Adobe Illustrator 21.1.0, SVG Export Plug-In . SVG Version: 6.00 Build 0)  -->
<svg version="1.1" id="圖層_1" xmlns="http://www.w3.org/2000/svg" xmlns:xlink="http://www.w3.org/1999/xlink" x="0px" y="0px"
	 viewBox="0 0 233 160" style="enable-background:new 0 0 233 160;" xml:space="preserve">
<style type="text/css">
	.st0{fill:#222323;}
</style>
<g>
	<g>
		<path class="st0" d="M229.2,97.2c-0.3-3.9-1.2-7.6-2.5-11.3c-8.5-24.7-21.6-46.7-39.6-65.8c-5.4-5.8-11.5-10.7-18.7-14.3
			c-8.6-4.4-17.3-4.8-26.2-0.6c-4.1,2-7.9,4.4-11.5,7.2c-6.2,4.9-11.8,10.5-16.9,16.5c-1,1.2-1.6,1.2-2.8,0.2
			c-3.9-3.3-8.1-6-12.7-8.2c-9.4-4.6-18.7-4.7-28.1,0.1c-6.8,3.4-12.8,7.9-18.2,13.1c-17.5,16.6-30.9,36.3-41.4,58
			C6.4,100.8,3,110.1,2,120c-0.7,7.2,0.8,13.5,6.5,18.6c3.7,3.4,7.6,6.4,12.1,8.7c9,4.6,18.6,7,28.5,8.5c11.3,1.8,22.6,2.4,34,2.5
			c7.8,0,15.6-0.1,23.4-0.6c9.3-0.7,18.5-1.8,27.6-4.1c7.5-1.9,14.8-4.5,21.2-9.1c4.4-3.1,7.9-7,9.7-12.2c0.6-1.7,1.4-2.2,3.1-2.2
			c10.3-0.1,20.5-0.6,30.6-2.9c6.8-1.5,13.3-3.6,19.2-7.5C226,114.5,230,107,229.2,97.2z M109,106.2c1.5,0,1.8,0.4,1.8,1.8
			c-0.1,12.1-0.1,24.1,0,36.2c0,1.3-0.2,1.7-1.7,1.9c-15.8,1.3-31.7,1.1-47.5-0.1c-3.7-0.3-3.7-0.3-3.7-3.8c0-11.3,0-22.6,0-33.9
			c0-1.5,0.3-2,1.9-2c8.2,0.1,16.4,0,24.6,0v0 M147.1,136.4c-5.7,3.7-12.2,5.5-18.7,6.9c-1.4,0.3-2.9,0.6-4.4,0.9
			c-1.9,0.3-1.9,0.3-1.9-1.6c0-3.4,0-6.8,0-10.3c0-3,0-6,0-8.9c-0.1-1.4-0.1-2.8-0.1-4.1c0-0.4,0-0.9,0.1-1.3c-0.1-0.4,0-0.9,0-1.3
			c0-5.1,0-10.1,0-15.2c0-4.6-2.1-6.6-6.7-6.6c-10.3,0-20.7,0-31,0c-10.2,0-20.4,0.1-30.6-0.1c-5.3-0.1-7.3,3-7.3,7.4
			c0.2,13.2,0.1,26.4,0,39.5c0,2.2,0,2.2-2.1,1.7c-6.9-1.4-13.5-3.3-19.7-6.7c-3.6-2-6.8-4.5-9.6-7.6c-1-1.2-1.6-2.4-1.8-4
			c-0.4-4.5,0.5-8.7,1.7-13c3.5-11.9,9.2-22.8,15.7-33.3c8-13,17.2-25.2,28.3-35.8c4.1-4,8.6-7.5,13.5-10.6c7.9-5,15.8-4.9,23.8-0.3
			c6.5,3.8,12.1,8.7,17.2,14.1c13.2,14.3,23.5,30.6,32.1,48c0,0.1,0,0.1,0.1,0.1c0.3,0.6,0.6,1.2,0.8,1.9c0.3,0.5,0.5,1.1,0.7,1.7
			c0.2,0.3,0.3,0.7,0.5,1.1c2.8,6.4,5.3,12.9,6.7,19.8C156,127,154,132,147.1,136.4z M177.1,119.6c-3.3,0-6.5,0.1-9.8,0.2
			c-0.8,0-1.3-0.1-1.5-1.1c-2.2-11.8-7-22.6-12.3-33.3c-1.2-2.4-1.2-2.4,1.4-2.4c7.3,0,14.6,0,21.9,0c2.2,0,2.2,0,2.2,2.3
			c0,5.3,0,10.6,0,15.8h0c0,5.5-0.1,11,0,16.5C179,119.2,178.4,119.6,177.1,119.6z M211.7,111.6c-4.3,2.8-9.1,4.3-14.1,5.4
			c-2.1,0.5-4.2,0.8-6.4,1.2c-2,0.4-2,0.3-2-1.6c0-6.3,0-12.7,0-19c0-5.7,0-11.5,0-17.2c0-0.7,0-1.5,0-2.2c-0.2-3.6-2.1-5.4-5.7-5.5
			c-11.6,0-23.2-0.1-34.8,0c-1.7,0-2.6-0.6-3.5-2c-6.9-11.6-14.7-22.5-24.1-32.3c-0.7-0.7-1-1.2-0.2-2.1
			c5.5-6.4,11.4-12.4,18.2-17.4c2.5-1.8,5.1-3.3,7.9-4.6c5.4-2.5,10.6-2.3,15.9,0.1c6.2,2.8,11.3,7.1,16,11.9
			c12.2,12.4,21.6,26.8,29.5,42.2c4.1,7.9,7.7,16.1,9.6,24.8c0.3,1.3,0.5,2.6,0.7,4C219.6,103.6,216.9,108.3,211.7,111.6z"/>
		<path class="st0" d="M101.5,86.2c-2.2,0-3.7-0.8-4.7-2.4c-1.1-1.7-1.1-3.5,0-5.3c0.7-1.1,1.4-2.1,2.3-3c1.6-1.8,4.3-2.1,6.3-1
			c2,1.2,3.1,3.7,2.3,5.9c-0.7,2.1-2.1,3.8-3.9,5.1C103.1,86.1,102.2,86.3,101.5,86.2z"/>
		<path class="st0" d="M68,51.3c3.1,0,6.1,3.3,6.1,6.7c0,2.8-2.3,5.1-5.1,5.1c-3,0-6-3.1-6.1-6.2C62.8,53.7,65,51.3,68,51.3z"/>
		<path class="st0" d="M108.7,66.3c-2.1-0.1-3.7-0.6-5.1-1.8c-1.8-1.6-2.3-4.2-1.2-6.3c1.2-2.2,3.6-3.2,6-2.5
			c0.6,0.2,1.3,0.4,1.9,0.6c2.4,1,3.7,3.3,3.2,5.9C113.1,64.6,111,66.3,108.7,66.3z"/>
		<path class="st0" d="M80.5,87.3c0,2.9-2.1,5.1-5,5.2c-3.3,0.1-5.8-2.4-5.9-5.7c0-3.2,2.1-5.5,5.1-5.6
			C77.9,81.1,80.5,83.9,80.5,87.3z"/>
		<path class="st0" d="M47.5,75.4c3,0,5.7,2.7,5.7,5.7c0,2.8-2.3,5.1-5.1,5.1c-3,0-5.7-2.7-5.7-5.7C42.4,77.7,44.7,75.5,47.5,75.4z"
			/>
		<path class="st0" d="M153.2,68.9c-3,0-6.5-3.4-6.7-6.4c-0.1-2.1,0.8-3.8,2.6-4.8c1.8-1,3.7-0.9,5.5,0.3c1.1,0.8,2.1,1.7,2.8,2.8
			c1.2,1.7,1.3,3.6,0.3,5.4C156.8,68,155.3,68.9,153.2,68.9z"/>
		<path class="st0" d="M160,32.9c0,3.7-1.8,6-5,6c-3.2,0.1-5.8-2.7-5.8-6c0-3.5,2.5-6.3,5.6-6.3C158.1,26.5,159.9,28.8,160,32.9z"/>
		<path class="st0" d="M203.8,92.6c-3,0-6.2-3.1-6.3-6.1c0-2.8,2.3-5.2,5.2-5.3c3.1-0.1,6.3,3.1,6.2,6.3
			C209,90.3,206.7,92.5,203.8,92.6z"/>
		<path class="st0" d="M179,46.8c0,2.9-2.3,5.2-5.2,5.3c-3.2,0-6.1-2.7-6.1-5.6c0-2.9,2.3-5.3,5.2-5.3C176,41.3,178.9,43.9,179,46.8
			z"/>
	</g>
</g>
</svg>
