<?xml version="1.0" encoding="utf-8"?>
<!-- Generator: Adobe Illustrator 21.1.0, SVG Export Plug-In . SVG Version: 6.00 Build 0)  -->
<svg version="1.1" id="圖層_1" xmlns="http://www.w3.org/2000/svg" xmlns:xlink="http://www.w3.org/1999/xlink" x="0px" y="0px"
	 viewBox="0 0 100 100" style="enable-background:new 0 0 100 100;" xml:space="preserve">
<style type="text/css">
	.st0{fill:#222323;}
</style>
<g>
	<g>
		<path class="st0" d="M99.8,76.5c1-4.2-2.1-18.1-6.3-26.1C91.8,47,90,43.6,88,40.3c-0.1-0.1-0.2-0.3-0.3-0.4
			c-0.1-0.1-0.1-0.2-0.2-0.3l-0.1-0.1C80.8,30.1,74,21.2,66.6,14.3c0,0-5-3.6-7.7-5c-5.7-2.8-11.4-2.9-17.2,0.1
			c-4.1,2.1-7.8,4.8-11.1,8C20,27.4,11.8,39.4,5.4,52.6c-2.6,5.3-4.6,11-5.3,17c-0.4,4.4,0.5,8.2,4,11.3c2.3,2.1,4.6,3.9,7.4,5.3
			c5.5,2.8,11.4,4.3,17.4,5.2c6.9,1.1,13.8,1.4,20.7,1.5c4.8,0,9.5-0.1,14.3-0.4c5.7-0.4,11.3-1.1,16.8-2.5c4.6-1.1,9-2.8,12.9-5.5
			c2.7-1.9,4.3-3.8,5.9-7.4C99.6,76.9,99.7,76.8,99.8,76.5C99.8,76.6,99.8,76.5,99.8,76.5z M66.5,84.3c0,0.8-0.1,1-1.1,1.1
			c-9.6,0.8-19.4,0.7-29-0.1c-2.3-0.2-2.3-0.2-2.3-2.3V62.4c0-0.9,0.2-1.2,1.1-1.2c5,0.1,10,0,15,0l15-0.1c0.9,0,1.1,0.3,1.1,1.1
			C66.4,69.7,66.4,77,66.5,84.3z M88.6,79.6c-3.5,2.3-7.4,3.3-11.4,4.2c-0.9,0.2-1.8,0.4-2.7,0.6c-1.1,0.2-1.1,0.2-1.1-1V71.7
			c-0.1-0.9-0.1-1.7-0.1-2.5c0-0.3,0-0.6,0.1-0.8c-0.1-0.3,0-0.6,0-0.8v-9.2c0-2.8-1.3-4-4.1-4H50.4c-6.2,0-12.4,0.1-18.7-0.1
			c-3.2-0.1-4.5,1.8-4.5,4.5c0.1,8,0.1,16.1,0,24.1c0,1.3,0,1.3-1.3,1c-4.2-0.9-8.2-2-12-4.1c-2.2-1.2-4.1-2.8-5.8-4.6
			c-0.6-0.8-1-1.4-1.1-2.5c-0.3-2.8,0.3-5.3,1.1-7.9c2.1-7.2,5.6-13.9,9.5-20.3c4.9-7.9,10.5-15.3,17.3-21.8
			c2.5-2.5,5.3-4.6,8.2-6.5c4.8-3,9.6-3,14.5-0.2c4,2.3,7.4,5.3,10.5,8.6c8,8.7,14.3,18.7,19.6,29.2c0,0.1,0,0.1,0.1,0.1
			c0.2,0.4,0.4,0.8,0.5,1.1c0.2,0.3,0.3,0.7,0.4,1c0.1,0.2,0.2,0.4,0.3,0.7c1.7,3.9,3.2,7.9,4.1,12.1C94,73.9,92.8,76.9,88.6,79.6z"
			/>
		<path class="st0" d="M60.8,49c-1.3,0-2.3-0.5-2.9-1.4c-0.7-1-0.7-2.1,0-3.2c0.4-0.7,0.9-1.3,1.4-1.8c1-1.1,2.6-1.3,3.8-0.6
			c1.2,0.8,1.9,2.3,1.4,3.6c-0.4,1.3-1.3,2.3-2.4,3.1C61.8,48.9,61.2,49.1,60.8,49z"/>
		<path class="st0" d="M40.4,27.8c1.9,0,3.7,2,3.7,4.1c0,1.7-1.4,3.1-3.1,3.1c-1.8,0-3.6-1.9-3.7-3.8C37.2,29.2,38.6,27.8,40.4,27.8
			z"/>
		<path class="st0" d="M65.2,36.9c-1.3-0.1-2.3-0.4-3.1-1.1c-1.1-1-1.4-2.6-0.8-3.8c0.8-1.3,2.2-1.9,3.6-1.5
			c0.4,0.1,0.8,0.3,1.1,0.4c1.4,0.6,2.3,2,1.9,3.6C67.9,35.9,66.6,36.9,65.2,36.9z"/>
		<path class="st0" d="M48,49.7c0,1.8-1.3,3.1-3.1,3.1c-2,0.1-3.5-1.4-3.6-3.5c0-1.9,1.3-3.3,3.1-3.4C46.4,45.9,48,47.6,48,49.7z"/>
		<path class="st0" d="M27.9,42.4c1.8,0,3.5,1.6,3.5,3.5c0,1.7-1.4,3.1-3.1,3.1c-1.8,0-3.5-1.6-3.5-3.5
			C24.7,43.8,26.2,42.5,27.9,42.4z"/>
	</g>
</g>
</svg>
