<?xml version="1.0" encoding="utf-8"?>
<!-- Generator: Adobe Illustrator 21.1.0, SVG Export Plug-In . SVG Version: 6.00 Build 0)  -->
<svg version="1.1" id="圖層_1" xmlns="http://www.w3.org/2000/svg" xmlns:xlink="http://www.w3.org/1999/xlink" x="0px" y="0px"
	 viewBox="0 0 100 100" style="enable-background:new 0 0 100 100;" xml:space="preserve">
<g>
	<g>
		<path d="M68.1,62.1c1,0.9,1.9,1.9,3,2.8c0.2,0.2,0.7,0.3,1,0.2c3.2-1.1,5.9-0.4,8.2,1.9c5.7,5.7,11.4,11.3,17.2,17
			c3.4,3.3,3.4,7.5,0,10.9c-1,1-2,2-3,3c-3,2.9-7.2,2.9-10.2,0C78.4,91.9,72.5,86,66.6,80c-2.2-2.2-2.7-4.8-1.7-7.7
			c0.1-0.3,0.1-0.9-0.2-1.2c-0.9-1-1.9-1.9-2.9-2.9c-9.2,6.9-19.4,9.6-30.6,7.6C21.6,74,13.8,69.1,7.8,61.4
			c-11.6-15-10.1-36.6,3.4-50C24.9-2.2,46.4-3.5,61.6,8.2C77.4,20.4,82,44.6,68.1,62.1z M38.1,69.4c17.1,0,31.1-13.8,31.2-31
			C69.4,21.3,55.4,7.3,38.2,7.3S7,21.2,7.1,38.4C7.1,55.5,21,69.4,38.1,69.4z"/>
		<path d="M42.1,42.2c0,5.3,0,10.3,0,15.4c-2.6,0-5.1,0-7.8,0c0-5.1,0-10.2,0-15.4c-5.2,0-10.3,0-15.5,0c0-2.6,0-5.1,0-7.7
			c5.1,0,10.2,0,15.5,0c0-5.2,0-10.3,0-15.5c2.6,0,5.1,0,7.8,0c0,5.1,0,10.2,0,15.4c5.2,0,10.3,0,15.5,0c0,2.6,0,5.1,0,7.7
			C52.4,42.2,47.3,42.2,42.1,42.2z"/>
	</g>
</g>
</svg>
