<?xml version="1.0" encoding="utf-8"?>
<!-- Generator: Adobe Illustrator 21.1.0, SVG Export Plug-In . SVG Version: 6.00 Build 0)  -->
<svg version="1.1" id="圖層_1" xmlns="http://www.w3.org/2000/svg" xmlns:xlink="http://www.w3.org/1999/xlink" x="0px" y="0px"
	 viewBox="0 0 100 100" style="enable-background:new 0 0 100 100;" xml:space="preserve">
<style type="text/css">
	.st0{fill:#FFFFFF;}
</style>
<g>
	<g>
		<path class="st0" d="M86.6,100c-1.3-0.4-2.3-1.2-3.3-2.2c-5.6-5.7-11.2-11.4-17-16.9c-2.1-2-2.4-4.2-1.5-6.7
			c0.2-0.6,0.5-1.2,0.7-1.7c-2.9-2.9-5.8-5.8-8.7-8.7C41,76,18.4,71.8,7.2,56.7C-3.4,42.6-2,22.6,10.6,10.2
			C23.3-2.3,43.3-3.4,57.3,7.5C72,19,75.7,41.1,63.6,56.9c2.8,2.8,5.5,5.5,8.3,8.2c0.2,0.2,0.7,0.2,1,0.1c1.4-0.3,2.8-0.7,4.3-0.9
			c1.1-0.1,2.1,0.4,2.9,1.2c6.2,6.2,12.5,12.4,18.6,18.7c0.6,0.6,0.9,1.5,1.3,2.3c0,0.7,0,1.5,0,2.2c-0.7,2.4-1.8,4.6-3.5,6.5
			c-2.1,2.3-4.7,3.9-7.7,4.7C88.1,100,87.3,100,86.6,100z M62.5,35.4c0-15-12.1-27.1-27.1-27.1S8.3,20.4,8.3,35.4
			s12.1,27.1,27.1,27.1S62.5,50.4,62.5,35.4z"/>
	</g>
</g>
</svg>
