<svg id="圖層_1" data-name="圖層 1" xmlns="http://www.w3.org/2000/svg" viewBox="0 0 84.95 99.07"><title>trash</title><path d="M8.91,32.79c-1.32,0-2.46,0-3.6,0a3.34,3.34,0,0,1-3.4-3,55.69,55.69,0,0,1,.19-9.26c.71-5,5.63-8.95,10.7-9,4.31,0,8.62,0,12.93,0h.81a11.37,11.37,0,0,1,5.4-9A9.76,9.76,0,0,1,37.46.93q6.74,0,13.48,0a11.36,11.36,0,0,1,11,9.84c0,.22,0,.43.07.77H75.95a11.26,11.26,0,0,1,10.8,10.64c0,2.17,0,4.35,0,6.52,0,2.72-1.36,4.09-4.06,4.09H16v1.34q0,25.75,0,51.5c0,4.65,2.59,7.26,7.26,7.26H64.94a12.68,12.68,0,0,0,1.76-.07c3.71-.52,5.84-3,5.86-6.81,0-8.62,0-17.24,0-25.86q0-9.95,0-19.89c0-2.35,1.44-3.94,3.53-3.94s3.56,1.59,3.56,3.92q0,22.77,0,45.53A14.74,14.74,0,0,1,65.43,100q-21.16,0-42.33,0c-7.41,0-14.17-6.75-14.18-14.17q0-25.81,0-51.61C8.91,33.77,8.91,33.34,8.91,32.79Zm70.7-7.12c0-1.5.09-2.89,0-4.28a2.7,2.7,0,0,0-2.69-2.7,10.6,10.6,0,0,0-1.32,0H21.42c-3,0-6,0-9.06,0-2,0-3.08.73-3.28,2.41a39.42,39.42,0,0,0,0,4.6ZM54.84,11.51c0-2.36-1-3.43-3.27-3.47s-4.34,0-6.51,0c-2.72,0-5.44,0-8.16,0-2.21,0-3.36,1.37-3.07,3.46Z" transform="translate(-1.81 -0.93)"/><path d="M33.69,62.84q0,9.67,0,19.34a3.54,3.54,0,0,1-6.94,1.09A4.86,4.86,0,0,1,26.6,82q0-19.12,0-38.24a3.56,3.56,0,1,1,7.1,0Q33.7,53.28,33.69,62.84Z" transform="translate(-1.81 -0.93)"/><path d="M47.84,62.91c0,6.45,0,12.89,0,19.34a3.54,3.54,0,0,1-7,1,4.18,4.18,0,0,1-.13-1.09q0-19.29,0-38.57a3.56,3.56,0,1,1,7.1.13q0,9.62,0,19.23Z" transform="translate(-1.81 -0.93)"/><path d="M54.89,62.85c0-6.48,0-13,0-19.43A3.52,3.52,0,0,1,58,39.86a3.56,3.56,0,0,1,3.88,2.72A4.69,4.69,0,0,1,62,43.67Q62,62.83,62,82c0,2.82-2.47,4.63-4.9,3.59a3.5,3.5,0,0,1-2.2-3.5Q54.9,72.46,54.89,62.85Z" transform="translate(-1.81 -0.93)"/></svg>