<?xml version="1.0" encoding="utf-8"?>
<!-- Generator: Adobe Illustrator 21.1.0, SVG Export Plug-In . SVG Version: 6.00 Build 0)  -->
<svg version="1.1" id="圖層_1" xmlns="http://www.w3.org/2000/svg" xmlns:xlink="http://www.w3.org/1999/xlink" x="0px" y="0px"
	 viewBox="0 0 100 100" style="enable-background:new 0 0 100 100;" xml:space="preserve">
<style type="text/css">
	.st0{fill:#FFFFFF;}
</style>
<title>trash</title>
<g>
	<path class="st0" d="M8.4,32.2c-1.6,0-2.9,0-4.2,0c-2.1,0-3.8-1.3-4-3C-0.1,26,0,22.9,0.4,19.8c0.8-5,6.6-9,12.6-9.1
		c5.1,0,10.1,0,15.2,0h1c0.3-3.7,2.6-7.1,6.4-9.1C37.4,0.5,39.7,0,42,0c5.3,0,10.6,0,15.9,0C64.5,0.1,70,4.3,70.8,9.9
		c0,0.2,0,0.4,0.1,0.8h16.4c6.8,0.2,12.3,4.9,12.7,10.7c0,2.2,0,4.4,0,6.6c0,2.7-1.6,4.1-4.8,4.1H16.7v1.4c0,17.3,0,34.7,0,52
		c0,4.7,3,7.3,8.5,7.3h49.1c0.7,0,1.4,0,2.1-0.1c4.4-0.5,6.9-3,6.9-6.9c0-8.7,0-17.4,0-26.1c0-6.7,0-13.4,0-20.1c0-2.4,1.7-4,4.2-4
		s4.2,1.6,4.2,4c0,15.3,0,30.6,0,46C91.3,93.5,84,99.7,74.9,100c-16.6,0-33.2,0-49.8,0c-8.7,0-16.7-6.8-16.7-14.3
		c0-17.4,0-34.7,0-52.1C8.4,33.1,8.4,32.7,8.4,32.2z M91.6,25c0-1.5,0.1-2.9,0-4.3c0-1.5-1.4-2.7-3.2-2.7c-0.5,0-1,0-1.6,0H23.1
		c-3.5,0-7.1,0-10.7,0c-2.4,0-3.6,0.7-3.9,2.4c-0.1,1.5-0.1,3.1,0,4.6H91.6z M62.4,10.7c0-2.4-1.2-3.5-3.8-3.5c-2.7,0-5.1,0-7.7,0
		c-3.2,0-6.4,0-9.6,0c-2.6,0-4,1.4-3.6,3.5H62.4z"/>
	<path class="st0" d="M37.5,62.5c0,6.5,0,13,0,19.5c0.1,2-1.7,3.6-4,3.7c-1.9,0.1-3.6-1-4.1-2.6c-0.1-0.4-0.2-0.8-0.2-1.3
		c0-12.9,0-25.7,0-38.6c-0.2-2,1.6-3.7,3.9-3.9s4.3,1.3,4.5,3.3c0,0.2,0,0.4,0,0.5C37.6,49.6,37.5,56.1,37.5,62.5z"/>
	<path class="st0" d="M54.2,62.6c0,6.5,0,13,0,19.5c0.2,2-1.5,3.7-3.8,3.9c-2.1,0.2-4.1-1.1-4.5-2.9c-0.1-0.4-0.2-0.7-0.2-1.1
		c0-13,0-26,0-38.9c-0.1-2,1.6-3.7,4-3.8c2.3-0.1,4.3,1.4,4.4,3.4c0,0.2,0,0.3,0,0.5C54.2,49.7,54.2,56.1,54.2,62.6L54.2,62.6z"/>
	<path class="st0" d="M62.5,62.5c0-6.5,0-13.1,0-19.6c0-1.8,1.5-3.4,3.7-3.6c2.1-0.2,4.1,1,4.6,2.7c0.1,0.4,0.1,0.7,0.1,1.1
		c0,12.9,0,25.8,0,38.7c0,2.8-2.9,4.7-5.8,3.6c-1.7-0.6-2.7-2-2.6-3.5C62.5,75.4,62.5,69,62.5,62.5z"/>
</g>
</svg>
