<?xml version="1.0" encoding="utf-8"?>
<!-- Generator: Adobe Illustrator 21.1.0, SVG Export Plug-In . SVG Version: 6.00 Build 0)  -->
<svg version="1.1" id="圖層_1" xmlns="http://www.w3.org/2000/svg" xmlns:xlink="http://www.w3.org/1999/xlink" x="0px" y="0px"
	 viewBox="0 0 100 100" style="enable-background:new 0 0 100 100;" xml:space="preserve">
<g>
	<g>
		<path d="M6.4,99.9c1-19.5,9.9-33.2,26.4-41.8C24,51.3,19.3,42.2,19.6,30.7c0.2-8.7,3.5-16.2,9.6-22.2c12.4-12.2,32-11.4,43.4,1.8
			c12.1,14,10.3,36.3-5.3,47.8c16.5,8.6,25.5,22.3,26.4,41.9c-1.7,0-3,0-4.4,0s-2.8,0-4.3,0c-0.2-5.5-1.2-10.8-3.5-15.8
			c-2.3-4.9-5.5-9.1-9.6-12.7c-7.2,7-14.4,13.9-21.7,21c-7.2-7-14.4-13.9-21.7-21C19.8,79,15.5,88.4,15.1,99.9
			C12.3,99.9,9.5,99.9,6.4,99.9z M49.9,54.5c12.1,0,21.8-10.1,21.8-22.7C71.8,19.2,62.2,9,50.2,8.9C38,8.9,28.3,19,28.3,31.6
			C28.2,44.2,37.8,54.4,49.9,54.5z M36,66.5c4.8,4.6,9.4,9.1,14,13.7c4.7-4.6,9.3-9.1,14-13.7C54.6,62.6,45.4,62.6,36,66.5z"/>
	</g>
</g>
</svg>
