<?xml version="1.0" encoding="utf-8"?>
<!-- Generator: Adobe Illustrator 21.1.0, SVG Export Plug-In . SVG Version: 6.00 Build 0)  -->
<svg version="1.1" id="圖層_1" xmlns="http://www.w3.org/2000/svg" xmlns:xlink="http://www.w3.org/1999/xlink" x="0px" y="0px"
	 viewBox="0 0 100 100" style="enable-background:new 0 0 100 100;" xml:space="preserve">
<style type="text/css">
	.st0{fill:#FFFFFF;}
</style>
<path class="st0" d="M7.4,101.9c1-19.5,9.9-33.2,26.4-41.8C25,53.3,20.3,44.2,20.6,32.7c0.2-8.7,3.5-16.2,9.6-22.2
	c12.4-12.2,32-11.4,43.4,1.8c12.1,14,10.3,36.3-5.3,47.8c16.5,8.6,25.5,22.3,26.4,41.9c-1.7,0-3,0-4.4,0s-2.8,0-4.3,0
	c-0.2-5.5-1.2-10.8-3.5-15.8c-2.3-4.9-5.5-9.1-9.6-12.7c-7.2,7-14.4,13.9-21.7,21c-7.2-7-14.4-13.9-21.7-21
	c-8.5,7.5-12.8,16.9-13.1,28.4C13.3,101.9,10.5,101.9,7.4,101.9z M50.9,56.5c12.1,0,21.8-10.1,21.8-22.7
	c0.1-12.6-9.6-22.8-21.6-22.9C39,10.9,29.3,21,29.3,33.6C29.2,46.2,38.8,56.4,50.9,56.5z M37,68.5c4.8,4.6,9.4,9.1,14,13.7
	c4.7-4.6,9.3-9.1,14-13.7C55.6,64.6,46.4,64.6,37,68.5z"/>
</svg>
