<?xml version="1.0" encoding="utf-8"?>
<!-- Generator: Adobe Illustrator 21.1.0, SVG Export Plug-In . SVG Version: 6.00 Build 0)  -->
<svg version="1.1" id="Layer_1" xmlns="http://www.w3.org/2000/svg" xmlns:xlink="http://www.w3.org/1999/xlink" x="0px" y="0px"
	 viewBox="0 0 26 26" style="enable-background:new 0 0 26 26;" xml:space="preserve">
<style type="text/css">
	.st0{fill:#FFFFFF;}
</style>
<path class="st0" d="M14.1,26h2.4v-1.7c0-0.5,0.5-0.6,0.5-0.6c6-3.4,6.3-9.9,6.3-9.9h-7.9h-4.7H2.7c0,0,0.3,6.5,6.3,9.9
	c0,0,0.4,0.1,0.5,0.6V26h2.4H14.1z"/>
<g>
	<path class="st0" d="M12.4,9l10-1.9c0,0,0.1,0,0.1,0c0.6-0.2,0.9-0.7,0.8-1.3c-0.2-0.6-0.7-0.9-1.3-0.8l-5.9,1.5L12.4,9z"/>
	<path class="st0" d="M3.2,10.8l3-0.6L3.8,12c-0.2,0.1-0.2,0.3-0.1,0.5c0.1,0.1,0.3,0.2,0.4,0.2c0,0,0.1,0,0.1,0l4.5-2.9l3.1-2
		L20.7,2c0,0,0,0,0.1,0c0.4-0.3,0.5-0.9,0.3-1.3c0-0.1-0.1-0.1-0.1-0.2c-0.4-0.5-1-0.6-1.5-0.2L8.3,8.6L3,10
		c-0.2,0.1-0.3,0.2-0.3,0.4C2.8,10.7,3,10.8,3.2,10.8z"/>
</g>
</svg>
