<?xml version="1.0" encoding="utf-8"?>
<!-- Generator: Adobe Illustrator 21.1.0, SVG Export Plug-In . SVG Version: 6.00 Build 0)  -->
<svg version="1.1" id="Layer_1" xmlns="http://www.w3.org/2000/svg" xmlns:xlink="http://www.w3.org/1999/xlink" x="0px" y="0px"
	 viewBox="0 0 24 24" style="enable-background:new 0 0 24 24;" xml:space="preserve">
<style type="text/css">
	.st0{fill:#AD3703;}
</style>
<g>
	<g>
		<g>
			<g>
				<path class="st0" d="M12,23l-0.3-0.2c-0.4-0.3-8.9-7.7-8.9-12.6C2.9,5.1,7,1,12,1s9.2,4.1,9.2,9.1s-8.5,12.3-8.9,12.6L12,23z
					 M12,1.9c-4.6,0-8.3,3.7-8.3,8.3c0,4.1,6.8,10.3,8.3,11.7c1.5-1.3,8.3-7.6,8.3-11.7C20.3,5.6,16.6,1.9,12,1.9z"/>
			</g>
		</g>
	</g>
	<g>
		<path class="st0" d="M11.8,5.1c-2.7,0-5,2.2-5,5c0,2.7,2.2,5,5,5c2.7,0,5-2.2,5-5S14.5,5.1,11.8,5.1z M11.2,14l0.1-1.2h0.8
			l0.1,1.2H11.2z M12.2,12.1h-0.9L11,6h1.3L12.2,12.1z"/>
	</g>
</g>
</svg>
