<svg xmlns="http://www.w3.org/2000/svg" viewBox="0 0 89.87 90.62"><defs><style>.cls-1{fill:#faf3b7;}</style></defs><title>資產 3</title><g id="圖層_2" data-name="圖層 2"><g id="圖層_1-2" data-name="圖層 1"><path d="M43.18,90.6c-17.71.48-32.33-9-39.81-28-6.7-17-3.67-37.93,11.5-51.38C27.25.24,40.85-.87,55.08.43c13.13,1.21,30,18.58,33.5,32.9,5.63,23.13-7.74,48-28.63,55.1C54.65,90.22,49.64,89.85,43.18,90.6Z"/><path class="cls-1" d="M42.71,7.91c18.23,0,30.89,7.46,37,23.49,5.72,15.12,2.86,30.05-8.65,41-10.17,9.68-21.87,11.65-34.08,9.85s-25-13-28.61-26.48C3.6,37.84,12.94,17.9,28.69,11.17,34.06,8.87,39.43,7.34,42.71,7.91Z"/></g></g></svg>