<?xml version="1.0" encoding="utf-8"?>
<!-- Generator: Adobe Illustrator 22.1.0, SVG Export Plug-In . SVG Version: 6.00 Build 0)  -->
<svg version="1.1" id="圖層_1" xmlns="http://www.w3.org/2000/svg" xmlns:xlink="http://www.w3.org/1999/xlink" x="0px" y="0px"
	 viewBox="0 0 248.5 254.5" style="enable-background:new 0 0 248.5 254.5;" xml:space="preserve">
<style type="text/css">
	.st0{fill:#FFFFFF;}
	.st1{fill:#FAE345;}
	.st2{fill:#40220F;}
	.st3{fill:#B97233;}
	.st4{fill:#C9CACA;}
	.st5{fill:#75391C;}
	.st6{fill:none;}
	.st7{fill:#3DAE2B;}
	.st8{fill:#FF5100;}
	.st9{fill:#F5333F;}
	.st10{fill:#00AE42;}
</style>
<g id="圖層_3">
</g>
<g id="圖層_1_1_">
	<g id="圖層_2_1_">
	</g>
	<g>
		<path class="st0" d="M204,196.9c6.5-5.2,10-9.8,12-13.7c1.6-0.8,3.2-1.7,4.8-2.7c12.3-7.5,24.1-16.6,22.8-37.7
			c-0.1-1.6-1.1-15.9-5.1-31.8c1-0.4,1.9-0.9,2.8-1.5c6.5-4.3,8.9-12.1,6.1-20c-3.2-8.9-12-20.2-23.6-27.8c2.5-3.2,3.5-7.2,2.8-11.2
			c-0.8-4.5-3.5-8.1-7.6-10c-0.4-0.2-0.9-0.4-1.3-0.5c0.3-0.7,0.6-1.5,0.8-2.3c1.1-4.2,0.3-8.6-2.2-12.1c-2.6-3.6-6.6-5.7-11-5.7
			h-0.2c-6.6,0.1-13.4,5.1-20,15c-0.2,0.2-0.3,0.5-0.4,0.7c-0.5-1.7-1.3-3.4-2.3-5.3c-2.1-3.8-5.3-6.7-9.2-8.5c0-0.1,0-0.3,0-0.4
			c-0.6-5.2-3.4-12.6-13.1-17.9H160c-4.3-2.3-8.7-3.5-13-3.5c-6.6,0-12.7,2.8-17.4,7.8c-1.9-0.4-3.9-0.6-5.9-0.6
			c-11.4,0-22,6.8-25.6,16.6c-3.2,8.7-0.6,17.9,7.1,24.7l-6.7,12.9c-3.8,1.3-7.8,2.8-11.8,4.6c-5.6,2.5-10.8,5.3-15.6,8.2
			c-2.1-1.8-4.2-3.4-6.5-4.9c-1.9-1.3-4.1-1.9-6.3-1.9c-1.9,0-3.7,0.5-5.3,1.3c-3.7,2-6,5.8-5.9,10c0,0.6,0,1.3,0,1.9
			c-6.2,0.7-10.8,5.3-11.2,11.3c-0.1,2.1,0.2,6.1,4,9.8c0.2,0.1,0.3,0.3,0.5,0.4c-8.8,11.8-14.4,24.5-17.5,36.7
			c-2.2-2.1-5.2-3.3-8.3-3.3c-4.5,0-8.6,2.6-10.6,6.7c-6.1,12.5-5.1,26.8,2.5,38.2c2.3,3.4,6,5.4,10,5.4l0,0c2.3,0,4.5-0.7,6.5-1.8
			c0.5,1.7,1,3.4,1.6,5c-2.5,0.7-4.5,2.2-6,4.2c-0.1,0-0.3,0-0.4,0c-2.9,0-5.7,1.1-7.8,3.2c-2.2,2.1-3.4,4.9-3.4,7.9l0,0
			c-2.4,1.7-4.1,4.2-4.7,7.3c-1.1,6.1,3,12,9.1,13.1l10.1,1.8c-1.9,1.9-3.2,4.5-3.2,7.9c0,9.7,10.8,12.6,14.4,13.6
			c5,1.3,11.8,2.5,20.5,3.5c17.1,1.9,39.8,3,63.9,3s46.8-1.1,63.9-3c8.6-1,15.5-2.2,20.5-3.5C234,236.9,244.6,213.1,204,196.9z
			 M190.2,112.4c-2.9-9.5-7-19-12.5-27.4c2.2-0.6,4.8-1.2,7.8-1.7c0.5,0,1.1-0.1,1.7-0.1c0.4,0,0.9,0,1.3,0c7,1.5,17.6,12.1,23.3,18
			c1.3,3,2.4,6.2,3.5,9.7c-0.3-0.1-0.5-0.2-0.8-0.3c-0.9-0.3-5.8-1.5-11.3-1.5c-4.2,0-7.8,0.7-10.9,2.2
			C191.6,111.6,190.9,112,190.2,112.4z M215.5,157l2.5-9.2l-7.4,3.1l3.2-8.7l-16.6,7.3c-0.3-3.7-0.8-7.8-1.4-12.2
			c0.2-0.3,0.5-0.5,0.7-0.8c1.1-1.4,3.5-3.9,5.3-4.9c0.2,0,0.6-0.1,1.4-0.1c2.1,0,4.5,0.5,5.2,0.7c1,0.3,2,0.4,3,0.4
			c3.1,0,6-1.3,8.1-3.5c0.8,5,1.4,10,1.7,14.9C221.6,149.9,221,152.8,215.5,157z"/>
		<g>
			<path class="st1" d="M91.8,77c-71,31.4-72.7,113.2-35.4,132.1c19.2,9.7,65.4,13.1,107.2-3.8s42.6-30,42.6-30l-8.9,2.5l2.5-9.3
				l-10.1,4.2l3-8l-6.7,3C185.9,167.7,188.8,34.1,91.8,77z"/>
			<path class="st2" d="M100.6,219.2c-18.6,0-35-3.1-45.2-8.2c-16.2-8.2-25.8-27.9-25.2-51.4c0.7-28.2,17.1-65.1,60.8-84.4l0.9,1.9
				L91,75.2c25.6-11.3,46.7-11.5,62.9-0.7c31.3,20.9,34,76,34.1,90.1l8.3-3.6l-3,8.1l9.6-4l-2.7,9.8l8.1-2.3l-0.2,3
				c-0.1,1.5-2.1,14.9-43.9,31.8C143.5,215.6,120.7,219.2,100.6,219.2z M126.6,70.7c-10.1,0-21.4,2.8-33.9,8.3
				c-41.9,18.5-57.6,53.8-58.3,80.7c-0.6,21.9,8.2,40.1,22.9,47.6c17.2,8.7,62.5,13.5,105.4-3.9c26.8-10.8,36.2-20,39.6-24.7l-8,2.3
				l2.4-8.7l-10.6,4.4l2.9-7.9l-5.2,2.3l0.1-3.3c0-0.7,1.1-67.6-32.3-89.8C144.3,73.1,136,70.7,126.6,70.7z"/>
		</g>
		<g>
			<path class="st3" d="M70.6,89.3c-3.6-4.1-7.7-7.7-12.2-10.7c0,4.5,0.6,9,1.5,13.4c-3.8-0.5-7.6-0.6-11.3-0.2
				c-0.6,0.1-1.3,0.3-1.4,0.9c0,0.4,0.3,0.7,0.5,0.9c2.7,2.6,5.7,5.1,8.7,7.4"/>
			<path class="st2" d="M56.5,102.2c-0.3,0-0.5-0.1-0.8-0.3c-3.1-2.3-6.1-4.8-8.8-7.5c-0.3-0.3-1-0.9-0.9-1.9c0.1-0.9,0.7-1.9,2.5-2
				c3.3-0.3,6.6-0.3,9.9,0c-0.8-3.9-1.2-8-1.2-12c0-0.5,0.3-0.9,0.7-1.1c0.4-0.2,0.9-0.2,1.3,0.1c4.6,3.1,8.8,6.8,12.4,11
				c0.5,0.5,0.4,1.3-0.1,1.8s-1.3,0.4-1.8-0.1c-3-3.4-6.3-6.4-9.9-9.1c0.2,3.6,0.7,7.2,1.4,10.7c0.1,0.4,0,0.8-0.3,1.1
				s-0.7,0.5-1.1,0.4c-3.6-0.5-7.2-0.5-10.8-0.2c2.6,2.5,5.3,4.8,8.2,6.9c0.6,0.4,0.7,1.2,0.3,1.8C57.3,102,56.9,102.2,56.5,102.2z"
				/>
		</g>
		<path class="st2" d="M359.9,139c0,0.1,0,0.2,0,0.3c0.2-0.5,0.4-1,0.6-1.5c0.4-0.3-0.6-0.1-0.9-0.1c-0.6,0-1.2,0-1.8,0
			c-1.2-0.2-0.9-0.8-0.7-1.9c0.3-1.4,1.4-4,3.3-3.2c0.6,0.2,1.3,1.4,1.2,2.1c-0.1,1-1.9,0.9-2,1.3c0.2,0.2,0.5,0.4,0.7,0.6
			c-0.1-0.3-0.1-0.6-0.2-0.8c-0.1-0.4-0.2-1,0-1.3c0.2-0.2,0.7-0.4,0.9-0.5c0.3-0.2,0.7-0.1,0.9,0.1c0.2,0.2,0.4,0.2,0.6-0.1
			c-2.6-0.7-3.7,3.3-1.1,4.1c2.3,0.6,4.8-0.9,5-3.4c0.2-2.7-2.2-4.8-4.7-4.9c-2.6-0.1-5.3,1.5-5.8,4.1c-0.5,2.1,0.2,5.7,2.6,6.3
			c2.1,0.6,5.4-1.1,6.5-2.9c1.4-2.2,0.5-5.4-1.1-7.3c-1.7-1.9-4.6-2.2-6.9-1.1c-2.4,1.2-3.7,3.8-4.2,6.3c-0.5,3.1,0.1,5.9,3.6,6.5
			c2.1,0.4,7.8,0.8,7.5-2.8C363.9,136.3,359.7,136.3,359.9,139L359.9,139z"/>
		<path class="st2" d="M93.2,83.7c2.3,1.3,4.7,1.5,7.3,1c2.4-0.5,5.7-1.4,7.3-3.3c1.7-2.1-1.3-5.1-3-3c-1,1.2-3.2,1.7-4.6,2
			c-1.7,0.4-3.4,0.5-5-0.4C93,78.8,90.8,82.4,93.2,83.7L93.2,83.7z"/>
		<path class="st2" d="M173.9,35c-1.3-2.4-4.1-5.3-10.3-5.3c-0.5,0-1,0-1.4,0.1c1-2.2,1.6-4.7,1.3-7.3c-0.5-4.2-3.2-7.7-8-10.3
			c-2.9-1.5-5.7-2.3-8.3-2.3c-7.4,0-11.7,5.6-13.9,10.1c-2.7-1.9-5.9-3-9.4-3c-7.2,0-14.1,4.3-16.3,10.1c-1.8,4.8-0.2,9.8,4.5,13.8
			c1.6,1.4,4,2.3,7,2.6L105.9,69c-0.6,1.2-0.5,2.7,0.5,3.8c0.6,0.7,6,6.5,20.3,6.7c0.2,0,0.4,0,0.6,0c13.7,0,19.7-5,20.3-5.5
			c0.5-0.4,0.8-1,1-1.6l5.7-20.2c1.8,0.5,4.2,0.8,7.2,0.9c0.2,0,0.3,0,0.5,0c6.1,0,10.7-2,12.8-5.5C176.2,45.2,177.2,41.2,173.9,35z
			 M162.1,49.7h-0.5c-8.6-0.1-9.4-2.5-9.4-2.5l-6.8,24.3c0,0-5.3,4.7-18.1,4.7h-0.6c-13.2-0.1-17.8-5.5-17.8-5.5l15.7-30.5
			c0,0-1.2,0.2-2.8,0.2c-2.4,0-5.7-0.3-7.5-1.9c-9.6-8.3-0.1-18,9.6-18c4,0,8,1.6,10.7,5.7c0,0,3.2-12.9,12.6-12.9
			c2,0,4.2,0.6,6.7,1.9c13.8,7.5,0.7,19.5,0.3,19.9c0.3-0.1,5-2,9.5-2c3,0,5.8,0.8,7.3,3.5C176.1,46.2,169.7,49.7,162.1,49.7z"/>
		<path class="st0" d="M162.1,49.7h-0.5c-8.6-0.1-9.4-2.5-9.4-2.5l-6.8,24.3c0,0-5.3,4.7-18.1,4.7h-0.6c-13.2-0.1-17.8-5.5-17.8-5.5
			l15.7-30.5c0,0-1.2,0.2-2.8,0.2c-2.4,0-5.7-0.3-7.5-1.9c-9.6-8.3-0.1-18,9.6-18c4,0,8,1.6,10.7,5.7c0,0,3.2-12.9,12.6-12.9
			c2,0,4.2,0.6,6.7,1.9c13.8,7.5,0.7,19.5,0.3,19.9c0.3-0.1,5-2,9.5-2c3,0,5.8,0.8,7.3,3.5C176.1,46.2,169.7,49.7,162.1,49.7z"/>
		<g>
			<path class="st2" d="M30,217.7c-0.1,0-0.3,0-0.4-0.1c-0.5-0.2-0.8-0.6-0.9-1l-2.1-16.7c-0.1-0.7,0.4-1.3,1.1-1.4
				c0.7-0.1,1.3,0.4,1.4,1.1l1.8,14l13.2-13.8c0.5-0.5,1.3-0.5,1.8,0s0.5,1.3,0,1.8L31,217.4C30.7,217.6,30.4,217.7,30,217.7z"/>
			<path class="st2" d="M30.1,217.7c-0.1,0-0.1,0-0.2,0l-16.5-3c-0.7-0.1-1.1-0.8-1-1.5s0.8-1.1,1.5-1l12.6,2.3l-8.9-9.2
				c-0.5-0.5-0.5-1.3,0-1.8s1.3-0.5,1.8,0l11.6,12c0.4,0.4,0.5,1,0.2,1.5C30.9,217.5,30.5,217.7,30.1,217.7z"/>
		</g>
		<g>
			<path class="st2" d="M185.8,216.3c-0.5,0-1-0.3-1.2-0.8c-0.3-0.6,0.1-1.4,0.7-1.6l13.2-5.3l-15-12.7c-0.5-0.5-0.6-1.2-0.2-1.8
				c0.5-0.5,1.2-0.6,1.8-0.2l16.6,14c0.3,0.3,0.5,0.7,0.4,1.2c-0.1,0.4-0.4,0.8-0.8,1l-15.1,6.1C186.1,216.3,186,216.3,185.8,216.3z
				"/>
			<path class="st2" d="M196,225.2c-0.1,0-0.3,0-0.4-0.1c-0.7-0.2-1-0.9-0.8-1.6l3.1-9.4l-7.3,8c-0.5,0.5-1.3,0.6-1.8,0.1
				s-0.6-1.3-0.1-1.8l11.3-12.3c0.4-0.4,1.1-0.5,1.6-0.2s0.8,0.9,0.6,1.5l-4.9,15C197,224.9,196.5,225.2,196,225.2z"/>
		</g>
		<ellipse class="st4" cx="117.2" cy="234.4" rx="88.8" ry="10.1"/>
		<g>
			<path class="st3" d="M157.5,82.4c-2.4-0.2-70.9,16-50.3,74.3s77.5,19.4,77.5,19.4l-4.1-5.1c0,0-47.2,27-57.8-17.4
				s33.3-67,33.3-67L157.5,82.4z"/>
			<path class="st2" d="M146.4,190.1c-4.2,0-8.5-0.6-12.8-1.9c-12.5-4.1-21.8-14.5-27.6-31c-6.7-19-4.9-35.5,5.5-49.2
				c15.6-20.5,44.4-26.9,46.1-26.8c0.4,0,0.8,0.2,1,0.6c0.2,0.3,0.3,0.7,0.1,1.1l-1.4,4.1c-0.1,0.3-0.3,0.6-0.6,0.7
				c-0.1,0.1-10.9,5.7-20.3,16.6c-12.5,14.5-16.7,31-12.4,49c2.7,11.4,8.1,18.9,16.1,22.3c16.7,7.3,39.6-5.6,39.8-5.7
				c0.5-0.3,1.2-0.2,1.6,0.3l4.1,5.1c0.2,0.3,0.3,0.6,0.3,1c-0.1,0.3-0.2,0.7-0.5,0.9C184.4,177.8,166.1,190.1,146.4,190.1z
				 M155.6,84c-7.1,1.6-31.2,9.4-43.5,27.4c-8.6,12.6-9.9,27.7-3.8,44.9c5.6,15.7,14.3,25.6,26,29.4c20,6.5,43-6.6,48.4-10l-2.6-3.2
				c-4.7,2.5-25,12.3-41.1,5.3c-8.7-3.8-14.6-11.9-17.5-24.1c-5.6-23.5,4-40.8,13-51.3c8.7-10.1,18.3-15.7,20.5-16.9L155.6,84z"/>
		</g>
		<g>
			<path class="st1" d="M133.8,109.5c0,0-38.5,1.6-53.2,25.1c-10.5,16.9-2.3,26.4,7.4,23.6c9.7-2.7,15.6-7.4,15.6-7.4
				s-15.6,14.7-8.4,21c6.5,5,12.4-1.4,12.4-1.4s-4.6,11,1.1,13.1c5.7,2.1,10.5-2.7,10.5-2.7s-2.9,8.4,3.2,7.6
				c6.1-0.8,26.6-15.8,26.6-25.7"/>
			<path class="st2" d="M121.6,189.7c-1.7,0-2.8-0.7-3.3-1.4c-1-1.2-1.1-3-1-4.5c-2.2,1.2-5.4,2.3-9,1c-1.4-0.5-2.4-1.5-3-2.9
				c-1-2.4-0.6-5.6,0-8c-2.9,1.5-6.9,2.1-10.8-0.9c0,0,0,0-0.1-0.1c-1.5-1.3-2.3-3-2.3-5.1c-0.1-3.8,2.5-8.1,5.2-11.6
				c-2.4,1.2-5.4,2.4-8.9,3.4c-4.7,1.3-9.2,0-11.7-3.4c-1.8-2.4-5.1-9.3,2.9-22.1c14.8-23.8,52.6-25.6,54.2-25.7
				c0.7,0,1.3,0.5,1.3,1.2s-0.5,1.3-1.2,1.3c-0.4,0-38,1.9-52.1,24.5c-5,8-6.1,15.2-3,19.3c1.9,2.6,5.3,3.5,9,2.4
				c9.4-2.6,15.1-7.1,15.2-7.2c0.5-0.4,1.3-0.3,1.7,0.2s0.4,1.3-0.1,1.7c-2.8,2.6-10,10.6-9.9,15.9c0,1.3,0.5,2.4,1.4,3.2
				c5.5,4.1,10.5-1,10.7-1.3c0.4-0.4,1.1-0.5,1.6-0.2c0.5,0.3,0.7,1,0.5,1.6c-0.8,1.8-2.5,7.1-1.3,9.9c0.3,0.8,0.8,1.2,1.6,1.5
				c4.8,1.8,9.1-2.4,9.2-2.5c0.4-0.4,1.1-0.5,1.6-0.2c0.5,0.3,0.7,0.9,0.5,1.5c-0.4,1.3-1.1,4.4-0.2,5.5c0.1,0.2,0.5,0.6,2,0.4
				c5.7-0.8,25.5-15.4,25.5-24.5c0-0.7,0.6-1.3,1.3-1.3s1.3,0.6,1.3,1.3c0,10.6-21.1,26.1-27.7,27
				C122.2,189.7,121.9,189.7,121.6,189.7z"/>
		</g>
		<path class="st2" d="M183.3,61.2c-0.5,0-1-0.3-1.2-0.8c-0.3-0.6,0-1.4,0.7-1.7c2.6-1.1,9.6-4.6,10.6-8c0.2-0.7,0.1-1.4-0.4-2.1
			c-0.3-0.5-0.7-0.7-1.2-0.7l0,0c-3.1,0-9.2,6.9-12.4,11.3c-0.4,0.6-1.2,0.7-1.8,0.3c-0.6-0.4-0.7-1.2-0.3-1.8
			c0.9-1.3,9-12.4,14.4-12.4l0,0c1.3,0,2.5,0.6,3.3,1.8c0.9,1.3,1.1,2.8,0.7,4.2c-1.5,5.1-11,9.2-12,9.6
			C183.6,61.2,183.4,61.2,183.3,61.2z"/>
		<path class="st2" d="M204.3,58.9c-0.4,0-0.7,0-0.8,0c-0.7,0-1.2-0.6-1.2-1.3c0-0.7,0.6-1.2,1.3-1.2c3.2,0.1,8.9-0.4,10.5-2.3
			c0.4-0.4,0.5-0.9,0.4-1.5c-0.1-0.5-0.3-0.7-0.5-0.8c-2.2-1-8.9,1.9-13,4.3c-0.6,0.4-1.4,0.1-1.7-0.5c-0.4-0.6-0.1-1.4,0.5-1.7
			c1.8-1.1,11.2-6.3,15.3-4.4c1.1,0.5,1.7,1.4,2,2.6c0.2,1.4-0.1,2.6-1,3.6C213.4,58.7,206.7,58.9,204.3,58.9z"/>
		<path class="st2" d="M198.8,43.4c-0.5,0-0.9-0.3-1.2-0.8c-0.3-0.6,0-1.4,0.6-1.7c2.9-1.3,7.8-4.3,8.5-6.7c0.2-0.6,0.1-1-0.3-1.5
			c-0.3-0.4-0.6-0.5-0.8-0.5c-2.4,0-7.2,5.6-9.8,9.5c-0.4,0.6-1.2,0.7-1.8,0.3c-0.6-0.4-0.7-1.2-0.3-1.8c1.2-1.8,7.4-10.5,11.9-10.6
			c1.2,0,2.2,0.5,2.9,1.5c0.8,1.1,1,2.4,0.7,3.7c-1.2,4.4-9,7.9-9.9,8.3C199.1,43.4,198.9,43.4,198.8,43.4z"/>
		<path class="st2" d="M13.1,146.7c-4.4,9.1-3.9,19.7,1.8,28.2c1.5,2.2,5.2,0.1,3.6-2.1c-4.8-7.2-5.6-16.1-1.8-24
			C17.9,146.4,14.3,144.2,13.1,146.7L13.1,146.7z"/>
		<path class="st2" d="M19.7,150.6c-3.4,5-4,14.9-0.2,19.9c1.6,2.1,5.3,0,3.6-2.1c-2.9-3.8-2.4-11.7,0.2-15.6
			C24.9,150.5,21.3,148.4,19.7,150.6L19.7,150.6z"/>
		<g>
			<g>
				<path class="st3" d="M155.6,84.1c0,0-4.5,3.5-2.4,13.3c1.9,8.9,13.9,69.4,27,76.8c11.3,6.3,22.2,4.5,34.9-3.3
					c12.1-7.4,18.3-13.3,17.4-27.4s-7.1-59.8-28.7-68.3C176.1,64.3,155.6,84.1,155.6,84.1z"/>
				<path class="st2" d="M194.1,179.2c-5,0-9.7-1.3-14.5-4c-8.6-4.8-17.8-30.2-27.2-75.6c-0.2-0.8-0.3-1.5-0.4-2
					c-2.1-9.9,2.2-14,2.8-14.5c1-1,22-19.9,49.6-9.2c25.4,9.9,29.3,67,29.5,69.4c0.9,14.4-5.1,20.7-18,28.6
					C207.8,176.7,200.8,179.2,194.1,179.2z M156.4,85c-0.2,0.1-3.8,3.3-1.9,12c0.1,0.5,0.2,1.2,0.4,2c12.2,58.6,21.5,71.5,26,73.9
					c10.2,5.7,20.6,4.7,33.6-3.2c12.3-7.5,17.6-13.1,16.8-26.2c-1.3-20-8.7-59.7-27.9-67.2C176.7,65.9,156.6,84.8,156.4,85L156.4,85
					z M155.6,84.1L155.6,84.1L155.6,84.1z"/>
			</g>
			<g>
				<path class="st5" d="M189.1,119.9c10.2-7.2,14.6-3.8,19.5-0.8s13.2,16.2,11.1,26.9c-2.1,10.7-19.5,12.4-22.9,9.7
					C193.5,152.9,181.4,125.3,189.1,119.9z"/>
				<path class="st2" d="M202,158c-2.6,0-4.8-0.5-6-1.4c-2.9-2.3-11-19.9-10.7-30.4c0.1-3.5,1.1-6,3-7.3c10.4-7.3,15.4-4.3,20.2-1.3
					l0.7,0.4c5.4,3.3,13.9,17.1,11.7,28.2c-0.9,4.5-4.5,8.2-10,10.2C208,157.5,204.8,158,202,158z M199.7,116.9
					c-2.6,0-5.7,1.1-9.9,4l0,0c-1.2,0.9-1.9,2.7-2,5.3c-0.3,9.9,7.6,26.7,9.8,28.4c1.4,1.1,7.1,1.4,12.5-0.6
					c3.3-1.2,7.5-3.7,8.4-8.3c2-9.9-5.8-22.7-10.5-25.5l-0.7-0.4C204.9,118.2,202.6,116.9,199.7,116.9z M189.1,119.9L189.1,119.9
					L189.1,119.9z"/>
			</g>
			<path class="st2" d="M187.5,131c-0.3,0-0.5-0.1-0.8-0.3c-0.6-0.4-0.7-1.2-0.3-1.8c0.2-0.2,4.6-6.1,10.1-8.7
				c5.7-2.7,14.8-0.2,15.2-0.1c0.7,0.2,1.1,0.9,0.9,1.6c-0.2,0.7-0.9,1.1-1.6,0.9c-0.1,0-8.6-2.4-13.4-0.1c-5,2.4-9.1,7.9-9.2,7.9
				C188.2,130.9,187.8,131,187.5,131z"/>
			<g>
				<path class="st2" d="M190.2,127.4c-0.2,0-0.4-0.1-0.4-0.4c-0.1-0.5-0.1-0.8-0.1-0.8c0-0.2,0.1-0.4,0.4-0.5
					c0.2,0,0.4,0.1,0.5,0.4c0,0,0,0.3,0.1,0.8C190.7,127.2,190.5,127.4,190.2,127.4L190.2,127.4z"/>
				<path class="st2" d="M203.7,154c-0.2,0-0.3,0-0.5,0s-0.4-0.2-0.4-0.4c0-0.2,0.2-0.4,0.4-0.4c0.5,0,1,0,1.6,0
					c0.2,0,0.4,0.1,0.5,0.4c0,0.2-0.1,0.4-0.4,0.5C204.5,154,204.1,154,203.7,154z M201.5,153.8
					C201.5,153.8,201.5,153.7,201.5,153.8c-0.4-0.1-0.8-0.2-1.1-0.3c-0.2-0.1-0.5-0.2-0.7-0.3s-0.3-0.4-0.2-0.6
					c0.1-0.2,0.4-0.3,0.6-0.2c0.2,0.1,0.4,0.2,0.6,0.3c0.3,0.1,0.6,0.2,0.9,0.3c0.2,0.1,0.4,0.3,0.3,0.5
					C201.9,153.6,201.7,153.8,201.5,153.8z M206.5,153.7c-0.2,0-0.4-0.1-0.4-0.3c0-0.2,0.1-0.5,0.3-0.5c0.5-0.1,1-0.2,1.6-0.4
					c0.2-0.1,0.5,0.1,0.5,0.3c0.1,0.2-0.1,0.5-0.3,0.5C207.6,153.4,207.1,153.6,206.5,153.7L206.5,153.7z M209.6,152.7
					c-0.2,0-0.3-0.1-0.4-0.3c-0.1-0.2,0-0.5,0.2-0.6c0.5-0.2,1-0.4,1.5-0.7c0.2-0.1,0.5,0,0.6,0.2c0.1,0.2,0,0.5-0.2,0.6
					c-0.5,0.3-1,0.5-1.5,0.7C209.7,152.7,209.7,152.7,209.6,152.7z M198.7,152.2c-0.1,0-0.2,0-0.3-0.1c-0.4-0.4-0.7-0.8-1.1-1.3
					c-0.1-0.2-0.1-0.5,0.1-0.6c0.2-0.1,0.5-0.1,0.6,0.1c0.3,0.5,0.7,0.9,1,1.2c0.2,0.2,0.2,0.4,0,0.6
					C198.9,152.1,198.8,152.2,198.7,152.2z M212.5,151.1c-0.1,0-0.3-0.1-0.3-0.2c-0.1-0.2-0.1-0.5,0.1-0.6c0.5-0.3,0.9-0.6,1.3-1
					c0.2-0.2,0.4-0.1,0.6,0c0.2,0.2,0.1,0.4,0,0.6c-0.4,0.4-0.9,0.7-1.3,1C212.7,151.1,212.6,151.1,212.5,151.1z M196.7,149.5
					c-0.1,0-0.3-0.1-0.4-0.2c-0.3-0.5-0.5-1-0.8-1.5c-0.1-0.2,0-0.5,0.2-0.6s0.5,0,0.6,0.2c0.3,0.5,0.5,1,0.8,1.4
					c0.1,0.2,0.1,0.5-0.2,0.6C196.9,149.5,196.8,149.5,196.7,149.5z M215,148.9c-0.1,0-0.2,0-0.3-0.1c-0.2-0.1-0.2-0.4-0.1-0.6
					c0.3-0.4,0.6-0.9,0.9-1.3c0.1-0.2,0.4-0.3,0.6-0.2c0.2,0.1,0.3,0.4,0.2,0.6c-0.3,0.5-0.6,1-1,1.5
					C215.2,148.9,215.1,148.9,215,148.9z M195.3,146.6c-0.2,0-0.3-0.1-0.4-0.3c-0.2-0.5-0.4-1-0.6-1.5c-0.1-0.2,0-0.5,0.2-0.5
					c0.2-0.1,0.5,0,0.5,0.2c0.2,0.5,0.4,1,0.6,1.5c0.1,0.2,0,0.5-0.2,0.6C195.4,146.5,195.3,146.6,195.3,146.6z M216.4,146h-0.1
					c-0.2-0.1-0.4-0.3-0.3-0.5c0.1-0.5,0.2-1,0.3-1.6c0-0.2,0.2-0.4,0.5-0.4c0.2,0,0.4,0.2,0.4,0.5c-0.1,0.6-0.2,1.2-0.3,1.7
					C216.8,145.9,216.6,146,216.4,146z M194.1,143.5c-0.2,0-0.3-0.1-0.4-0.3c-0.2-0.5-0.4-1-0.5-1.6c-0.1-0.2,0.1-0.5,0.3-0.5
					c0.2-0.1,0.5,0.1,0.5,0.3c0.2,0.5,0.3,1,0.5,1.6c0.1,0.2,0,0.5-0.3,0.5H194.1z M216.8,142.7c-0.2,0-0.4-0.2-0.4-0.4
					c0-0.5-0.1-1.1-0.1-1.6c0-0.2,0.1-0.4,0.4-0.5c0.2,0,0.4,0.1,0.5,0.4c0.1,0.6,0.1,1.1,0.1,1.7
					C217.2,142.5,217,142.7,216.8,142.7L216.8,142.7z M193.1,140.3c-0.2,0-0.4-0.1-0.4-0.3c-0.2-0.5-0.3-1.1-0.5-1.6
					c-0.1-0.2,0.1-0.5,0.3-0.5c0.2-0.1,0.5,0.1,0.5,0.3c0.1,0.5,0.3,1.1,0.4,1.6C193.5,140,193.3,140.3,193.1,140.3
					C193.2,140.3,193.1,140.3,193.1,140.3z M216.4,139.5c-0.2,0-0.4-0.1-0.4-0.3c-0.1-0.5-0.2-1.1-0.4-1.6c-0.1-0.2,0.1-0.5,0.3-0.5
					c0.2-0.1,0.5,0.1,0.5,0.3c0.2,0.5,0.3,1.1,0.4,1.6C216.8,139.2,216.7,139.4,216.4,139.5L216.4,139.5z M192.2,137.1
					c-0.2,0-0.4-0.1-0.4-0.3c-0.1-0.5-0.3-1.1-0.4-1.6c-0.1-0.2,0.1-0.5,0.3-0.5c0.2-0.1,0.5,0.1,0.5,0.3c0.1,0.5,0.3,1.1,0.4,1.6
					c0.1,0.2-0.1,0.5-0.3,0.5C192.3,137.1,192.2,137.1,192.2,137.1z M215.5,136.3c-0.2,0-0.3-0.1-0.4-0.3c-0.2-0.5-0.4-1-0.6-1.5
					c-0.1-0.2,0-0.5,0.2-0.5c0.2-0.1,0.5,0,0.5,0.2c0.2,0.5,0.4,1,0.6,1.6C215.9,136,215.8,136.3,215.5,136.3
					C215.6,136.3,215.5,136.3,215.5,136.3z M191.4,133.9c-0.2,0-0.4-0.1-0.4-0.3c-0.1-0.6-0.2-1.1-0.3-1.6c0-0.2,0.1-0.5,0.3-0.5
					s0.5,0.1,0.5,0.3c0.1,0.5,0.2,1.1,0.3,1.6C191.9,133.6,191.8,133.8,191.4,133.9C191.5,133.9,191.5,133.9,191.4,133.9z
					 M214.3,133.2c-0.2,0-0.3-0.1-0.4-0.3c-0.2-0.5-0.4-1-0.7-1.5c-0.1-0.2,0-0.5,0.2-0.6s0.5,0,0.6,0.2c0.2,0.5,0.5,1,0.7,1.5
					c0.1,0.2,0,0.5-0.2,0.6C214.4,133.2,214.4,133.2,214.3,133.2z M190.8,130.7c-0.2,0-0.4-0.1-0.4-0.3c-0.1-0.6-0.2-1.1-0.3-1.6
					c0-0.2,0.1-0.4,0.3-0.5c0.2,0,0.4,0.1,0.5,0.3c0.1,0.5,0.2,1,0.3,1.6C191.2,130.4,191.1,130.6,190.8,130.7L190.8,130.7z
					 M212.9,130.2c-0.2,0-0.3-0.1-0.4-0.2c-0.3-0.5-0.5-1-0.8-1.5c-0.1-0.2,0-0.5,0.2-0.6c0.2-0.1,0.5,0,0.6,0.2
					c0.3,0.5,0.5,1,0.8,1.5c0.1,0.2,0,0.5-0.2,0.6C213,130.2,213,130.2,212.9,130.2z M211.3,127.3c-0.1,0-0.3-0.1-0.4-0.2
					c-0.3-0.5-0.6-1-0.8-1.4c-0.1-0.2-0.1-0.5,0.1-0.6c0.2-0.1,0.5-0.1,0.6,0.1c0.3,0.5,0.6,0.9,0.8,1.4c0.1,0.2,0,0.5-0.2,0.6
					C211.5,127.3,211.4,127.3,211.3,127.3z M209.6,124.5c-0.1,0-0.3-0.1-0.4-0.2c-0.3-0.5-0.6-1-0.9-1.4c-0.1-0.2-0.1-0.5,0.1-0.6
					c0.2-0.1,0.5-0.1,0.6,0.1c0.3,0.4,0.6,0.9,0.9,1.4c0.1,0.2,0.1,0.5-0.1,0.6C209.8,124.4,209.7,124.5,209.6,124.5z"/>
				<path class="st2" d="M207.8,121.7c-0.1,0-0.3-0.1-0.3-0.2c-0.3-0.4-0.5-0.7-0.5-0.7c-0.1-0.2-0.1-0.5,0.1-0.6
					c0.2-0.1,0.5-0.1,0.6,0.1c0,0,0.2,0.2,0.5,0.7c0.1,0.2,0.1,0.5-0.1,0.6C208,121.7,207.9,121.7,207.8,121.7z"/>
			</g>
			<g>
				<path class="st3" d="M158.7,81.5c0,0,20.6-16.9,39.4-16.9s35.3,18.7,38.9,28.7c2.9,8-7.1,9.9-11.8,5.5
					c-8.9-8.4-25.8-29.1-40.6-26.8C165.9,74.9,158.7,81.5,158.7,81.5z"/>
				<path class="st2" d="M231.4,102.3c-2.5,0-5.2-0.9-7-2.7c-1.4-1.4-3.1-3.1-4.9-4.9c-9.1-9.3-22.9-23.4-34.7-21.5
					c-14.7,2.3-22.2,6.9-24.5,8.6c-0.5,0.4-0.8,0.6-0.8,0.7c-0.5,0.4-1.3,0.4-1.8-0.1c-0.4-0.5-0.4-1.3,0.1-1.8
					c0.1-0.1,0.4-0.4,1-0.8c4.4-3.4,22.3-16.4,39.3-16.4c0,0,0,0,0.1,0c19.4,0,36.4,19.2,40,29.5c1.3,3.5,0.5,6.5-2.2,8.2
					C234.7,101.9,233.1,102.3,231.4,102.3z M187,70.5c12.4,0,25.5,13.4,34.4,22.5c1.7,1.8,3.4,3.5,4.8,4.8c2.5,2.3,6.5,2.5,8.5,1.2
					c1.6-1.1,2-2.9,1.2-5.3c-3.5-9.7-19.5-27.8-37.7-27.8c0,0,0,0-0.1,0c-8.2,0-16.8,3.4-23.8,7c2.9-0.8,6.3-1.6,10.1-2.2
					C185.3,70.6,186.1,70.5,187,70.5z"/>
			</g>
			<path class="st2" d="M201,176.4c-0.5,0-1.1,0-1.6-0.1c-0.2,0-0.4-0.2-0.4-0.5c0-0.3,0.2-0.4,0.5-0.4c0.5,0,1,0.1,1.5,0.1h0.1l0,0
				c0.2,0,0.4,0.2,0.4,0.4c0,0.2-0.2,0.4-0.4,0.4L201,176.4z M202.8,176.3c-0.2,0-0.4-0.2-0.4-0.4c0-0.2,0.1-0.4,0.4-0.5
				c0.5-0.1,1.1-0.1,1.6-0.2c0.2,0,0.4,0.1,0.5,0.3c0,0.2-0.1,0.4-0.3,0.5C204,176.1,203.4,176.2,202.8,176.3L202.8,176.3z
				 M197.7,176.1L197.7,176.1c-0.6-0.1-1.2-0.2-1.8-0.3c-0.2-0.1-0.4-0.3-0.3-0.5c0.1-0.2,0.3-0.4,0.5-0.3c0.5,0.1,1.1,0.2,1.6,0.3
				c0.2,0,0.4,0.3,0.4,0.5C198.1,175.9,197.9,176.1,197.7,176.1z M206.1,175.7c-0.2,0-0.4-0.1-0.4-0.3c-0.1-0.2,0.1-0.5,0.3-0.5
				c0.5-0.1,1.1-0.3,1.6-0.5c0.2-0.1,0.5,0,0.5,0.2c0.1,0.2,0,0.5-0.2,0.5c-0.5,0.2-1.1,0.4-1.6,0.5
				C206.2,175.7,206.1,175.7,206.1,175.7z M194.5,175.3h-0.1c-0.5-0.2-1.1-0.4-1.6-0.6c-0.2-0.1-0.3-0.3-0.2-0.5
				c0.1-0.2,0.3-0.3,0.5-0.2c0.5,0.2,1,0.4,1.6,0.6c0.2,0.1,0.3,0.3,0.3,0.5C194.8,175.2,194.6,175.3,194.5,175.3z M209.3,174.5
				c-0.2,0-0.3-0.1-0.4-0.2c-0.1-0.2,0-0.5,0.2-0.6c0.5-0.2,1-0.5,1.5-0.8c0.2-0.1,0.5,0,0.6,0.2c0.1,0.2,0,0.5-0.2,0.6
				c-0.5,0.3-1,0.5-1.5,0.8C209.4,174.5,209.3,174.5,209.3,174.5z M191.3,174.1c-0.1,0-0.1,0-0.2,0c-0.5-0.2-1-0.5-1.5-0.8
				c-0.2-0.1-0.3-0.4-0.2-0.6c0.1-0.2,0.4-0.3,0.6-0.2c0.5,0.3,1,0.5,1.5,0.7c0.2,0.1,0.3,0.3,0.2,0.6
				C191.6,174,191.5,174.1,191.3,174.1z M188.3,172.5c-0.1,0-0.1,0-0.2-0.1c-0.5-0.3-1-0.6-1.5-0.9c-0.2-0.1-0.3-0.4-0.1-0.6
				c0.1-0.2,0.4-0.3,0.6-0.1c0.5,0.3,0.9,0.6,1.4,0.9c0.2,0.1,0.3,0.4,0.1,0.6C188.6,172.5,188.5,172.5,188.3,172.5z M185.5,170.7
				c-0.1,0-0.2,0-0.2-0.1c-0.5-0.3-0.9-0.7-1.4-1.1c-0.2-0.2-0.2-0.4,0-0.6s0.4-0.2,0.6,0c0.4,0.4,0.9,0.7,1.3,1
				c0.2,0.1,0.2,0.4,0.1,0.6C185.8,170.6,185.6,170.7,185.5,170.7z M182.9,168.5c-0.1,0-0.2,0-0.3-0.1c-0.4-0.4-0.8-0.8-1.2-1.2
				c-0.2-0.2-0.1-0.4,0-0.6c0.2-0.2,0.4-0.1,0.6,0c0.4,0.4,0.8,0.8,1.2,1.2c0.2,0.2,0.2,0.4,0,0.6
				C183.1,168.5,183,168.5,182.9,168.5z M180.7,166c-0.1,0-0.2-0.1-0.3-0.2c-0.4-0.4-0.7-0.9-1-1.4c-0.1-0.2-0.1-0.5,0.1-0.6
				c0.2-0.1,0.5-0.1,0.6,0.1c0.3,0.5,0.7,0.9,1,1.3c0.1,0.2,0.1,0.4-0.1,0.6C180.8,166,180.8,166,180.7,166z M178.7,163.3
				c-0.1,0-0.3-0.1-0.4-0.2c-0.3-0.5-0.6-0.9-0.9-1.4c-0.1-0.2-0.1-0.5,0.1-0.6c0.2-0.1,0.5-0.1,0.6,0.1c0.3,0.5,0.6,0.9,0.9,1.4
				c0.1,0.2,0.1,0.5-0.1,0.6C178.8,163.3,178.7,163.3,178.7,163.3z M176.9,160.4c-0.1,0-0.3-0.1-0.4-0.2c-0.3-0.5-0.6-1-0.8-1.5
				c-0.1-0.2,0-0.5,0.2-0.6s0.5,0,0.6,0.2c0.3,0.5,0.5,1,0.8,1.5c0.1,0.2,0,0.5-0.2,0.6C177,160.4,176.9,160.4,176.9,160.4z
				 M175.3,157.5c-0.2,0-0.3-0.1-0.4-0.2c-0.2-0.5-0.5-1-0.7-1.5c-0.1-0.2,0-0.5,0.2-0.6s0.5,0,0.6,0.2c0.2,0.5,0.5,1,0.7,1.5
				c0.1,0.2,0,0.5-0.2,0.6C175.4,157.4,175.4,157.5,175.3,157.5z M173.9,154.4c-0.2,0-0.3-0.1-0.4-0.3c-0.2-0.5-0.4-1-0.7-1.6
				c-0.1-0.2,0-0.5,0.2-0.6s0.5,0,0.6,0.2c0.2,0.5,0.4,1,0.7,1.5c0.1,0.2,0,0.5-0.2,0.6C174,154.4,173.9,154.4,173.9,154.4z
				 M172.6,151.3c-0.2,0-0.3-0.1-0.4-0.3c-0.2-0.5-0.4-1.1-0.6-1.6c-0.1-0.2,0-0.5,0.2-0.5c0.2-0.1,0.5,0,0.5,0.2
				c0.2,0.5,0.4,1.1,0.6,1.6c0.1,0.2,0,0.5-0.2,0.5C172.7,151.3,172.6,151.3,172.6,151.3z M171.4,148.1c-0.2,0-0.3-0.1-0.4-0.3
				c-0.2-0.5-0.4-1.1-0.6-1.6c-0.1-0.2,0-0.5,0.3-0.5c0.2-0.1,0.5,0,0.5,0.3c0.2,0.5,0.4,1.1,0.5,1.6
				C171.8,147.8,171.7,148.1,171.4,148.1C171.5,148.1,171.5,148.1,171.4,148.1z M170.3,144.9c-0.2,0-0.3-0.1-0.4-0.3
				c-0.2-0.5-0.3-1.1-0.5-1.6c-0.1-0.2,0.1-0.5,0.3-0.5c0.2-0.1,0.5,0.1,0.5,0.3c0.2,0.5,0.3,1.1,0.5,1.6c0.1,0.2-0.1,0.5-0.3,0.5
				C170.4,144.9,170.4,144.9,170.3,144.9z M169.3,141.7c-0.2,0-0.4-0.1-0.4-0.3c-0.2-0.5-0.3-1.1-0.5-1.6c-0.1-0.2,0.1-0.5,0.3-0.5
				c0.2-0.1,0.5,0.1,0.5,0.3c0.2,0.5,0.3,1.1,0.5,1.6c0.1,0.2-0.1,0.5-0.3,0.5C169.4,141.7,169.4,141.7,169.3,141.7z M168.4,138.4
				c-0.2,0-0.4-0.1-0.4-0.3c-0.1-0.5-0.3-1.1-0.4-1.6c-0.1-0.2,0.1-0.5,0.3-0.5c0.2-0.1,0.5,0.1,0.5,0.3c0.1,0.5,0.3,1.1,0.4,1.6
				c0.1,0.2-0.1,0.5-0.3,0.5C168.5,138.4,168.5,138.4,168.4,138.4z M167.6,135.2c-0.2,0-0.4-0.1-0.4-0.3c-0.1-0.5-0.3-1.1-0.4-1.6
				c-0.1-0.2,0.1-0.5,0.3-0.5c0.2-0.1,0.5,0.1,0.5,0.3c0.1,0.5,0.3,1.1,0.4,1.6c0.1,0.2-0.1,0.5-0.3,0.5
				C167.7,135.1,167.6,135.2,167.6,135.2z M166.8,131.9c-0.2,0-0.4-0.1-0.4-0.3c-0.1-0.5-0.3-1.1-0.4-1.6c-0.1-0.2,0.1-0.5,0.3-0.5
				c0.2-0.1,0.5,0.1,0.5,0.3c0.1,0.5,0.2,1.1,0.4,1.6C167.3,131.6,167.1,131.8,166.8,131.9C166.9,131.9,166.8,131.9,166.8,131.9z
				 M166.1,128.6c-0.2,0-0.4-0.1-0.4-0.3c-0.1-0.6-0.2-1.1-0.4-1.7c0-0.2,0.1-0.5,0.3-0.5s0.5,0.1,0.5,0.3c0.1,0.5,0.2,1.1,0.4,1.6
				C166.5,128.3,166.4,128.5,166.1,128.6L166.1,128.6z M165.4,125.3c-0.2,0-0.4-0.1-0.4-0.3c-0.1-0.6-0.2-1.1-0.3-1.7
				c0-0.2,0.1-0.5,0.3-0.5s0.5,0.1,0.5,0.3c0.1,0.5,0.2,1.1,0.3,1.7C165.8,125,165.7,125.2,165.4,125.3L165.4,125.3z M164.7,122
				c-0.2,0-0.4-0.1-0.4-0.3L164,120c0-0.2,0.1-0.4,0.3-0.5c0.2,0,0.4,0.1,0.5,0.3l0.3,1.7C165.2,121.7,165,121.9,164.7,122
				C164.8,122,164.7,122,164.7,122z M164.1,118.6c-0.2,0-0.4-0.1-0.4-0.3l-0.3-1.7c0-0.2,0.1-0.4,0.3-0.5c0.2,0,0.4,0.1,0.5,0.3
				l0.3,1.7C164.5,118.4,164.4,118.6,164.1,118.6L164.1,118.6z M163.5,115.3c-0.2,0-0.4-0.1-0.4-0.3l-0.3-1.7c0-0.2,0.1-0.4,0.3-0.5
				c0.2,0,0.4,0.1,0.5,0.3l0.3,1.7C163.9,115,163.8,115.3,163.5,115.3L163.5,115.3z M162.9,112c-0.2,0-0.4-0.1-0.4-0.4l-0.3-1.7
				c0-0.2,0.1-0.4,0.3-0.5c0.2,0,0.4,0.1,0.5,0.3l0.3,1.7C163.4,111.7,163.2,111.9,162.9,112C163,112,162.9,112,162.9,112z
				 M162.4,108.7c-0.2,0-0.4-0.1-0.4-0.4l-0.3-1.7c0-0.2,0.1-0.4,0.3-0.5c0.2,0,0.4,0.1,0.5,0.3l0.3,1.7
				C162.8,108.4,162.7,108.6,162.4,108.7L162.4,108.7z M161.8,105.3c-0.2,0-0.4-0.1-0.4-0.4l-0.3-1.7c0-0.2,0.1-0.4,0.3-0.5
				c0.2,0,0.4,0.1,0.5,0.3l0.3,1.7C162.2,105.1,162.1,105.3,161.8,105.3L161.8,105.3z M161.2,102c-0.2,0-0.4-0.1-0.4-0.3
				c-0.1-0.6-0.2-1.1-0.3-1.7c0-0.2,0.1-0.4,0.3-0.5c0.2,0,0.4,0.1,0.5,0.3c0.1,0.5,0.2,1.1,0.3,1.7
				C161.7,101.7,161.5,101.9,161.2,102C161.3,102,161.2,102,161.2,102z M160.6,98.7c-0.2,0-0.4-0.1-0.4-0.4
				c-0.1-0.6-0.2-1.1-0.3-1.7c0-0.2,0.1-0.4,0.4-0.5c0.2,0,0.4,0.1,0.5,0.4c0.1,0.5,0.2,1.1,0.3,1.7
				C161.1,98.4,160.9,98.6,160.6,98.7C160.7,98.7,160.6,98.7,160.6,98.7z M160.1,95.3c-0.2,0-0.4-0.2-0.4-0.4
				c-0.1-0.6-0.1-1.2-0.2-1.7c0-0.2,0.1-0.4,0.4-0.5c0.2,0,0.4,0.1,0.5,0.4c0,0.5,0.1,1.1,0.2,1.7C160.6,95.1,160.4,95.3,160.1,95.3
				C160.2,95.3,160.1,95.3,160.1,95.3z M159.8,92c-0.2,0-0.4-0.2-0.4-0.4c0-0.6-0.1-1.2-0.1-1.7c0-0.2,0.2-0.4,0.4-0.4l0,0
				c0.2,0,0.4,0.2,0.4,0.4c0,0.5,0,1.1,0.1,1.7C160.3,91.8,160.1,92,159.8,92L159.8,92z M159.8,88.6L159.8,88.6
				c-0.3,0-0.4-0.2-0.4-0.4c0-0.6,0.1-1.2,0.2-1.7c0-0.2,0.2-0.4,0.5-0.4c0.2,0,0.4,0.2,0.4,0.5c-0.1,0.5-0.1,1.1-0.1,1.6
				C160.2,88.4,160,88.6,159.8,88.6z M160.3,85.3h-0.1c-0.2-0.1-0.4-0.3-0.3-0.5c0.2-0.6,0.4-1.2,0.6-1.7c0.1-0.2,0.3-0.3,0.6-0.2
				c0.2,0.1,0.3,0.4,0.2,0.6c-0.2,0.4-0.4,0.9-0.5,1.5C160.6,85.1,160.4,85.3,160.3,85.3z M161.7,82.3c-0.1,0-0.2,0-0.3-0.1
				c-0.2-0.2-0.2-0.4,0-0.6c0.9-0.9,1.7-0.9,1.8-0.9c0.2,0,0.4,0.2,0.4,0.4s-0.2,0.4-0.4,0.4c0,0-0.6,0-1.2,0.6
				C162,82.2,161.9,82.3,161.7,82.3z"/>
			<path class="st2" d="M160.1,96c-0.6,0-1.1-0.4-1.2-1c0-0.1-0.5-2.9,1.7-6.2c2.9-4.3,9-7.3,18.1-9c21.2-3.9,32.4,9.3,32.8,9.9
				c0.4,0.5,0.4,1.3-0.2,1.8c-0.5,0.4-1.3,0.4-1.8-0.2c-0.4-0.5-10.8-12.6-30.4-9c-10.5,1.9-14.7,5.4-16.5,7.9
				c-1.6,2.3-1.3,4.2-1.3,4.2c0.1,0.7-0.3,1.4-1,1.5C160.3,96,160.2,96,160.1,96z"/>
			<g>
				<g>
					
						<ellipse transform="matrix(0.8356 -0.5493 0.5493 0.8356 -10.0985 139.4428)" class="st5" cx="228" cy="86.6" rx="3.8" ry="6.5"/>
					<path class="st2" d="M230.2,93.3c-0.7,0-1.5-0.2-2.3-0.6c-1.4-0.7-2.7-1.9-3.8-3.5c-1-1.6-1.6-3.3-1.7-4.9
						c-0.1-1.7,0.5-3.1,1.6-3.8s2.6-0.7,4.1,0.1c1.4,0.7,2.7,1.9,3.8,3.5l0,0c1,1.6,1.6,3.3,1.7,4.9c0.1,1.7-0.5,3.1-1.6,3.8
						C231.5,93.1,230.8,93.3,230.2,93.3z M225.8,81.7c-0.3,0-0.6,0.1-0.9,0.3c-0.8,0.5-0.9,1.7-0.8,2.3c0.1,1.3,0.6,2.7,1.4,4
						c0.9,1.3,2,2.4,3.1,2.9c0.6,0.3,1.7,0.7,2.4,0.2c0.8-0.5,0.9-1.7,0.8-2.3c-0.1-1.3-0.6-2.7-1.4-4l0,0c-0.9-1.3-2-2.4-3.1-2.9
						C227,81.9,226.4,81.7,225.8,81.7z"/>
				</g>
				<g>
					<line class="st6" x1="227.4" y1="83.3" x2="228.6" y2="90.2"/>
					<path class="st2" d="M228.6,90.6c-0.2,0-0.4-0.1-0.4-0.3l-1.2-6.9c0-0.2,0.1-0.4,0.3-0.5c0.2,0,0.4,0.1,0.5,0.3l1.2,6.9
						C229.1,90.4,228.9,90.6,228.6,90.6C228.7,90.6,228.6,90.6,228.6,90.6z"/>
				</g>
				<g>
					<line class="st6" x1="225.1" y1="85" x2="230.8" y2="88.4"/>
					<path class="st2" d="M230.8,88.9c-0.1,0-0.1,0-0.2-0.1l-5.8-3.5c-0.2-0.1-0.3-0.4-0.1-0.6c0.1-0.2,0.4-0.3,0.6-0.1l5.8,3.5
						c0.2,0.1,0.3,0.4,0.1,0.6C231.1,88.8,231,88.9,230.8,88.9z"/>
				</g>
			</g>
		</g>
		<path class="st4" d="M172.4,44.6c0.7-2.1-2.2-3.5-3.4-1.6c-0.1,0.1-0.1,0.2-0.2,0.3c-2.6,3.9-9.5,3.4-14.1,2.5
			c-2.6-0.5-5.2,0.9-6.2,3.3l-7.7,18.6c-0.2,0.5-0.7,0.9-1.2,1.1c-2.3,0.7-9,2.3-15.8,1.8c-4.7-0.4-12.4-4.9-12.4-4.9l-2.6,5
			c0,0,4.7,4.3,13.7,5.5c6.3,0.8,15.7-0.3,22.3-4.3c0.4-0.2,0.7-0.6,0.8-1.1l6-21c0.3-1,1.3-1.6,2.3-1.3c4.4,1.1,15.6,3.3,18.2-2.9
			C172.2,45.3,172.3,45,172.4,44.6z"/>
		<g>
			<path class="st7" d="M499,347.3c0,0-20.1-8.7-21.4-5.7c-1.3,3,20.9,9.5,20.9,9.5s-26.3-0.2-24.9,4c1.4,4.2,25,1.1,25,1.1
				s-23.2,6.9-21.1,9.6c2.2,2.7,22.3-5,22.3-5L499,347.3z"/>
			<path class="st8" d="M500.4,343.8c-3,2.3-4.1,10.4-0.7,17.7s62.4-10.4,55.4-16.8C548.2,338.3,503.4,341.5,500.4,343.8z"/>
		</g>
		<g>
			<path class="st9" d="M405.9,443.5c0,0-7.8-8.8-13.5-1.9s-2.7,14.1,2.2,17.5c4.9,3.4,16.7,7.1,22.4-2.3
				C422.7,447.4,405.9,443.5,405.9,443.5z"/>
			<path class="st10" d="M405.6,443c0.1-0.6-1.5-5.8-6.6-8s-7.9-1.3-7.6-1s10.8,3,11.7,9.3c0,0-5.3-1.7-8.8,0.2
				c-2.3,1.3,10.7,1.8,10.7,1.8s7.4,3.2,6.2,8.5s5.4-5-1.7-9.5c0,0,3.9-0.4,6.2,2.3c2.3,2.6,4.7,5,5.2,4.5s0.3-5.9-6.1-8.7
				C409.5,440,405.6,443,405.6,443z"/>
		</g>
		<circle class="st2" cx="97.1" cy="95" r="6.6"/>
	</g>
</g>
</svg>
