<?xml version="1.0" encoding="utf-8"?>
<!-- Generator: Adobe Illustrator 21.1.0, SVG Export Plug-In . SVG Version: 6.00 Build 0)  -->
<svg version="1.1" id="圖層_1" xmlns="http://www.w3.org/2000/svg" xmlns:xlink="http://www.w3.org/1999/xlink" x="0px" y="0px"
	 viewBox="0 0 73.6 98.5" style="enable-background:new 0 0 73.6 98.5;" xml:space="preserve">
<style type="text/css">
	.st0{display:none;}
	.st1{display:inline;}
	.st2{fill:#FCE444;}
	.st3{fill:#76391B;}
	.st4{fill:#FFFFFF;}
</style>
<g class="st0">
	<g class="st1">
		<g>
			<path class="st2" d="M36.7,95.6c0,0-37.7,1.4-33.5-44.7c2.7-30,16.1-41.7,25.1-46.2c5.3-2.6,11.5-2.6,16.8,0
				c9,4.5,22.4,16.1,25.1,46.2C74.4,97,36.7,95.6,36.7,95.6z"/>
			<path class="st3" d="M37.1,98.5c-0.4,0-0.4,0-0.8,0c-2.8,0-16.3-0.6-26.2-10.9c-8-8.4-11.2-20.8-9.8-36.9
				C3.3,18.6,18.3,6.6,27,2.2c6-3,13.2-3,19.3,0C55,6.6,70.1,18.6,73,50.7c1.5,16.1-1.8,28.5-9.8,36.9
				C53.4,97.9,39.9,98.5,37.1,98.5z M36.7,5.7c-2.4,0-4.9,0.6-7.1,1.7C21.9,11.1,8.7,21.9,6,51.2c-1.3,14.4,1.5,25.3,8.2,32.5
				c9,9.5,22.2,9.2,22.3,9.1l0.1,0l0.1,0c0.1,0,13.4,0.3,22.4-9.2c6.7-7.2,9.5-18.1,8.2-32.4C64.7,21.9,51.5,11.1,43.8,7.3
				C41.6,6.2,39.1,5.7,36.7,5.7z"/>
		</g>
		<g>
			<path class="st2" d="M3,53.9l12.6-4.2L24,56l12.7-6.3L47.3,56c0,0,4.2-8.5,8.5-6.3C60,51.8,70.5,56,70.5,56"/>
			<path class="st3" d="M48.4,60.1l-11.9-7.1l-12.9,6.4L15,52.9L3.9,56.6l-1.8-5.4l14-4.6l8.2,6.2l12.5-6.3l9.5,5.7
				c0.4-0.6,0.9-1.3,1.5-1.9c4-4.7,7.5-3.9,9.2-3.1c4.1,2,14.5,6.2,14.6,6.2l-2.1,5.3c-0.4-0.2-10.7-4.3-15-6.4
				c-0.3-0.2-1.3,0.4-2.4,1.7c-1.3,1.5-2.3,3.4-2.3,3.4L48.4,60.1z"/>
		</g>
	</g>
</g>
<g>
	<g>
		<g>
			<path class="st4" d="M37.1,95.5c0,0-37.5,1.4-33.4-44.5c2.7-29.9,16.1-41.5,25-45.9c5.2-2.6,11.4-2.6,16.7,0
				c9,4.5,22.3,16,25,45.9C74.6,96.9,37.1,95.5,37.1,95.5z"/>
			<path class="st3" d="M37.5,98.3c-0.4,0-0.4,0-0.8,0c-2.8,0-16.3-0.6-26-10.9C2.7,79.1-0.5,66.8,0.9,50.8
				C3.8,18.9,18.8,6.9,27.5,2.6c6-3,13.2-3,19.2,0c8.7,4.3,23.7,16.3,26.6,48.2c1.5,16-1.8,28.3-9.7,36.7
				C53.8,97.8,40.3,98.3,37.5,98.3z M37.1,6c-2.4,0-4.9,0.6-7.1,1.7C22.4,11.4,9.2,22.1,6.6,51.3C5.3,65.6,8,76.4,14.8,83.6
				c9,9.5,22.1,9.1,22.2,9.1l0.1,0l0.1,0c0.1,0,13.4,0.3,22.3-9.2c6.7-7.1,9.5-18,8.2-32.2C65,22.1,51.8,11.4,44.2,7.6
				C42,6.5,39.5,6,37.1,6z"/>
		</g>
		<g>
			<path class="st4" d="M3.5,53.9L16,49.8l8.4,6.3l12.6-6.3l10.5,6.3c0,0,4.2-8.4,8.4-6.3s14.7,6.3,14.7,6.3"/>
			<path class="st3" d="M48.8,60.1L37,53l-12.8,6.4l-8.6-6.5L4.4,56.6l-1.8-5.4l13.9-4.6l8.2,6.2l12.5-6.2l9.4,5.6
				c2.7-4,6.6-7,10.7-5c4.1,2,14.4,6.2,14.5,6.2l-2.1,5.2c-0.4-0.2-10.7-4.3-14.9-6.4c-0.8-0.4-3.3,2.4-4.6,5.1L48.8,60.1z"/>
		</g>
	</g>
</g>
</svg>
