<svg xmlns="http://www.w3.org/2000/svg" viewBox="0 0 239.72 443.05"><defs><style>.cls-1{fill:#c34b2d;stroke:#231815;}.cls-1,.cls-2,.cls-5{stroke-miterlimit:10;stroke-width:8.5px;}.cls-2{fill:none;}.cls-2,.cls-5{stroke:#040000;}.cls-3{fill:#040000;}.cls-4{fill:#fff;}.cls-5{fill:#c30d23;}.cls-6{fill:#a1a1a1;}.cls-7{fill:#f5f5f5;}.cls-8{fill:#cd4b2d;}</style></defs><title>資產 1</title><g id="圖層_2" data-name="圖層 2"><g id="圖層_1-2" data-name="圖層 1"><path class="cls-1" d="M33.86,252.63s37.06,49.74,117.05,36.64c0,0,39.21-8.88,49.12-36.64,0,0,15.13,25.51-3.57,44.26,1.71,3.53,29.47,62.23,28.32,82.89,0,0,15.1,9.85,9.4,25.1-4,10.77-41.27,33.43-111.46,33.91S13.73,418,7.06,407.08s-.24-28.25,6.42-29.68c0,0,14.66-68.84,27.12-83.76C40.6,293.64,22.52,267.93,33.86,252.63Z"/><path class="cls-2" d="M43,295.83c37.7,27.55,118.48,25.49,153.51,1.06"/><path class="cls-2" d="M13.48,377.4c5.82,20.46,21.16,30.87,39.24,36.28,67.51,20.23,166,8.93,172.06-33.9"/><path class="cls-3" d="M119.69,438.63c-9.3,0-18.6-.14-27.89.07-3.36.07-4.58-1.13-4.57-4.36.06-17.51-.12-35,.1-52.51.1-7.86,7.36-15,15.24-15.16,11.3-.23,22.61-.21,33.91,0,8.65.16,16.09,8,16.24,17.49.26,16,.08,32.08.05,48.13,0,4.49-1.55,6.81-6.84,6.5C137.21,438.25,128.44,438.63,119.69,438.63Z"/><path class="cls-4" d="M94.91,406.76c0-6.93,0-13.87,0-20.8,0-6.21,2.9-9.9,9-10.12,10.39-.37,20.81-.35,31.2,0,6.35.2,9.89,4.1,10,10.75.21,14.23,0,28.47.14,42.7,0,2.92-1.22,3.17-3.58,3.16-14.41-.08-28.83-.14-43.25,0-3.07,0-3.58-1.13-3.52-3.8C95,421.36,94.91,414.06,94.91,406.76Z"/><path class="cls-5" d="M148.71,402.86c0,8.15-11.61,16.89-28.67,16.89-15.64,0-28.29-6.6-28.29-14.75v31.77H148.7Z"/><path class="cls-3" d="M102.12,23.93A23.15,23.15,0,0,1,119,.87a22.91,22.91,0,0,1,29.2,22.61c0,1.08-.1,2.15-.17,3.61,4.5-3.05,9.19-4.81,14.49-4.49,6.69.41,11.88,3.14,16.74,8.07,7.66,7.8,7.35,23.2-.49,30.74-1.1,1.05-.81,1.65.15,2.58,19.88,19.39,32.92,43.08,42.17,68.87,6.62,18.46,8.25,37.65,5.84,57.23-1.33,10.81-2.88,21.54-6.65,31.76C215.49,235,209,247.18,198.57,257c-10.22,9.61-21.49,17.48-34.64,22.34a128.65,128.65,0,0,1-33.71,7.56c-25.53,2.19-49.59-3.07-71.33-16.32A88.32,88.32,0,0,1,22.3,227.82a121.93,121.93,0,0,1-7.85-28.38c-1.92-13.06-2.78-26.24-1.16-39.51C16.05,137.36,24.43,117,35.81,97.49,43.09,85,51.22,73.31,62.08,63.77c4-3.49,6.32-5.8,3.83-12-3.84-9.63.79-19.76,9.64-25.69,7.5-5,18.4-4.61,25.85,1C103.44,26.42,102.22,25,102.12,23.93Z"/><path class="cls-6" d="M102.12,23.93c.25.94.51,1.86.73,2.8.11.49.68,1.21-.26,1.37-.58.1-1.06-.41-1.19-1.07C102.75,26.26,101.38,24.85,102.12,23.93Z"/><path class="cls-7" d="M223.71,181.1c-.23,8.85-1.82,24.49-7.27,39.37-5.84,15.95-14.77,29.85-28.65,40.37-7.54,5.72-15.43,10.65-24.19,14-26.14,9.89-52.62,11.5-79.43,2.54-9.32-3.11-18.42-6.73-26.4-12.49-14.35-10.36-25.51-23.21-32.08-40.07-4.47-11.46-6.52-23.19-8.1-35.26-2-15.24-.62-30.13,2.61-45,1.94-8.91,5.34-17.34,9.19-25.57,6.28-13.42,13.19-26.46,22.41-38.17A112.54,112.54,0,0,1,69.14,63.05c1.27-1,2.21-1.31,3.67.09,5,4.85,11.5,5.14,18,5.37,11,.38,21.71-1.45,32.52-2.88,4.25-.56,8.76.81,13.14,1.36,10,1.26,19.92,2.73,30,1.13a17.45,17.45,0,0,0,6.17-2c1.31-.77,2-.49,3,.48a148.5,148.5,0,0,1,28.42,38.66c4.54,8.77,9.07,17.53,12.47,26.8C221.51,145.64,223.92,159.7,223.71,181.1Z"/><path class="cls-8" d="M93,64.23c-2.87.45-6.18-.32-9.51-.63A14,14,0,0,1,73.79,58c-7-9-6.44-18.24,1.4-26A17.59,17.59,0,0,1,98.66,30.7c2,1.6,4,3.08,6.63,1.34,2.18-1.45,2.61-4.09,1.7-7.22-1.18-4,.21-7.94,2.16-11.17,4.91-8.15,14.28-11.11,23.09-8,6.38,2.26,14.15,12.8,11.09,20.42a3.8,3.8,0,0,0,1.12,4.59,4.73,4.73,0,0,0,5.58.39c3.14-1.86,6.29-3.67,10-4a17.54,17.54,0,0,1,14.45,5c5.41,5.21,7,11.37,5.43,18.61-1.31,5.89-7.36,12-13.23,12.94C158.31,65,150,64,141.62,63.37c-6.86-.48-13.53-2.82-20.52-2-4.21.46-8.26,1.72-12.53,2C103.56,63.55,98.59,64.4,93,64.23Z"/></g></g></svg>