<?xml version="1.0" encoding="utf-8"?>
<!-- Generator: Adobe Illustrator 22.1.0, SVG Export Plug-In . SVG Version: 6.00 Build 0)  -->
<svg version="1.1" id="圖層_1" xmlns="http://www.w3.org/2000/svg" xmlns:xlink="http://www.w3.org/1999/xlink" x="0px" y="0px"
	 viewBox="0 0 181 48" style="enable-background:new 0 0 181 48;" xml:space="preserve">
<style type="text/css">
	.st0{fill:#BB7232;}
	.st1{fill:#EAAE07;}
	.st2{fill:#F9F3DC;}
	.st3{fill:#5B3824;}
	.st4{enable-background:new    ;}
	.st5{display:none;fill:#FFFFFF;}
	.st6{fill:#FFFFFF;}
</style>
<g>
	<path class="st0" d="M180.6,6.9H17.3c0.4,12.8,1.6,25.6,3,38.3h160.4L160.5,26L180.6,6.9z"/>
	<g>
		<g>
			<g>
				<g>
					<ellipse class="st1" cx="17.8" cy="18.4" rx="17.8" ry="18"/>
					<polygon class="st1" points="17.8,48.1 2.1,26.8 33.4,26.8 					"/>
				</g>
				<ellipse class="st2" cx="17.8" cy="18.4" rx="13.8" ry="14"/>
			</g>
		</g>
		<path class="st1" d="M15.3,14.8l2.4-2.5c0.1-0.1,0.2-0.1,0.2,0l2.4,2.5c0.1,0.1,0,0.3-0.1,0.3h-4.8C15.3,15.1,15.2,14.9,15.3,14.8
			z"/>
		<path class="st1" d="M15.9,15.8h3.8c0.2,0,0.3,0.3,0.2,0.3L18,18.2c-0.1,0.1-0.2,0.1-0.3,0l-1.9-2.1C15.6,16,15.7,15.8,15.9,15.8z
			"/>
		<ellipse class="st3" cx="23.7" cy="10.3" rx="1" ry="1"/>
		<ellipse class="st3" cx="11.8" cy="10.3" rx="1" ry="1"/>
	</g>
	<g class="st4">
		<path class="st5" d="M48.1,17.8c0,0.3,0.2,0.5,0.4,0.5H51c1,0,1.8,0.9,1.6,2L51,31.1c-0.1,0.3,0.1,0.6,0.3,0.8l0.5,0.3
			c0.7,0.4,1.1,1.2,1.1,2.1c0,0.6-0.7,1-1.2,0.7l-1.5-0.9c-0.2-0.2-0.6-0.1-0.8,0.1l-1.6,2c-0.6,0.7-1.5,1.1-2.5,1.1
			c-0.6,0-0.9-0.7-0.5-1.2l2.7-3.2c0.2-0.2,0.1-0.5-0.1-0.7l-2-1.3c-1-0.7-1.5-1.8-1.3-3.1l1.1-6.7c0-0.3-0.2-0.5-0.4-0.5h-0.7
			c-0.7,0-1.2-0.5-1.2-1.2s0.5-1.2,1.2-1.2h1.1c0.3,0,0.6-0.2,0.6-0.5l0.4-2.2c0.1-0.7,0.7-1.2,1.4-1.2c0.6,0,1.1,0.6,1,1.2
			L48.1,17.8z M48.2,20.6c-0.3,0-0.6,0.2-0.6,0.5l-1.2,7c-0.1,0.3,0.1,0.7,0.4,0.8l1.6,1c0.2,0.1,0.5,0,0.5-0.2l1.4-8.6
			c0-0.3-0.2-0.5-0.5-0.5C49.8,20.6,48.2,20.6,48.2,20.6z M65.5,25.1c0.7,0,1.2,0.5,1.2,1.2c0,0.6-0.5,1.2-1.2,1.2h-3.4
			c-0.3,0-0.5,0.2-0.5,0.5v8.2c0,1.1-0.9,2-2,2h-1.4c-0.6,0-1.2-0.5-1.2-1.2c0-0.6,0.5-1.2,1.2-1.2h0.6c0.2,0,0.4-0.2,0.4-0.5v-7.4
			c0-0.3-0.2-0.5-0.5-0.5h-3.8c-0.6,0-1.2-0.5-1.2-1.2c0-0.6,0.5-1.2,1.2-1.2h3.8c0.3,0,0.5-0.2,0.5-0.5V23c0-1.3,0.3-2.6,0.9-3.8
			l0.8-1.6c0.1-0.2,0-0.5-0.3-0.5h-4.5c-0.6,0-1.2-0.5-1.2-1.2c0-0.6,0.5-1.2,1.2-1.2h6.8c0.9,0,1.5,1,1.1,1.8L61.7,21
			c-0.2,0.3-0.2,0.7-0.2,1v2.3c0,0.3,0.2,0.5,0.5,0.5h3.5V25.1z"/>
		<path class="st5" d="M72.3,20.1c-0.6,0-1-0.5-1-1c0-0.6,0.5-1,1-1H79c0.6,0,1,0.5,1,1s-0.5,1-1,1H72.3z M74,37.7c-1.1,0-2-0.9-2-2
			v-4.4c0-1.1,0.9-2,2-2h3.4c1.1,0,2,0.9,2,2v4.4c0,1.1-0.9,2-2,2H74z M77.9,21.7c0.6,0,1.1,0.5,1.1,1.1s-0.5,1.1-1.1,1.1h-4.5
			c-0.6,0-1.1-0.5-1.1-1.1s0.5-1.1,1.1-1.1H77.9z M73.4,27.5c-0.6,0-1-0.5-1-1.1s0.5-1.1,1-1.1h4.5c0.6,0,1.1,0.5,1.1,1.1
			s-0.5,1.1-1.1,1.1H73.4z M77.6,14.3c0.6,0,1.1,0.5,1.1,1.1c0,0.6-0.5,1.1-1.1,1.1h-3.9c-0.6,0-1.1-0.5-1.1-1.1s0.5-1.1,1.1-1.1
			C73.7,14.3,77.6,14.3,77.6,14.3z M74.6,31.3c-0.3,0-0.5,0.2-0.5,0.5v3.3c0,0.3,0.2,0.5,0.5,0.5h2.2c0.3,0,0.5-0.2,0.5-0.5v-3.3
			c0-0.3-0.2-0.5-0.5-0.5H74.6z M93.8,26.9c0.7,0,1.1,0.5,1.1,1.2c0,0.6-0.5,1.1-1.1,1.1h-4c-0.3,0-0.6,0.3-0.6,0.6v6.8
			c0,0.7-0.5,1.1-1.2,1.1s-1.1-0.5-1.1-1.1v-6.8c0-0.3-0.3-0.6-0.6-0.6h-3.9c-0.7,0-1.1-0.5-1.1-1.1c0-0.7,0.5-1.2,1.1-1.2h3.9
			c0.3,0,0.6-0.3,0.6-0.6v-8.6c0-0.3-0.3-0.6-0.6-0.6h-2.6c-0.7,0-1.2-0.5-1.2-1.1s0.5-1.1,1.2-1.1h8.7c0.7,0,1.1,0.5,1.1,1.1
			c0,0.7-0.5,1.1-1.1,1.1h-2.6c-0.3,0-0.6,0.3-0.6,0.6v8.6c0,0.3,0.3,0.6,0.6,0.6C89.8,26.9,93.8,26.9,93.8,26.9z M83.3,19.5
			c0.7,0,1.3,0.5,1.5,1.2l0.5,2.3c0.1,0.6-0.3,1.2-0.9,1.2c-0.7,0-1.3-0.5-1.5-1.2l-0.5-2.3C82.2,20.1,82.7,19.5,83.3,19.5z
			 M91.9,24.1c-0.6,0-1.1-0.6-0.9-1.2l0.6-2.3c0.2-0.7,0.8-1.2,1.5-1.2c0.6,0,1,0.6,0.9,1.2l-0.6,2.3C93.3,23.6,92.6,24.1,91.9,24.1
			z"/>
		<path class="st5" d="M101.2,25.5c-0.4,0.2-0.9-0.1-0.9-0.5c0-0.6,0.3-1.2,0.9-1.4l3.7-1.9c0.2-0.1,0.2-0.4,0.1-0.5l-1.5-1.2
			c-0.1-0.1-0.3-0.1-0.4,0c-0.5,0.5-1.1,0.7-1.8,0.7h-0.2c-0.4,0-0.7-0.5-0.3-0.9l2.1-2c0.5-0.5,1.3-0.8,2-0.8
			c0.2,0,0.3-0.2,0.3-0.3v-1.9c0-0.5,0.4-1,1-1h0.4c0.3,0,0.6,0.3,0.6,0.6c0,0.1,0.1,0.2,0.2,0.2h3.2c0.5,0,0.9,0.4,0.9,0.9
			c0,0.5-0.4,0.9-0.9,0.9h-3c-0.2,0-0.4,0.2-0.4,0.4c0,0.2,0.2,0.4,0.4,0.4h1.8c0.8,0,1.3,0.9,0.8,1.6l-1.6,2.1
			c-0.8,1-1.8,1.9-3,2.5L101.2,25.5z M109.9,22.6c1.1-0.6,2.4-0.6,3.5,0l7.6,4.2c0.5,0.3,0.3,1-0.2,1h-1.2c-0.5,0-1-0.1-1.5-0.4
			c-0.1,0-0.2,0-0.2,0.1v4.2c0,1.1-0.9,2-2,2h-1.6c-0.2,0-0.2,0.2-0.1,0.3l1.6,1.1c0.2,0.1,0.5,0.1,0.7,0l0.2-0.2
			c0.7-0.5,1.5-0.8,2.3-0.8c0.4,0,0.6,0.6,0.3,0.8l-1.2,1c-0.2,0.2-0.2,0.5,0,0.6l0.7,0.5c0.4,0.3,0.2,0.9-0.3,0.9
			c-1,0-2.1-0.3-3-0.9l-4.5-3c-0.3-0.2-0.6-0.3-1-0.3h-2c-0.3,0-0.5,0.2-0.5,0.5v0.5c0,0.3,0.2,0.5,0.5,0.5h2c0.5,0,0.9,0.4,0.9,0.9
			S110.5,37,110,37h-2.3c-1.1,0-2-0.9-2-2v-7.7c0-0.1-0.1-0.2-0.2-0.1c-0.6,0.3-1.3,0.5-2,0.5h-0.9c-0.5,0-0.7-0.7-0.2-1L109.9,22.6
			z M105.5,18.8c-0.2,0-0.2,0.2-0.1,0.3l0.9,0.7c0.2,0.2,0.6,0.1,0.7-0.1l0.4-0.5c0.1-0.2,0-0.4-0.2-0.4H105.5z M116.5,26.7
			c0.1,0,0.2-0.2,0.1-0.3l-4.4-2.4c-0.3-0.2-0.6-0.2-0.9,0l-4.3,2.4c-0.1,0.1-0.1,0.3,0.1,0.3h3.3c0.2,0,0.4-0.2,0.4-0.4V26
			c0-0.5,0.4-1,1-1s1,0.4,1,1v0.4c0,0.2,0.2,0.4,0.4,0.4L116.5,26.7L116.5,26.7z M115.8,29.3c0.2,0,0.4-0.2,0.4-0.4
			c0-0.2-0.2-0.4-0.4-0.4H108c-0.2,0-0.4,0.2-0.4,0.4c0,0.2,0.2,0.4,0.4,0.4H115.8z M115.8,32c0.2,0,0.4-0.2,0.4-0.4
			s-0.2-0.4-0.4-0.4H108c-0.2,0-0.4,0.2-0.4,0.4s0.2,0.4,0.4,0.4H115.8z M122.9,22.3c0,0.5-0.5,0.8-1,0.6l-3.5-1.8
			c-0.3-0.2-0.6-0.2-1-0.1l-2.9,1.2c-0.5,0.2-1-0.2-1-0.6c0-0.6,0.4-1.2,1-1.5l1.3-0.5c0.2-0.1,0.3-0.4,0.2-0.6l-0.8-1.1
			c-0.3-0.4,0-1,0.5-1c0.7,0,1.4,0.4,1.9,0.9l0.2,0.2c0.1,0.2,0.3,0.1,0.4,0l0.7-1.1c0.1-0.2,0-0.5-0.3-0.5h-5.1
			c-0.5,0-0.9-0.4-0.9-0.9s0.4-1,0.9-1h7c0.9,0,1.4,1,0.9,1.7l-1.7,2.7c-0.1,0.2-0.1,0.6,0.2,0.7l1.9,0.9
			C122.5,21,122.9,21.6,122.9,22.3z"/>
		<path class="st5" d="M128.1,34.6c0.1-0.6,0.6-1,1.2-1c0.6,0,1,0.5,0.9,1l-0.3,1.8c-0.1,0.6-0.6,1-1.2,1c-0.6,0-1-0.5-0.9-1
			L128.1,34.6z M139.4,30.4c0,0.6-0.4,1-0.9,1l-9,0.9c-0.5,0.1-0.9-0.3-0.9-0.8s0.3-0.9,0.9-1l2.9-0.3c0.3,0,0.6-0.4,0.6-0.7v-0.9
			c0-0.3-0.3-0.6-0.6-0.6h-2.1c-0.5,0-0.9-0.4-0.9-0.9s0.4-0.9,0.9-0.9h2.1c0.3,0,0.6-0.3,0.6-0.6v-0.8c0-0.3-0.3-0.6-0.6-0.6h-1.8
			c-1.1,0-1.9-0.8-1.9-1.9v-5.7c0-1.1,0.8-1.9,1.9-1.9h6.8c1.1,0,1.9,0.8,1.9,1.9v5.7c0,1.1-0.8,1.9-1.9,1.9h-1.8
			c-0.3,0-0.6,0.3-0.6,0.6v0.8c0,0.3,0.3,0.6,0.6,0.6h2.2c0.5,0,0.9,0.4,0.9,0.9s-0.4,0.9-0.9,0.9h-2.2c-0.3,0-0.6,0.3-0.6,0.6v0.7
			c0,0.3,0.3,0.6,0.6,0.6l3-0.3C139,29.6,139.4,29.9,139.4,30.4z M132.3,22.5c0.3,0,0.5-0.2,0.5-0.5v-5c0-0.3-0.2-0.5-0.5-0.5H131
			c-0.3,0-0.5,0.2-0.5,0.5v5c0,0.3,0.2,0.5,0.5,0.5H132.3z M132.6,20.2c0.1,0.4-0.3,0.8-0.7,0.8s-0.8-0.3-0.9-0.8l-0.2-1.6
			c0-0.4,0.3-0.8,0.7-0.8s0.8,0.3,0.9,0.8L132.6,20.2z M132.5,33.2c0.6,0,1.1,0.4,1.1,1l0.2,1.6c0,0.5-0.4,1-0.9,1
			c-0.6,0-1.1-0.4-1.1-1l-0.2-1.6C131.5,33.6,131.9,33.2,132.5,33.2z M135.7,32.9c0.6,0,1.1,0.4,1.2,1l0.1,0.7c0.1,0.5-0.3,1-0.8,1
			c-0.7,0-1.2-0.4-1.3-1l-0.1-0.7C134.7,33.3,135.2,32.9,135.7,32.9z M137.4,17c0-0.3-0.2-0.5-0.5-0.5h-1.3c-0.3,0-0.5,0.2-0.5,0.5
			v5c0,0.3,0.2,0.5,0.5,0.5h1.3c0.3,0,0.5-0.2,0.5-0.5V17z M136,21c-0.4,0-0.8-0.4-0.7-0.8l0.2-1.6c0.1-0.5,0.5-0.8,0.9-0.8
			s0.8,0.4,0.7,0.8l-0.2,1.6C136.8,20.7,136.4,21,136,21z M138.9,32.6c0.6,0,1.1,0.4,1.2,1c0.1,0.5-0.3,1-0.8,1h-0.1
			c-0.6,0-1.1-0.4-1.2-1c-0.1-0.5,0.3-1,0.8-1H138.9z M150.9,19.1c0.6,0,1,0.4,1,1s-0.4,1-1,1h-3.1c-0.3,0-0.6,0.3-0.6,0.6v3.9
			c0,0.3,0.3,0.6,0.6,0.6h1.6c1.1,0,1.9,0.8,1.9,1.9v7.1c0,1.1-0.8,1.9-1.9,1.9h-5.9c-1.1,0-1.9-0.8-1.9-1.9v-7.1
			c0-1.1,0.8-1.9,1.9-1.9h1c0.3,0,0.6-0.3,0.6-0.6v-10c0-0.6,0.4-1,1-1s1,0.4,1,1v2.8c0,0.3,0.3,0.6,0.6,0.6h3.2V19.1z M143.4,34.6
			c0,0.3,0.3,0.6,0.6,0.6h4.6c0.3,0,0.6-0.3,0.6-0.6v-5.7c0-0.3-0.3-0.6-0.6-0.6H144c-0.3,0-0.6,0.3-0.6,0.6V34.6z"/>
	</g>
</g>
<g>
	<path class="st6" d="M46.7,13.9c0.7,0,1.2,0.5,1.2,1.2v2.7c0,0.3,0.2,0.6,0.5,0.6h0.9c0.7,0,1.2,0.5,1.2,1.2s-0.5,1.2-1.2,1.2h-0.9
		c-0.3,0-0.5,0.3-0.5,0.5v3.2c0,0.2,0.2,0.4,0.4,0.3l0.6-0.3c0.6-0.3,1.2,0.1,1.2,0.7c0,0.8-0.4,1.5-1.1,1.8l-0.6,0.3
		c-0.3,0.1-0.4,0.4-0.4,0.7v9.2c0,0.6-0.5,1.2-1.2,1.2c-0.6,0-1.2-0.5-1.2-1.2v-8c0-0.3-0.3-0.4-0.5-0.3l-0.8,0.4
		c-0.5,0.3-1.2-0.1-1.2-0.7c0-0.8,0.5-1.5,1.2-1.8l0.8-0.4c0.3-0.1,0.5-0.4,0.5-0.8v-4.3c0-0.3-0.3-0.5-0.5-0.5h-0.8
		c-0.6,0-1.2-0.5-1.2-1.2s0.6-1.2,1.2-1.2H45c0.3,0,0.5-0.3,0.5-0.5v-2.7C45.5,14.4,46,13.9,46.7,13.9z M62.5,31.7
		c-0.3,0-0.6,0.3-0.6,0.6v2.5c0,0.3,0.3,0.5,0.6,0.5H66c0.7,0,1.2,0.5,1.2,1.2c0,0.6-0.5,1.2-1.2,1.2l-10.6,0c-1.1,0-2-0.9-2-2V23.5
		c0-0.3-0.2-0.5-0.5-0.5c-0.9,0-1.5-0.9-1.1-1.7l2.6-5.6c0.3-0.7,1-1.1,1.8-1.1c0.6,0,1,0.6,0.8,1.1l-1.1,2.5
		c-0.1,0.3,0.1,0.5,0.3,0.5h2.9c0.3,0,0.6-0.2,0.8-0.5l1.1-2.4c0.3-0.7,1.1-1.2,1.9-1.2c0.6,0,1,0.6,0.8,1.2l-1.1,2.4
		c-0.1,0.3,0.1,0.5,0.3,0.5H66c0.7,0,1.2,0.5,1.2,1.2c0,0.6-0.5,1.2-1.2,1.2h-3.5c-0.3,0-0.6,0.3-0.6,0.5v2c0,0.3,0.3,0.5,0.6,0.5
		h2.8c0.7,0,1.2,0.5,1.2,1.2c0,0.6-0.5,1.2-1.2,1.2h-2.8c-0.3,0-0.6,0.3-0.6,0.5v1.8c0,0.3,0.3,0.6,0.6,0.6h2.8
		c0.6,0,1.2,0.5,1.2,1.2c0,0.6-0.5,1.2-1.2,1.2H62.5z M59.6,21.6c0-0.3-0.2-0.5-0.5-0.5h-2.8c-0.3,0-0.5,0.3-0.5,0.5v2
		c0,0.3,0.3,0.5,0.5,0.5h2.8c0.3,0,0.5-0.3,0.5-0.5V21.6z M59.1,29.4c0.3,0,0.5-0.3,0.5-0.6V27c0-0.3-0.2-0.5-0.5-0.5h-2.8
		c-0.3,0-0.5,0.3-0.5,0.5v1.8c0,0.3,0.3,0.6,0.5,0.6H59.1z M56.3,31.7c-0.3,0-0.5,0.3-0.5,0.6v2.5c0,0.3,0.3,0.5,0.5,0.5h2.8
		c0.3,0,0.5-0.3,0.5-0.5v-2.5c0-0.3-0.2-0.6-0.5-0.6H56.3z"/>
	<path class="st6" d="M83.5,17.6c0.6,0,1,0.4,1,1c0,0.2,0.2,0.3,0.3,0.3h8.7c0.6,0,1,0.5,1,1.1c0,0.6-0.4,1-1,1H88
		c-0.3,0-0.6,0.3-0.6,0.6v0.2c0,0.3,0.3,0.6,0.6,0.6h2.7c1.1,0,2,0.9,2,2v1c0,1.1-0.9,2-2,2h-9.3c-0.3,0-0.6,0.2-0.6,0.5
		c0,0.3,0.2,0.5,0.5,0.5h11c0.5,0,0.9,0.4,0.9,1c0,0.6-0.4,1-0.9,1H80.9c-0.3,0-0.6,0.2-0.7,0.6c0,0.3,0.2,0.6,0.5,0.6h11.8
		c1.1,0,2,0.9,1.9,2l0,3.4c0,0.6-0.4,1-1,1c-0.6,0-1-0.4-1-1l0.1-2.8c0-0.3-0.3-0.6-0.6-0.6H79.7c-1.1,0-1.8-1-1.6-2l0.6-3.5
		c0.1-0.3-0.2-0.6-0.5-0.6h-1.3c-0.5,0-0.9-0.4-0.9-0.9s0.4-0.9,0.9-0.9h1.7c0.3,0,0.6-0.3,0.6-0.6v-0.2c0-0.3-0.3-0.6-0.6-0.6h-1.7
		c-0.5,0-0.9-0.4-0.9-0.9s0.4-0.9,0.9-0.9h1.7c0.3,0,0.6-0.3,0.6-0.6v-0.2c0-0.3-0.3-0.6-0.6-0.6h-3.2c-0.3,0-0.6,0.3-0.6,0.6v2.5
		L73.5,37c-0.1,0.6-0.5,1-1.1,1c-0.6,0-1-0.4-0.9-1l1.2-13v-3c0-1.1,0.8-2,2-2h7.6c0.2,0,0.3-0.2,0.3-0.3C82.6,18,83,17.6,83.5,17.6
		z M88.5,14.7c0,0.1,0.1,0.3,0.3,0.3h5.2c0.6,0,1,0.4,1,1c0,0.6-0.4,1-1,1h-5.2c-0.1,0-0.3,0.1-0.3,0.3c0,0.4-0.3,0.7-0.7,0.7h-0.6
		c-0.4,0-0.7-0.3-0.7-0.7c0-0.2-0.2-0.3-0.3-0.3h-5.9c-0.1,0-0.3,0.1-0.3,0.3c0,0.4-0.3,0.7-0.8,0.7h-0.6c-0.4,0-0.8-0.3-0.8-0.7
		c0-0.1-0.1-0.3-0.3-0.3h-5.2c-0.6,0-1-0.4-1-1c0-0.6,0.4-1,1-1h5.2c0.2,0,0.3-0.2,0.3-0.3c0-0.4,0.3-0.8,0.8-0.8h0.5
		c0.4,0,0.8,0.3,0.8,0.8c0,0.1,0.1,0.3,0.3,0.3h5.9c0.1,0,0.3-0.2,0.3-0.3c0-0.4,0.3-0.8,0.8-0.8h0.5C88.2,13.9,88.5,14.2,88.5,14.7
		z M76.4,37.6c-0.5,0-1-0.5-0.8-1l0.2-1c0.1-0.6,0.7-1,1.3-1c0.6,0,1,0.5,0.8,1l-0.2,1C77.6,37.2,77,37.6,76.4,37.6z M79.9,35.5
		c-0.1-0.6,0.4-1,1-1c0.6,0,1.1,0.4,1.1,1l0.1,0.9c0.1,0.6-0.4,1-1,1c-0.6,0-1.1-0.4-1.1-1L79.9,35.5z M84.7,22.4
		c0.3,0,0.6-0.3,0.6-0.6v-0.2c0-0.3-0.3-0.6-0.6-0.6h-2.9c-0.3,0-0.6,0.3-0.6,0.6v0.2c0,0.3,0.3,0.6,0.6,0.6H84.7z M81.8,24.2
		c-0.3,0-0.6,0.3-0.6,0.6V25c0,0.3,0.3,0.6,0.6,0.6h2.9c0.3,0,0.6-0.3,0.6-0.6v-0.2c0-0.3-0.3-0.6-0.6-0.6H81.8z M84,35.5
		c-0.1-0.5,0.3-1,0.8-1c0.6,0,1.1,0.4,1.3,1l0.1,0.4c0.1,0.5-0.3,1-0.8,1c-0.6,0-1.1-0.4-1.3-1L84,35.5z M90.9,24.8
		c0-0.3-0.3-0.6-0.6-0.6H88c-0.3,0-0.6,0.3-0.6,0.6V25c0,0.3,0.3,0.6,0.6,0.6h2.3c0.3,0,0.6-0.3,0.6-0.6V24.8z M87.9,35.4
		c-0.1-0.5,0.2-1,0.7-1h0.2c0.6,0,1.1,0.4,1.3,1c0.1,0.5-0.2,1-0.7,1h-0.2C88.6,36.4,88.1,36,87.9,35.4z"/>
	<path class="st6" d="M105,17.1c-0.3-0.2-0.6-0.2-1,0l-1.3,1.3c-0.8,0.7-1.7,1.2-2.7,1.2c-0.5,0-0.8-0.8-0.4-1.1l3.4-3.3
		c0.8-0.8,2.9-0.1,2.9-0.1l3.9,3.4c0.4,0.3,0.2,1.1-0.4,1.1c-1.1,0-2.2-0.4-3-1.2L105,17.1z M105.9,32.7c-0.1-0.6,0.3-1.1,0.8-1.1
		c0.7,0,1.3,0.5,1.5,1.1l1.2,4.1c0.2,0.6-0.2,1.1-0.8,1.1c-0.7,0-1.3-0.4-1.5-1.1l-0.1-0.2c-0.1-0.3-0.3-0.4-0.5-0.3l-4.6,1.2
		c-1,0.3-1.9-0.4-1.9-1.5V22.9c0-1.1,0.8-2,2-2h1.1c0.2,0,0.5-0.3,0.5-0.5V20c0-0.6,0.4-1.1,1.1-1.1c0.6,0,1.1,0.5,1.1,1.1v0.5
		c0,0.2,0.3,0.5,0.5,0.5h0.7c1.1,0,2,0.9,2,2v5.2c0,1.1-0.9,2-2,2h-4.3c-0.3,0-0.6,0.3-0.6,0.6v4.1c0,0.3,0.3,0.5,0.6,0.4l3.1-0.8
		c0.4-0.1,0.5-0.4,0.4-0.7L105.9,32.7z M107,23.6c0-0.3-0.3-0.6-0.6-0.6h-3.6c-0.3,0-0.6,0.3-0.6,0.6v0.3c0,0.3,0.3,0.6,0.6,0.6h3.6
		c0.3,0,0.6-0.3,0.6-0.6V23.6z M102.1,27.4c0,0.3,0.3,0.6,0.6,0.6h3.6c0.3,0,0.6-0.3,0.6-0.6v-0.2c0-0.3-0.3-0.6-0.6-0.6h-3.6
		c-0.3,0-0.6,0.3-0.6,0.6V27.4z M123.3,36.5c0.3,0.5-0.1,1.2-0.6,1.2c-0.9,0-1.6-0.5-2-1.2l-1.1-1.9c-0.1-0.3-0.5-0.3-0.6,0
		l-0.9,1.9c-0.3,0.7-1,1.2-1.9,1.2c-0.6,0-1-0.6-0.7-1.2l2.1-4.6c0.1-0.3,0.2-0.7,0-1l-2.7-7c-0.1-0.3-0.3-0.4-0.6-0.4
		c-0.2,0-0.4,0.2-0.4,0.4l-0.4,13c0,0.6-0.5,1.1-1.1,1.1c-0.6,0-1.1-0.5-1.1-1.1l0.6-20.2c0-1.1,0.9-2,2-2h8.4
		c0.6,0,1.1,0.4,1.1,1.1s-0.5,1.1-1.1,1.1h-7.6c-0.3,0-0.6,0.3-0.6,0.6l-0.1,3.1c0,0.3,0.3,0.6,0.6,0.6h6.2c1,0,1.7,0.9,1.5,1.9
		l-1.8,7.6c-0.1,0.3,0,0.7,0.1,1L123.3,36.5z M119.6,24.1c0.1-0.3-0.2-0.6-0.5-0.6h-1.4c-0.3,0-0.5,0.3-0.4,0.6l1.1,2.8
		c0.1,0.2,0.4,0.2,0.4,0L119.6,24.1z"/>
	<path class="st6" d="M127.3,16.2c0-1.1,0.8-2,2-2h19.9c1.1,0,2,0.8,2,2v20.1c0,1.1-0.8,2-2,2h-19.9c-1.1,0-2-0.9-2-2V16.2z
		 M148.5,36.1c0.3,0,0.6-0.3,0.6-0.6V17c0-0.3-0.3-0.6-0.6-0.6H130c-0.3,0-0.6,0.3-0.6,0.6v18.6c0,0.3,0.3,0.6,0.6,0.6H148.5z
		 M143.1,35.1c-0.5,0-0.8-0.4-0.8-0.8v-1.8c0-0.3-0.3-0.5-0.5-0.5h-9.8c-0.5,0-0.8-0.4-0.8-0.8c0-0.5,0.4-0.8,0.8-0.8H142
		c0.1,0,0.2-0.1,0.2-0.2c0-0.4,0.3-0.7,0.7-0.7h0.2c0.4,0,0.7,0.3,0.7,0.7c0,0.1,0.1,0.2,0.2,0.2h2.5c0.5,0,0.8,0.4,0.8,0.8
		c0,0.4-0.4,0.8-0.8,0.8h-2.2c-0.3,0-0.5,0.2-0.5,0.5v1.8C143.9,34.7,143.5,35.1,143.1,35.1z M145.9,29.4c-0.3,0-0.6-0.1-0.7-0.4
		c0-0.1-0.1-0.1-0.2-0.1L132.5,29c-0.4,0-0.8-0.4-0.8-0.8c0-0.5,0.4-0.8,0.8-0.8l5.5-0.1c0.3,0,0.5-0.2,0.5-0.5
		c0-0.3-0.2-0.5-0.5-0.5h-3.8c-1.1,0-2-0.9-2-2v-1.4c0-1.1,0.9-2,2-2h4c0.2,0,0.3-0.1,0.3-0.3c0-0.2-0.2-0.3-0.3-0.3h-5.5
		c-0.5,0-0.8-0.4-0.8-0.8c0-0.4,0.4-0.8,0.8-0.8h5.6c0.1,0,0.3-0.1,0.3-0.3v-0.1c0-0.4,0.4-0.8,0.8-0.8s0.8,0.4,0.8,0.8v0.1
		c0,0.1,0.1,0.3,0.2,0.3h5.6c0.5,0,0.8,0.4,0.8,0.8c0,0.5-0.4,0.8-0.8,0.8h-5.5c-0.2,0-0.3,0.1-0.3,0.3c0,0.2,0.1,0.3,0.3,0.3h4
		c1.1,0,2,0.9,2,2v1.4c0,1.1-0.9,2-2,2h-3.9c-0.3,0-0.5,0.2-0.5,0.5c0,0.3,0.2,0.5,0.5,0.5l3.7,0c0,0,0.1-0.1,0.1-0.1
		c-0.1-0.2,0.1-0.3,0.2-0.3h0.6c0.6,0,1.1,0.3,1.3,0.8l0.4,1c0.2,0.4-0.1,0.8-0.5,0.8H145.9z M138.4,22.5c0-0.2-0.1-0.3-0.3-0.3
		h-4.3c-0.2,0-0.3,0.1-0.3,0.3c0,0.2,0.1,0.3,0.3,0.3h4.3C138.3,22.8,138.4,22.7,138.4,22.5z M133.5,24.6c0,0.2,0.1,0.3,0.3,0.3h4.3
		c0.2,0,0.3-0.1,0.3-0.3s-0.1-0.3-0.3-0.3h-4.3C133.6,24.2,133.5,24.4,133.5,24.6z M135.4,33c-0.3-0.3-0.1-0.7,0.3-0.7
		c0.6,0,1.3,0.3,1.7,0.7l0.5,0.5c0.3,0.3,0.1,0.7-0.3,0.7c-0.6,0-1.2-0.3-1.7-0.7L135.4,33z M145,22.5c0-0.2-0.1-0.3-0.3-0.3h-4.3
		c-0.2,0-0.3,0.1-0.3,0.3c0,0.2,0.1,0.3,0.3,0.3h4.3C144.9,22.8,145,22.7,145,22.5z M140.1,24.6c0,0.2,0.1,0.3,0.3,0.3h4.3
		c0.2,0,0.3-0.1,0.3-0.3s-0.1-0.3-0.3-0.3h-4.3C140.2,24.2,140.1,24.4,140.1,24.6z"/>
</g>
</svg>
