<?xml version="1.0" encoding="utf-8"?>
<!-- Generator: Adobe Illustrator 22.1.0, SVG Export Plug-In . SVG Version: 6.00 Build 0)  -->
<svg version="1.1" id="圖層_1" xmlns="http://www.w3.org/2000/svg" xmlns:xlink="http://www.w3.org/1999/xlink" x="0px" y="0px"
	 viewBox="0 0 244 48" style="enable-background:new 0 0 244 48;" xml:space="preserve">
<style type="text/css">
	.st0{fill:#BB7232;}
	.st1{fill:#EAAE07;}
	.st2{fill:#F9F3DC;}
	.st3{fill:#5B3824;}
	.st4{enable-background:new    ;}
	.st5{fill:#FFFFFF;}
</style>
<g>
	<polygon class="st0" points="243.5,44.7 19.6,44.7 19.6,6.4 243.5,6.4 223.3,25.6 	"/>
	<g>
		<g>
			<g>
				<g>
					<ellipse class="st1" cx="17.8" cy="18" rx="17.8" ry="18"/>
					<polygon class="st1" points="17.8,47.7 2.1,26.4 33.4,26.4 					"/>
				</g>
				<ellipse class="st2" cx="17.8" cy="18" rx="13.8" ry="14"/>
			</g>
		</g>
		<path class="st1" d="M15.3,14.4l2.4-2.5c0.1-0.1,0.2-0.1,0.2,0l2.4,2.5c0.1,0.1,0,0.3-0.1,0.3h-4.8C15.3,14.6,15.2,14.5,15.3,14.4
			z"/>
		<path class="st1" d="M15.9,15.3h3.8c0.2,0,0.3,0.3,0.2,0.3L18,17.7c-0.1,0.1-0.2,0.1-0.3,0l-1.9-2.1
			C15.6,15.6,15.7,15.3,15.9,15.3z"/>
		<ellipse class="st3" cx="23.7" cy="9.9" rx="1" ry="1"/>
		<ellipse class="st3" cx="11.8" cy="9.9" rx="1" ry="1"/>
	</g>
	<g class="st4">
		<path class="st5" d="M48.4,17c0,0.3,0.2,0.6,0.5,0.6h2.7c1,0,1.8,0.9,1.6,2l-1.8,10.8c-0.1,0.3,0.1,0.7,0.4,0.8l0.4,0.2
			c0.8,0.4,1.2,1.3,1.2,2.1c0,0.6-0.6,0.9-1.1,0.6l-1.5-0.9c-0.3-0.2-0.7-0.1-0.9,0.1l-1.7,1.9c-0.7,0.8-1.6,1.2-2.6,1.2
			c-0.5,0-0.9-0.7-0.5-1.1l2.7-3.2c0.2-0.3,0.2-0.7-0.2-0.8l-2.1-1.3c-1-0.6-1.6-1.8-1.4-2.9l1.2-6.7c0.1-0.3-0.2-0.6-0.5-0.6h-0.9
			c-0.7,0-1.1-0.5-1.1-1.2c0-0.7,0.5-1.2,1.1-1.2h1.3c0.3,0,0.6-0.2,0.7-0.6l0.4-2.1c0.1-0.6,0.7-1.1,1.4-1.1c0.7,0,1.1,0.5,1,1.1
			L48.4,17z M48.6,29.3c0.3,0.1,0.6,0,0.7-0.3l1.4-8.5c0.1-0.3-0.2-0.6-0.5-0.6h-1.8c-0.3,0-0.7,0.2-0.7,0.6l-1.2,7
			c-0.1,0.3,0.1,0.7,0.4,0.9L48.6,29.3z M55.7,18.6c0-1.2,0.9-2,2-2h6.1c1.1,0,1.9,0.8,1.9,2v14.5c0,1.1-0.8,2-1.9,2h-6.1
			c-1.1,0-2-0.9-2-2V18.6z M62.9,32.8c0.3,0,0.6-0.3,0.6-0.7V19.6c0-0.3-0.3-0.6-0.6-0.6h-4.3c-0.3,0-0.6,0.3-0.6,0.6v12.5
			c0,0.4,0.3,0.7,0.6,0.7H62.9z"/>
		<path class="st5" d="M75.6,15.4c0.4-0.7,1.1-1.2,1.9-1.2c0.6,0,1,0.6,0.7,1.2l-1.2,2.4c-0.1,0.3-0.2,0.7-0.2,1v17.5
			c0,0.7-0.5,1.2-1.2,1.2c-0.7,0-1.2-0.5-1.2-1.2V23.7c0-0.1-0.2-0.2-0.2-0.1L74,24.2c-0.4,0.7-1.1,1.2-1.9,1.2
			c-0.6,0-1-0.6-0.7-1.2L75.6,15.4z M81.7,30.3c-1.1,0-2-0.9-2-2v-5.7c0-1.1,0.9-2,2-2h4c1.1,0,2,0.9,2,2v5.7c0,1.1-0.9,2-2,2H81.7z
			 M93.9,14.9c0.7,0,1.2,0.5,1.2,1.2c0,0.7-0.5,1.2-1.2,1.2h-0.5c-0.2,0-0.4,0.2-0.4,0.4v18.7c0,0.7-0.5,1.2-1.2,1.2
			c-0.7,0-1.2-0.5-1.2-1.2V17.8c0-0.3-0.2-0.5-0.5-0.5h-9c-0.7,0-1.2-0.5-1.2-1.2c0-0.7,0.5-1.2,1.2-1.2H93.9z M82.6,22.9
			c-0.3,0-0.5,0.2-0.5,0.6v3.9c0,0.3,0.2,0.5,0.5,0.5h2.2c0.3,0,0.5-0.2,0.5-0.5v-3.9c0-0.3-0.2-0.6-0.5-0.6H82.6z"/>
		<path class="st5" d="M120.4,23.4c0-0.1-0.1-0.2-0.3-0.2l-4.5,0.3c-0.2,0-0.2,0.2-0.1,0.3l5.1,3.2c0.5,0.3,0.3,1-0.3,1h0
			c-1.2,0-2.5-0.4-3.5-1l-5.1-3.2c-0.3-0.2-0.6-0.2-0.9,0l-4.9,3.2c-1,0.7-2.3,1-3.5,1c-0.4,0-0.7-0.8-0.3-1l5.6-3.6
			c0.1-0.1,0.1-0.1,0.1-0.2c0-0.1-0.1-0.1-0.1-0.1l-5.3,0.3c-0.8,0.1-1.3-0.8-0.9-1.5l1-1.7c0.4-0.6,1-1,1.8-1c0.5,0,0.8,0.5,0.5,1
			l-0.4,0.6c-0.1,0.2,0,0.4,0.2,0.4l2.3-0.1c0.1,0,0.2-0.1,0.2-0.2c-0.1-0.5,0.2-0.9,0.7-0.9h0.1c0.6,0,1.1,0.4,1.3,1l0.2,0.8
			c0.1,0.2,0.3,0.3,0.5,0.2c0.9-0.6,2-0.6,2.8,0l0.6,0.4c0.2,0.2,0.5,0.1,0.7-0.2l0.9-1.8c0.3-0.6,1-1,1.7-1c0.5,0,0.9,0.5,0.6,1
			l-0.3,0.6c-0.1,0.2,0.1,0.4,0.2,0.4l2.3-0.1c0.2,0,0.2-0.1,0.2-0.3c-0.2-0.5,0.2-1,0.7-1c0.6,0,1.2,0.4,1.4,1l0.7,2.1
			c0.2,0.5-0.2,1-0.7,1h-0.3C121,24.2,120.6,23.9,120.4,23.4z M108.4,29.6c-1,0.7-2.2,1-3.4,1c-0.5,0-0.7-0.8-0.3-1l3.8-2.6
			c1-0.7,2.3-1.1,3.5-1.1c0.4,0,0.7,0.8,0.3,1.1L108.4,29.6z M117.3,18.8c-0.4,0-0.7-0.2-0.8-0.5c0-0.1-0.1-0.1-0.2-0.1l-10.2,0.5
			c-0.8,0.1-1.2-0.8-0.7-1.4l1.9-2.4c0.5-0.6,1.3-1,2.1-1c0.5,0,0.8,0.6,0.5,1l-1,1.3c-0.1,0.2,0,0.4,0.2,0.4l6.3-0.3
			c0.1,0,0.2-0.1,0.1-0.2c-0.2-0.4,0.1-0.7,0.5-0.7h0.3c0.7,0,1.3,0.4,1.6,1l0.7,1.5c0.2,0.5-0.1,1-0.6,1H117.3z M114.2,28.8
			c0.5,0,0.8,0.7,0.3,1l-3.7,2.6c-1,0.7-2.1,1-3.3,1c-0.5,0-0.7-0.8-0.3-1l3.7-2.6C111.8,29.2,113,28.8,114.2,28.8z M109.5,36.9
			c-0.6,0-0.8-0.7-0.3-1l4.5-3.1c1-0.7,2.1-1,3.4-1c0.5,0,0.7,0.8,0.3,1l-4.5,3.1C111.9,36.6,110.7,36.9,109.5,36.9z"/>
		<path class="st5" d="M133.1,14c0.7,0,1.2,0.5,1.2,1.2v2.2c0,0.3,0.2,0.5,0.5,0.5h3c1.1,0,2,0.9,1.9,2l-0.6,15.5
			c0,0.7-0.6,1.2-1.2,1.2s-1.2-0.6-1.2-1.2l0.6-14.6c0-0.3-0.2-0.5-0.5-0.5h-2.1c-0.3,0-0.6,0.2-0.6,0.5l-2,13.8
			c-0.1,0.7-0.7,1.2-1.4,1.2c-0.6,0-1.1-0.6-1-1.2l2-13.8c0.1-0.3-0.2-0.5-0.4-0.5h-1.6c-0.7,0-1.2-0.5-1.2-1.2
			c0-0.7,0.5-1.2,1.2-1.2h1.7c0.3,0,0.5-0.2,0.5-0.5v-2.2C131.9,14.6,132.5,14,133.1,14z M141.8,19.4c0-1.1,0.9-2,2-2h5.9
			c1.1,0,2,0.9,2,2v14.8c0,1.1-0.9,2-2,2h-5.9c-1.1,0-2-0.9-2-2V19.4z M148.7,33.8c0.3,0,0.6-0.2,0.6-0.5v-13c0-0.3-0.2-0.6-0.6-0.6
			h-4c-0.3,0-0.6,0.2-0.6,0.6v13c0,0.3,0.2,0.5,0.6,0.5H148.7z"/>
		<path class="st5" d="M162.5,16.5c-0.3-0.2-0.6-0.2-0.9,0l-1.2,1.2c-0.7,0.7-1.7,1.2-2.7,1.2c-0.5,0-0.8-0.7-0.4-1.1l3.3-3.2
			c0.7-0.8,2.9-0.1,2.9-0.1l3.9,3.4c0.4,0.3,0.2,1-0.4,1c-1.1,0-2.1-0.4-2.9-1.2L162.5,16.5z M163.5,31.9c-0.1-0.6,0.2-1.1,0.8-1.1
			c0.7,0,1.3,0.5,1.5,1.1l1.2,4c0.2,0.6-0.2,1.1-0.8,1.1c-0.7,0-1.3-0.4-1.5-1.1l-0.1-0.2c-0.1-0.2-0.3-0.4-0.5-0.3l-4.5,1.2
			c-1,0.3-1.9-0.4-1.9-1.4v-13c0-1.1,0.8-2,1.9-2h1.1c0.2,0,0.5-0.2,0.5-0.5v-0.5c0-0.6,0.4-1.1,1.1-1.1c0.6,0,1.1,0.5,1.1,1.1v0.5
			c0,0.2,0.2,0.5,0.5,0.5h0.7c1.1,0,2,0.9,2,2v5.1c0,1.1-0.9,1.9-2,1.9h-4.2c-0.3,0-0.6,0.3-0.6,0.6v4c0,0.3,0.3,0.5,0.6,0.4l3-0.8
			c0.4-0.1,0.5-0.4,0.4-0.7L163.5,31.9z M164.5,22.9c0-0.3-0.3-0.6-0.6-0.6h-3.5c-0.3,0-0.6,0.3-0.6,0.6v0.2c0,0.3,0.3,0.6,0.6,0.6
			h3.5c0.3,0,0.6-0.3,0.6-0.6V22.9z M159.7,26.7c0,0.3,0.3,0.6,0.6,0.6h3.5c0.3,0,0.6-0.3,0.6-0.6v-0.2c0-0.3-0.3-0.6-0.6-0.6h-3.5
			c-0.3,0-0.6,0.3-0.6,0.6V26.7z M180.5,35.6c0.3,0.5-0.1,1.2-0.6,1.2c-0.9,0-1.6-0.5-2-1.2l-1.1-1.9c-0.1-0.2-0.5-0.2-0.6,0
			l-0.9,1.8c-0.3,0.7-1,1.2-1.8,1.2c-0.5,0-1-0.6-0.7-1.2l2.1-4.5c0.1-0.3,0.2-0.7,0-1l-2.7-6.8c-0.1-0.2-0.3-0.4-0.5-0.4
			c-0.2,0-0.4,0.2-0.4,0.4L170.8,36c0,0.6-0.5,1.1-1.1,1.1c-0.6,0-1.1-0.5-1.1-1.1l0.5-19.9c0-1.1,0.9-1.9,2-1.9h8.2
			c0.6,0,1.1,0.4,1.1,1.1c0,0.6-0.5,1.1-1.1,1.1h-7.5c-0.3,0-0.6,0.3-0.6,0.6l-0.1,3c0,0.3,0.3,0.6,0.6,0.6h6.1c1,0,1.7,0.9,1.5,1.9
			l-1.8,7.5c-0.1,0.3,0,0.7,0.1,1L180.5,35.6z M176.9,23.4c0.1-0.3-0.2-0.6-0.5-0.6H175c-0.3,0-0.5,0.3-0.4,0.5l1.1,2.8
			c0.1,0.2,0.4,0.2,0.4,0L176.9,23.4z"/>
		<path class="st5" d="M185.4,15.7c0-1.1,0.8-1.9,2-1.9H207c1.1,0,1.9,0.8,1.9,1.9v19.7c0,1.1-0.8,2-1.9,2h-19.6c-1.1,0-2-0.9-2-2
			V15.7z M206.2,35.3c0.3,0,0.6-0.3,0.6-0.6V16.5c0-0.3-0.3-0.6-0.6-0.6h-18.1c-0.3,0-0.6,0.3-0.6,0.6v18.2c0,0.3,0.3,0.6,0.6,0.6
			H206.2z M200.9,34.2c-0.5,0-0.8-0.4-0.8-0.8v-1.8c0-0.3-0.2-0.5-0.5-0.5h-9.7c-0.5,0-0.8-0.4-0.8-0.8c0-0.5,0.4-0.8,0.8-0.8h10
			c0.1,0,0.2-0.1,0.2-0.2c0-0.4,0.3-0.7,0.7-0.7h0.2c0.4,0,0.7,0.3,0.7,0.7c0,0.1,0.1,0.2,0.2,0.2h2.5c0.5,0,0.8,0.4,0.8,0.8
			c0,0.4-0.4,0.8-0.8,0.8h-2.1c-0.3,0-0.5,0.2-0.5,0.5v1.8C201.7,33.9,201.4,34.2,200.9,34.2z M203.7,28.6c-0.3,0-0.5-0.1-0.7-0.4
			c0-0.1-0.1-0.1-0.2-0.1l-12.3,0.1c-0.4,0-0.8-0.4-0.8-0.8c0-0.5,0.4-0.8,0.8-0.8l5.4-0.1c0.3,0,0.5-0.2,0.5-0.5s-0.2-0.5-0.5-0.5
			h-3.7c-1.1,0-2-0.9-2-2v-1.3c0-1.1,0.9-2,2-2h3.9c0.2,0,0.3-0.1,0.3-0.3s-0.2-0.3-0.3-0.3h-5.4c-0.5,0-0.8-0.4-0.8-0.8
			c0-0.4,0.4-0.8,0.8-0.8h5.5c0.1,0,0.2-0.1,0.2-0.2v-0.1c0-0.4,0.4-0.8,0.8-0.8c0.4,0,0.8,0.4,0.8,0.8v0.1c0,0.1,0.1,0.2,0.2,0.2
			h5.5c0.5,0,0.8,0.4,0.8,0.8c0,0.5-0.4,0.8-0.8,0.8h-5.4c-0.2,0-0.3,0.1-0.3,0.3s0.1,0.3,0.3,0.3h3.9c1.1,0,2,0.9,2,2v1.3
			c0,1.1-0.9,2-2,2h-3.8c-0.3,0-0.5,0.2-0.5,0.5c0,0.2,0.2,0.5,0.5,0.5l3.7,0c0,0,0.1-0.1,0.1-0.1c-0.1-0.2,0.1-0.3,0.2-0.3h0.5
			c0.5,0,1.1,0.3,1.3,0.8l0.4,0.9c0.2,0.4-0.1,0.8-0.5,0.8H203.7z M196.3,21.9c0-0.2-0.1-0.3-0.3-0.3h-4.2c-0.2,0-0.3,0.1-0.3,0.3
			c0,0.2,0.1,0.3,0.3,0.3h4.2C196.2,22.2,196.3,22.1,196.3,21.9z M191.5,23.9c0,0.2,0.1,0.3,0.3,0.3h4.3c0.2,0,0.3-0.1,0.3-0.3
			c0-0.2-0.1-0.3-0.3-0.3h-4.3C191.6,23.6,191.5,23.7,191.5,23.9z M193.3,32.2c-0.3-0.2-0.1-0.7,0.3-0.7c0.6,0,1.2,0.2,1.7,0.7
			l0.5,0.5c0.2,0.2,0.1,0.7-0.3,0.7c-0.6,0-1.2-0.2-1.7-0.7L193.3,32.2z M202.8,21.9c0-0.2-0.1-0.3-0.3-0.3h-4.2
			c-0.2,0-0.3,0.1-0.3,0.3c0,0.2,0.1,0.3,0.3,0.3h4.2C202.7,22.2,202.8,22.1,202.8,21.9z M198,23.9c0,0.2,0.1,0.3,0.3,0.3h4.3
			c0.2,0,0.3-0.1,0.3-0.3c0-0.2-0.1-0.3-0.3-0.3h-4.3C198.1,23.6,198,23.7,198,23.9z"/>
	</g>
</g>
</svg>
