<svg xmlns="http://www.w3.org/2000/svg" x="0px" y="0px"
     width="52" height="52"
     viewBox="0 0 252 252"
     style="fill:#000000;"><g transform="translate(3.906,3.906) scale(0.969,0.969)"><g fill="none" fill-rule="nonzero" stroke="none" stroke-width="none" stroke-linecap="butt" stroke-linejoin="none" stroke-miterlimit="10" stroke-dasharray="" stroke-dashoffset="0" font-family="none" font-weight="none" font-size="none" text-anchor="none" style="mix-blend-mode: normal"><g fill="#000000" stroke="#000000" stroke-width="8" stroke-linejoin="round"><path d="M241.92,126c0,63.96115 -51.95885,115.92 -115.92,115.92c-63.96115,0 -115.92,-51.95885 -115.92,-115.92c0,-63.96115 51.95885,-115.92 115.92,-115.92c63.96115,0 115.92,51.95885 115.92,115.92zM20.16,126c0,58.51351 47.32649,105.84 105.84,105.84c58.51351,0 105.84,-47.32649 105.84,-105.84c0,-58.51351 -47.32649,-105.84 -105.84,-105.84c-58.51351,0 -105.84,47.32649 -105.84,105.84zM156.24,85.68v15.12h5.04c8.29309,0 15.12,6.82691 15.12,15.12v50.4c0,8.29309 -6.82691,15.12 -15.12,15.12h-70.56c-8.29309,0 -15.12,-6.82691 -15.12,-15.12v-50.4c0,-8.29309 6.82691,-15.12 15.12,-15.12h5.04v-15.12c0,-16.752 13.488,-30.24 30.24,-30.24c16.752,0 30.24,13.488 30.24,30.24zM105.84,85.68v15.12h40.32v-15.12c0,-11.472 -8.688,-20.16 -20.16,-20.16c-11.472,0 -20.16,8.688 -20.16,20.16zM85.68,115.92v50.4c0,2.79491 2.24509,5.04 5.04,5.04h70.56c2.79491,0 5.04,-2.24509 5.04,-5.04v-50.4c0,-2.79491 -2.24509,-5.04 -5.04,-5.04h-9.28266c-0.54428,0.08996 -1.09963,0.08996 -1.64391,0h-48.75609c-0.54428,0.08996 -1.09963,0.08996 -1.64391,0h-9.23344c-2.79491,0 -5.04,2.24509 -5.04,5.04zM136.08,136.08c-0.00636,3.59487 -1.92674,6.91429 -5.04,8.71172v6.40828c0,3.024 -2.016,5.04 -5.04,5.04c-3.024,0 -5.04,-2.016 -5.04,-5.04v-6.39844c-3.1163,-1.79919 -5.03715,-5.12318 -5.04,-8.72156c0,-5.56703 4.51297,-10.08 10.08,-10.08c5.56703,0 10.08,4.51297 10.08,10.08z"></path></g><path d="M0,252v-252h252v252z" fill="none" stroke="none" stroke-width="1" stroke-linejoin="miter"></path><g fill="#000000" stroke="none" stroke-width="1" stroke-linejoin="miter"><path d="M126,10.08c-63.96115,0 -115.92,51.95885 -115.92,115.92c0,63.96115 51.95885,115.92 115.92,115.92c63.96115,0 115.92,-51.95885 115.92,-115.92c0,-63.96115 -51.95885,-115.92 -115.92,-115.92zM126,20.16c58.51351,0 105.84,47.32649 105.84,105.84c0,58.51351 -47.32649,105.84 -105.84,105.84c-58.51351,0 -105.84,-47.32649 -105.84,-105.84c0,-58.51351 47.32649,-105.84 105.84,-105.84zM126,55.44c-16.752,0 -30.24,13.488 -30.24,30.24v15.12h-5.04c-8.29309,0 -15.12,6.82691 -15.12,15.12v50.4c0,8.29309 6.82691,15.12 15.12,15.12h70.56c8.29309,0 15.12,-6.82691 15.12,-15.12v-50.4c0,-8.29309 -6.82691,-15.12 -15.12,-15.12h-5.04v-15.12c0,-16.752 -13.488,-30.24 -30.24,-30.24zM126,65.52c11.472,0 20.16,8.688 20.16,20.16v15.12h-40.32v-15.12c0,-11.472 8.688,-20.16 20.16,-20.16zM90.72,110.88h9.23344c0.54428,0.08996 1.09963,0.08996 1.64391,0h48.75609c0.54428,0.08996 1.09963,0.08996 1.64391,0h9.28266c2.79491,0 5.04,2.24509 5.04,5.04v50.4c0,2.79491 -2.24509,5.04 -5.04,5.04h-70.56c-2.79491,0 -5.04,-2.24509 -5.04,-5.04v-50.4c0,-2.79491 2.24509,-5.04 5.04,-5.04zM126,126c-5.56703,0 -10.08,4.51297 -10.08,10.08c0.00285,3.59839 1.9237,6.92237 5.04,8.72156v6.39844c0,3.024 2.016,5.04 5.04,5.04c3.024,0 5.04,-2.016 5.04,-5.04v-6.40828c3.11326,-1.79743 5.03364,-5.11685 5.04,-8.71172c0,-5.56703 -4.51297,-10.08 -10.08,-10.08z"></path></g><path d="" fill="none" stroke="none" stroke-width="1" stroke-linejoin="miter"></path></g></g></svg>