<?xml version="1.0" encoding="utf-8"?>
<!-- Generator: Adobe Illustrator 22.1.0, SVG Export Plug-In . SVG Version: 6.00 Build 0)  -->
<svg version="1.1" id="圖層_1" xmlns="http://www.w3.org/2000/svg" xmlns:xlink="http://www.w3.org/1999/xlink" x="0px" y="0px"
	 viewBox="0 0 181 48" style="enable-background:new 0 0 181 48;" xml:space="preserve">
<style type="text/css">
	.st0{fill:#BB7232;}
	.st1{fill:#EAAE07;}
	.st2{fill:#F9F3DC;}
	.st3{fill:#5B3824;}
	.st4{fill:#FFFFFF;}
</style>
<g>
	<path class="st0" d="M180.6,6.9H17.3c0.4,12.8,1.6,25.6,3,38.3h160.4L160.5,26L180.6,6.9z"/>
	<g>
		<g>
			<g>
				<g>
					<ellipse class="st1" cx="17.8" cy="18.4" rx="17.8" ry="18"/>
					<polygon class="st1" points="17.8,48.1 2.1,26.8 33.4,26.8 					"/>
				</g>
				<ellipse class="st2" cx="17.8" cy="18.4" rx="13.8" ry="14"/>
			</g>
		</g>
		<path class="st1" d="M15.3,14.8l2.4-2.5c0.1-0.1,0.2-0.1,0.2,0l2.4,2.5c0.1,0.1,0,0.3-0.1,0.3h-4.8C15.3,15.1,15.2,14.9,15.3,14.8
			z"/>
		<path class="st1" d="M15.9,15.8h3.8c0.2,0,0.3,0.3,0.2,0.3L18,18.2c-0.1,0.1-0.2,0.1-0.3,0l-1.9-2.1C15.6,16,15.7,15.8,15.9,15.8z
			"/>
		<ellipse class="st3" cx="23.7" cy="10.3" rx="1" ry="1"/>
		<ellipse class="st3" cx="11.8" cy="10.3" rx="1" ry="1"/>
	</g>
</g>
<g>
	<path class="st4" d="M45.6,21.8c0.6,0,1.1,0.6,0.8,1.2l-0.6,1.8c-0.3,0.7-1,1.2-1.7,1.2c-0.6,0-1.1-0.6-0.8-1.2l0.6-1.8
		C44.1,22.3,44.8,21.8,45.6,21.8z M46.4,17.8c-0.2,0-0.4,0.2-0.4,0.4v0.4c0,0.7-0.5,1.2-1.2,1.2c-0.6,0-1.2-0.5-1.2-1.2v-1.2
		c0-1.1,0.9-2,2-2h7.7c0.2,0,0.4-0.2,0.4-0.4v-0.2c0-0.7,0.6-1.2,1.2-1.2s1.2,0.5,1.2,1.2V15c0,0.2,0.2,0.4,0.4,0.4h7.7
		c1.1,0,2,0.9,2,2v1.2c0,0.7-0.5,1.2-1.2,1.2s-1.2-0.5-1.2-1.2v-0.4c0-0.3-0.2-0.4-0.4-0.4h-8.8c-0.1,0-0.1,0.1,0,0.1
		c0.6,0.3,1,0.8,1,1.5v0.2c0,0.6-0.6,1.1-1.2,0.8l-2.2-0.9c-0.6-0.2-1-0.8-1-1.5c0-0.1-0.1-0.3-0.3-0.3H46.4z M62,27.4
		c0,0.7-0.6,1.2-1.2,1.2H49.2c-0.4,0-0.7,0.1-1,0.3l-2.1,1.3c-0.5,0.3-1.2-0.1-1.2-0.7c0-0.9,0.5-1.7,1.2-2.2l2.1-1.3
		c0.3-0.2,0.4-0.5,0.4-0.8v-4c0-0.7,0.6-1.2,1.2-1.2c0.6,0,1.2,0.6,1.2,1.2v2.6c0,0.2,0.3,0.4,0.4,0.3l7.5-4.5
		c0.5-0.3,1.2,0.1,1.2,0.7c0,0.9-0.5,1.7-1.2,2.1l-5.9,3.6c-0.1,0.1-0.1,0.3,0.1,0.3h7.5C61.4,26.2,62,26.7,62,27.4z M61.1,35.8
		c0.3,0,0.6-0.2,0.6-0.5v-2.1c0-0.7,0.5-1.2,1.2-1.2c0.7,0,1.2,0.5,1.2,1.2v3.1c0,1.1-0.9,2-2,2H47.6c-1.1,0-2-0.9-2-2v-3.1
		c0-0.7,0.6-1.2,1.2-1.2c0.7,0,1.2,0.5,1.2,1.2v2.1c0,0.3,0.2,0.5,0.5,0.5h4.5c0.3,0,0.5-0.2,0.5-0.5v-4c0-0.7,0.6-1.2,1.2-1.2
		s1.2,0.6,1.2,1.2v4c0,0.3,0.3,0.5,0.6,0.5H61.1z M63,24.2c-0.2-0.6,0.3-1.2,0.9-1.2c0.8,0,1.5,0.5,1.7,1.2l0.4,1.1
		c0.2,0.6-0.3,1.2-0.9,1.2c-0.8,0-1.5-0.5-1.7-1.2L63,24.2z"/>
	<path class="st4" d="M71.8,16.7c-0.6,0-1.1-0.4-1.1-1.1c0-0.6,0.4-1.1,1.1-1.1h6.4c0.6,0,1.1,0.4,1.1,1.1c0,0.6-0.4,1.1-1.1,1.1
		h-2.3c-0.4,0-0.7,0.2-0.8,0.6l-0.8,3.7c-0.1,0.3,0.2,0.6,0.4,0.6h2.1c1.1,0,2,0.9,2,2v9.6c0,1.1-0.9,2-2,2h-1.9c-1.1,0-2-0.8-2-2
		l0-5.3c0-0.1-0.2-0.1-0.2,0l-0.1,0.6c-0.2,0.6-0.7,1.1-1.4,1.1c-0.6,0-1-0.5-0.8-1.1l2.6-11.2c0.1-0.3-0.2-0.5-0.4-0.5H71.8z
		 M75.6,23.6c-0.3,0-0.6,0.3-0.6,0.6v8.1c0,0.3,0.3,0.7,0.6,0.7h0.5c0.3,0,0.6-0.4,0.6-0.7v-8.1c0-0.3-0.3-0.6-0.6-0.6H75.6z
		 M81.1,36.3c-0.5,0-0.9-0.4-0.9-1l0.3-3.8c0-0.6,0.5-1,1-1c0.6,0,0.9,0.4,0.9,1l-0.3,3.8C82.1,36,81.7,36.3,81.1,36.3z M89.3,25.8
		c0,0.3,0.3,0.6,0.6,0.6h2.5c1.1,0,2,0.8,2,2l-0.1,8.1c0,0.6-0.4,1.1-1.1,1.1c-0.6,0-1-0.4-1-1.1l0.1-7.4c0-0.3-0.3-0.6-0.6-0.6
		h-8.3c-1.1,0-2-0.8-2-2V16.1c0-1.1,0.9-2,2-2h9.4c0.6,0,1.1,0.4,1.1,1.1c0,0.6-0.4,1.1-1.1,1.1h-2.9c-0.4,0-0.6,0.3-0.6,0.6v0.8
		c0,0.3,0.3,0.6,0.6,0.6h1.8c0.6,0,1,0.4,1,1.1c0,0.6-0.4,1-1,1h-1.8c-0.4,0-0.6,0.3-0.6,0.6v0.8c0,0.3,0.3,0.6,0.6,0.6h1.8
		c0.6,0,1,0.4,1,1c0,0.6-0.4,1-1,1h-1.8c-0.4,0-0.6,0.3-0.6,0.6V25.8z M83.5,31.2c0-0.6,0.3-1,0.9-1s1,0.4,1,1l0.2,2.4
		c0,0.5-0.4,1-0.9,1c-0.6,0-1-0.4-1-1L83.5,31.2z M87.2,16.8c0-0.3-0.3-0.6-0.6-0.6h-2.4c-0.3,0-0.6,0.3-0.6,0.6v0.8
		c0,0.3,0.3,0.6,0.6,0.6h2.4c0.3,0,0.6-0.3,0.6-0.6V16.8z M86.6,22.4c0.3,0,0.6-0.3,0.6-0.6v-0.8c0-0.3-0.3-0.6-0.6-0.6h-2.4
		c-0.3,0-0.6,0.3-0.6,0.6v0.8c0,0.3,0.3,0.6,0.6,0.6H86.6z M84.1,24.5c-0.3,0-0.6,0.3-0.6,0.6v0.8c0,0.3,0.3,0.6,0.6,0.6h2.4
		c0.3,0,0.6-0.3,0.6-0.6v-0.8c0-0.3-0.3-0.6-0.6-0.6H84.1z M86.3,31c0-0.5,0.3-1,0.9-1c0.6,0,1,0.4,1,1l0.1,1.9c0.1,0.5-0.3,1-0.9,1
		c-0.6,0-1-0.4-1-1L86.3,31z M89.1,30.9c0-0.6,0.3-1,1-1c0.6,0,1,0.4,1,1l0.1,1.6c0,0.6-0.3,1-0.9,1c-0.6,0-1-0.4-1.1-1L89.1,30.9z"
		/>
	<path class="st4" d="M104,13.6c0.6,0,1,0.6,0.8,1.2l-1.1,3.1c-0.1,0.3-0.2,0.7-0.2,1V37c0,0.6-0.5,1.1-1.1,1.1
		c-0.6,0-1.2-0.5-1.2-1.1V24.7c0,0,0-0.1-0.1,0c-0.1,0.3-0.4,0.4-0.7,0.4h-0.8c-0.6,0-1-0.6-0.8-1.1l3.4-9.2
		C102.6,14,103.3,13.6,104,13.6z M105.8,34.6c-0.6,0-1.2-0.5-1.2-1.2v-14c0-0.6,0.5-1.2,1.2-1.2c0.6,0,1.1,0.5,1.1,1.2v14
		C106.9,34,106.4,34.6,105.8,34.6z M114.3,23.2c-1.1,0.7-2.4,1.1-3.8,1.1h-0.1c-0.6,0-0.8-0.8-0.3-1.1l3.6-2.2
		c0.2-0.1,0.2-0.4,0-0.6l-2.3-1.5c-0.1-0.1-0.3,0-0.4,0.1c-0.3,0.6-0.9,1.1-1.6,1.1h-0.1c-0.6,0-1-0.6-0.8-1.2l1.6-4.1
		c0.3-0.7,1-1.1,1.7-1.1c0.6,0,1,0.6,0.8,1.2l0,0.1c-0.1,0.1,0.1,0.3,0.2,0.3h8.3c0.6,0,1.1,0.5,1.1,1.1c0,0.6-0.5,1.1-1.1,1.1h-0.5
		c-0.3,0-0.5,0.1-0.7,0.4l-1.7,2.2c-0.2,0.2-0.1,0.6,0.1,0.7l3.7,2.4c0.5,0.3,0.3,1.1-0.3,1.1h0c-1.3,0-2.6-0.4-3.8-1.1l-1.4-0.9
		c-0.3-0.2-0.6-0.2-0.9,0L114.3,23.2z M111.1,37.2c-0.6,0.2-1.2-0.2-1.2-0.8c0-0.8,0.5-1.4,1.2-1.7l9-3.3c0.6-0.2,1.1,0.2,1.1,0.8
		c0,0.8-0.4,1.4-1.1,1.7L111.1,37.2z M111.9,32.8c-0.6,0.2-1.2-0.2-1.2-0.8c0-0.8,0.5-1.4,1.1-1.7l6.7-2.5c0.6-0.2,1.2,0.2,1.2,0.8
		c0,0.8-0.5,1.4-1.2,1.7L111.9,32.8z M111.3,27.6c0-0.7,0.5-1.4,1.1-1.6l5.2-1.8c0.6-0.2,1.1,0.2,1.1,0.8c0,0.7-0.4,1.4-1.1,1.6
		l-5.2,1.8C111.8,28.7,111.3,28.3,111.3,27.6z M115.8,19c0.3,0.2,0.6,0.1,0.8-0.1l0.7-0.9c0.1-0.2,0-0.4-0.2-0.4h-3
		c-0.2,0-0.2,0.2-0.1,0.3L115.8,19z"/>
	<path class="st4" d="M130.3,25.2c-0.3,0-0.5,0.3-0.5,0.6V32c0,0.3,0.3,0.5,0.5,0.5h4.7c0.7,0,1.2,0.5,1.2,1.2
		c0,0.7-0.5,1.2-1.2,1.2h-5.7c-1.1,0-2-0.9-2-2v-8c0-1.1,0.9-2,2-2h3.6c0.3,0,0.5-0.2,0.5-0.5v-4.1c0-0.3-0.3-0.5-0.5-0.5h-4.5
		c-0.7,0-1.2-0.5-1.2-1.2s0.5-1.2,1.2-1.2h5.4c1.1,0,2,0.9,2,2v6c0,1.1-0.9,2-2,2H130.3z M150.1,36.5c0.3,0.5-0.1,1.2-0.7,1.2
		c-0.8,0-1.6-0.4-2-1.2l-2.4-4.5c-0.1-0.2-0.4-0.2-0.6,0l-2.6,4.5c-0.4,0.8-1.3,1.2-2.1,1.2c-0.6,0-1-0.7-0.7-1.2l4.1-7.1
		c0.2-0.3,0.2-0.6,0-1l-2.5-4.7c-0.1-0.1-0.3-0.1-0.3,0l-0.1,0.4c-0.1,0.7-0.8,1.2-1.5,1.2c-0.6,0-1.1-0.6-1-1.2l1.8-8.4
		c0.1-0.7,0.8-1.2,1.5-1.2c0.6,0,1.1,0.6,1,1.2l-0.3,1.3c-0.1,0.3,0.2,0.5,0.4,0.5h7.1c0.7,0,1.2,0.5,1.2,1.2v0.1
		c0,0.6-0.5,1.1-1.1,1.1c-0.2,0-0.3,0.1-0.4,0.3l-2.8,8c-0.1,0.3-0.1,0.7,0.1,1L150.1,36.5z M144.3,25.3c0.1,0.2,0.4,0.2,0.4,0
		l1.7-4.8c0.1-0.3-0.1-0.5-0.4-0.5h-4c-0.3,0-0.4,0.3-0.3,0.5L144.3,25.3z"/>
</g>
<text transform="matrix(1 0 0 1 50 -186)" class="st4" style="font-family:'Mamelon-83pv-RKSJ-H'; font-size:28px;">我的成就</text>
<text transform="matrix(1 0 0 1 -144 -227)" class="st4" style="font-family:'Mamelon-83pv-RKSJ-H'; font-size:28px;">訂單記針碌</text>
</svg>
