<?xml version="1.0" encoding="utf-8"?>
<!-- Generator: Adobe Illustrator 22.1.0, SVG Export Plug-In . SVG Version: 6.00 Build 0)  -->
<svg version="1.1" id="圖層_1" xmlns="http://www.w3.org/2000/svg" xmlns:xlink="http://www.w3.org/1999/xlink" x="0px" y="0px"
	 viewBox="0 0 181 48" style="enable-background:new 0 0 181 48;" xml:space="preserve">
<style type="text/css">
	.st0{fill:#BB7232;}
	.st1{fill:#EAAE07;}
	.st2{fill:#F9F3DC;}
	.st3{fill:#5B3824;}
	.st4{fill:#FFFFFF;}
</style>
<g>
	<path class="st0" d="M180.6,6.9H17.3c0.4,12.8,1.6,25.6,3,38.3h160.4L160.5,26L180.6,6.9z"/>
	<g>
		<g>
			<g>
				<g>
					<ellipse class="st1" cx="17.8" cy="18.4" rx="17.8" ry="18"/>
					<polygon class="st1" points="17.8,48.1 2.1,26.8 33.4,26.8 					"/>
				</g>
				<ellipse class="st2" cx="17.8" cy="18.4" rx="13.8" ry="14"/>
			</g>
		</g>
		<path class="st1" d="M15.3,14.8l2.4-2.5c0.1-0.1,0.2-0.1,0.2,0l2.4,2.5c0.1,0.1,0,0.3-0.1,0.3h-4.8C15.3,15.1,15.2,14.9,15.3,14.8
			z"/>
		<path class="st1" d="M15.9,15.8h3.8c0.2,0,0.3,0.3,0.2,0.3L18,18.2c-0.1,0.1-0.2,0.1-0.3,0l-1.9-2.1C15.6,16,15.7,15.8,15.9,15.8z
			"/>
		<ellipse class="st3" cx="23.7" cy="10.3" rx="1" ry="1"/>
		<ellipse class="st3" cx="11.8" cy="10.3" rx="1" ry="1"/>
	</g>
</g>
<g>
	<path class="st4" d="M43.4,21.2c-0.6,0-1.1-0.5-1.1-1.1s0.5-1.1,1.1-1.1h8.1c0.6,0,1.1,0.5,1.1,1.1s-0.5,1.1-1.1,1.1H43.4z
		 M45.3,38.8c-1.1,0-2-0.9-2-2v-4.6c0-1.1,0.9-2,2-2h4.4c1.1,0,2,0.9,2,2v4.6c0,1.1-0.9,2-2,2H45.3z M50.2,22.7
		c0.6,0,1.1,0.5,1.1,1.1c0,0.6-0.5,1.1-1.1,1.1h-5.4c-0.6,0-1.1-0.5-1.1-1.1c0-0.6,0.5-1.1,1.1-1.1H50.2z M44.8,28.7
		c-0.6,0-1.1-0.5-1.1-1.1s0.5-1.1,1.1-1.1h5.4c0.6,0,1.1,0.5,1.1,1.1s-0.5,1.1-1.1,1.1H44.8z M49.9,15.2c0.6,0,1.1,0.5,1.1,1.1
		c0,0.6-0.5,1.1-1.1,1.1h-4.8c-0.6,0-1.1-0.5-1.1-1.1c0-0.6,0.5-1.1,1.1-1.1H49.9z M46,32.3c-0.3,0-0.6,0.2-0.6,0.5v3.2
		c0,0.3,0.3,0.5,0.6,0.5H49c0.3,0,0.6-0.2,0.6-0.5v-3.2c0-0.3-0.3-0.5-0.6-0.5H46z M65.4,16.6c0.7,0,1.3,0.6,1.3,1.3
		s-0.6,1.3-1.3,1.3h-2.4c-0.3,0-0.6,0.2-0.6,0.5v17.9c0,0.7-0.5,1.2-1.2,1.2c-0.7,0-1.2-0.6-1.2-1.2V19.6c0-0.3-0.3-0.5-0.5-0.5H55
		c-0.7,0-1.3-0.6-1.3-1.3s0.6-1.3,1.3-1.3H65.4z"/>
	<path class="st4" d="M92.3,34.5c0.6,0,0.9,0.3,0.9,0.9s-0.3,0.9-0.9,0.9H84c-0.3,0-0.7,0.4-0.7,0.7v1.3c0,0.6-0.3,0.9-0.9,0.9
		c-0.6,0-0.9-0.3-0.9-0.9v-1.3c0-0.3-0.4-0.7-0.7-0.7h-8.2c-0.6,0-0.9-0.3-0.9-0.9s0.3-0.9,0.9-0.9h8.2c0.3,0,0.7-0.4,0.7-0.9v-0.4
		c0-0.3-0.4-0.8-0.7-0.8h-5.2c-1.3,0-2-0.7-2-1.8v-6.1c0-1.1,0.7-1.8,2-1.8h13.6c1.3,0,2,0.7,2,1.8v6.1c0,1.1-0.7,1.8-2,1.8H84
		c-0.3,0-0.7,0.4-0.7,0.8v0.4c0,0.4,0.4,0.9,0.7,0.9H92.3z M79.4,15.2c1.1,0,1.9,0.8,1.9,1.9V19c0,1.2-0.8,2-1.9,2h-4.9
		c-1.1,0-1.9-0.8-1.9-2v-1.9c0-1.1,0.8-1.9,1.9-1.9H79.4z M78.8,19.1c0.3,0,0.7-0.4,0.7-0.6v-0.8c0-0.3-0.4-0.7-0.7-0.7H75
		c-0.3,0-0.6,0.4-0.6,0.7v0.8c0,0.3,0.3,0.6,0.6,0.6H78.8z M81.5,25.2c0-0.3-0.4-0.7-0.7-0.7h-4.5c-0.3,0-0.7,0.4-0.7,0.7V26
		c0,0.3,0.4,0.7,0.7,0.7h4.5c0.3,0,0.7-0.4,0.7-0.7V25.2z M75.5,30c0,0.3,0.4,0.8,0.7,0.8h4.5c0.3,0,0.7-0.4,0.7-0.8v-0.7
		c0-0.3-0.4-0.8-0.7-0.8h-4.5c-0.3,0-0.7,0.4-0.7,0.8V30z M88.6,26.7c0.3,0,0.7-0.4,0.7-0.7v-0.7c0-0.3-0.4-0.7-0.7-0.7H84
		c-0.3,0-0.7,0.4-0.7,0.7V26c0,0.3,0.4,0.7,0.7,0.7H88.6z M83.3,30c0,0.3,0.4,0.8,0.7,0.8h4.6c0.3,0,0.7-0.4,0.7-0.8v-0.7
		c0-0.3-0.4-0.8-0.7-0.8H84c-0.3,0-0.7,0.4-0.7,0.8V30z M90.3,15.2c1.1,0,1.9,0.8,1.9,1.9V19c0,1.2-0.8,2-1.9,2h-4.9
		c-1.1,0-1.9-0.8-1.9-2v-1.9c0-1.1,0.8-1.9,1.9-1.9H90.3z M89.8,19.1c0.3,0,0.7-0.4,0.7-0.6v-0.8c0-0.3-0.4-0.7-0.7-0.7H86
		c-0.3,0-0.6,0.4-0.6,0.7v0.8c0,0.3,0.3,0.6,0.6,0.6H89.8z"/>
	<path class="st4" d="M109,20c0,0.7-0.6,1.2-1.2,1.2h-8.3c-0.7,0-1.2-0.5-1.2-1.2s0.5-1.2,1.2-1.2h8.3C108.4,18.8,109,19.4,109,20z
		 M108.1,36.8c0,1.1-0.9,2-2,2h-4.8c-1.1,0-2-0.9-2-2v-4.7c0-1.1,0.9-2,2-2h4.8c1.1,0,2,0.9,2,2V36.8z M107.6,23.8
		c0,0.6-0.5,1.2-1.2,1.2h-5.7c-0.6,0-1.1-0.5-1.1-1.2c0-0.6,0.5-1.1,1.1-1.1h5.7C107.1,22.6,107.6,23.2,107.6,23.8z M107.6,27.5
		c0,0.6-0.5,1.1-1.1,1.1h-5.7c-0.6,0-1.1-0.5-1.1-1.1s0.5-1.1,1.1-1.1h5.7C107.1,26.4,107.6,26.9,107.6,27.5z M107.3,16.3
		c0,0.6-0.5,1.1-1.1,1.1h-5c-0.6,0-1.1-0.5-1.1-1.1c0-0.6,0.5-1.1,1.1-1.1h5C106.8,15.2,107.3,15.7,107.3,16.3z M101.4,36.1
		c0,0.3,0.3,0.6,0.6,0.6h3.3c0.3,0,0.5-0.3,0.5-0.6v-3.2c0-0.3-0.2-0.5-0.5-0.5H102c-0.3,0-0.6,0.2-0.6,0.5V36.1z M122.6,37.1
		c0,0.7-0.6,1.2-1.3,1.2h-9c-1.1,0-2-0.9-2-2V25.2c0-1.1,0.9-2,2-2h4.8c0.3,0,0.6-0.2,0.6-0.5l0.7-4.2c0.1-0.3-0.2-0.5-0.4-0.5h-6.6
		c-0.7,0-1.2-0.6-1.2-1.2c0-0.7,0.6-1.3,1.2-1.3h8.1c1,0,1.8,1,1.7,2l-1.1,6.2c-0.2,1.1-1.2,2-2.4,2h-4.4c-0.3,0-0.5,0.3-0.5,0.5
		v9.1c0,0.3,0.3,0.5,0.5,0.5h8C122,35.9,122.6,36.4,122.6,37.1z"/>
	<path class="st4" d="M127.4,21.3c-0.6,0-0.9-0.7-0.5-1.2l3.4-3.6c0.8-0.8,2-0.8,2.8-0.1l3.3,3.2c0.4,0.4,0.1,1.2-0.5,1.2
		c-1.1,0-2.1-0.4-2.9-1.2l-0.9-0.9c-0.2-0.2-0.5-0.2-0.8,0l-1.2,1.3C129.4,20.9,128.4,21.3,127.4,21.3z M133.4,28.7
		c-0.3,0-0.5,0.2-0.5,0.5v5.3c0,0.3,0.3,0.5,0.5,0.4l2-0.4c0.6-0.1,1.2,0.3,1.2,1c0,0.7-0.5,1.3-1.2,1.5l-7.1,1.5
		c-0.6,0.1-1.2-0.4-1.2-1c0-0.7,0.5-1.3,1.2-1.5l1.8-0.3c0.3-0.1,0.5-0.3,0.5-0.6v-5.8c0-0.3-0.2-0.5-0.5-0.5h-2
		c-0.6,0-1.1-0.5-1.1-1.1c0-0.6,0.5-1.1,1.1-1.1h2c0.3,0,0.5-0.2,0.5-0.5v-1c0-0.3-0.2-0.5-0.5-0.5h-0.9c-0.6,0-1.1-0.5-1.1-1.1
		c0-0.6,0.5-1.1,1.1-1.1h5.1c0.6,0,1.1,0.5,1.1,1.1c0,0.6-0.5,1.1-1.1,1.1h-0.9c-0.3,0-0.5,0.3-0.5,0.5v1c0,0.3,0.3,0.5,0.5,0.5h1.7
		c0.6,0,1.1,0.5,1.1,1.1c0,0.6-0.5,1.1-1.1,1.1H133.4z M129.5,32.9c0.1,0.6-0.4,1.1-1,1.1c-0.6,0-1.2-0.5-1.3-1.1l-0.2-1.6
		c-0.1-0.6,0.4-1.1,1-1.1c0.6,0,1.2,0.5,1.3,1.1L129.5,32.9z M134.9,33.1c-0.6,0-1-0.5-0.9-1.1l0.1-0.8c0.1-0.6,0.6-1.1,1.3-1.1
		c0.6,0,1,0.5,0.9,1.1l-0.2,0.8C136.1,32.7,135.6,33.1,134.9,33.1z"/>
	<path class="st4" d="M132.5,25.1c-0.4,0-0.6,0.3-0.6,0.6v8.2c0,0.4,0.3,0.6,0.6,0.6h0.2c0.3,0,0.6-0.3,0.6-0.6v-8.2
		c0-0.3-0.3-0.6-0.6-0.6H132.5z M146.1,25.4c-0.3,0-0.6,0.3-0.6,0.6v0.1c0,0.4,0.1,0.7,0.2,1l1.2,2.4c0.1,0.3,0.4,0.3,0.6,0.1
		l0.1-0.1c0.6-0.7,1.4-1.1,2.3-1.1c0.5,0,0.8,0.6,0.4,1l-1.8,2.1c-0.2,0.3-0.3,0.7-0.1,1l2,4.2c0.3,0.5-0.1,1.1-0.6,1.1
		c-0.8,0-1.4-0.4-1.7-1.1l-2.2-4.5c-0.1-0.2-0.3-0.1-0.3,0.1v6.4c0,0.6-0.4,1-1.1,1c-0.6,0-1.1-0.4-1.1-1V26c0-0.3-0.3-0.6-0.6-0.6
		h-5c-0.6,0-1.1-0.5-1.1-1.1c0-0.6,0.5-1.1,1.1-1.1h6.2c0.3,0,0.7-0.2,0.8-0.6l0-0.1c0.1-0.3-0.2-0.6-0.4-0.6h-4.1
		c-1,0-1.7-0.9-1.3-1.9l0.9-2.7c0.4-1.1,1.4-1.9,2.6-1.9h5c1,0,1.7,1,1.3,1.9l-1.7,5.3c-0.1,0.3,0.1,0.6,0.4,0.6h2.8
		c0.6,0,1.1,0.4,1.1,1.1c0,0.6-0.4,1.1-1.1,1.1H146.1z M141.5,29c0.4,0.4,0.5,1.1,0.2,1.6c-0.3,0.5-1,0.5-1.3,0.1l-1.6-1.6
		c-0.4-0.3-0.1-1,0.4-1h0.4C140.2,28.2,140.9,28.5,141.5,29L141.5,29z M141.5,36.6c-0.5,0.7-1.2,1.1-2.1,1.1c-0.5,0-0.8-0.6-0.5-1
		l2.9-4c0.3-0.5,1-0.2,1,0.3v0.1c0,1.2-0.4,2.3-1,3.2L141.5,36.6z M141.3,19.3c-0.1,0.3,0.2,0.6,0.4,0.6h3.3c0.3,0,0.6-0.2,0.8-0.6
		l0.4-1.1c0.1-0.3-0.2-0.6-0.4-0.6h-3.3c-0.3,0-0.7,0.2-0.8,0.6L141.3,19.3z"/>
</g>
</svg>
