<?xml version="1.0" encoding="utf-8"?>
<!-- Generator: Adobe Illustrator 22.1.0, SVG Export Plug-In . SVG Version: 6.00 Build 0)  -->
<svg version="1.1" id="圖層_1" xmlns="http://www.w3.org/2000/svg" xmlns:xlink="http://www.w3.org/1999/xlink" x="0px" y="0px"
	 viewBox="0 0 181 48" style="enable-background:new 0 0 181 48;" xml:space="preserve">
<style type="text/css">
	.st0{fill:#BB7232;}
	.st1{fill:#EAAE07;}
	.st2{fill:#F9F3DC;}
	.st3{fill:#5B3824;}
	.st4{fill:#FFFFFF;}
</style>
<g>
	<path class="st0" d="M180.6,6.9H17.3c0.4,12.8,1.6,25.6,3,38.3h160.4L160.5,26L180.6,6.9z"/>
	<g>
		<g>
			<g>
				<g>
					<ellipse class="st1" cx="17.8" cy="18.4" rx="17.8" ry="18"/>
					<polygon class="st1" points="17.8,48.1 2.1,26.8 33.4,26.8 					"/>
				</g>
				<ellipse class="st2" cx="17.8" cy="18.4" rx="13.8" ry="14"/>
			</g>
		</g>
		<path class="st1" d="M15.3,14.8l2.4-2.5c0.1-0.1,0.2-0.1,0.2,0l2.4,2.5c0.1,0.1,0,0.3-0.1,0.3h-4.8C15.3,15.1,15.2,14.9,15.3,14.8
			z"/>
		<path class="st1" d="M15.9,15.8h3.8c0.2,0,0.3,0.3,0.2,0.3L18,18.2c-0.1,0.1-0.2,0.1-0.3,0l-1.9-2.1C15.6,16,15.7,15.8,15.9,15.8z
			"/>
		<ellipse class="st3" cx="23.7" cy="10.3" rx="1" ry="1"/>
		<ellipse class="st3" cx="11.8" cy="10.3" rx="1" ry="1"/>
	</g>
</g>
<g>
	<path class="st4" d="M65.9,22.8c0,0.7-0.5,1.2-1.2,1.2h-5.1c-0.3,0-0.4,0.3-0.3,0.5l0.9,2.7c0.1,0.2,0.3,0.2,0.4,0.1l0.1-0.2
		c0.6-0.8,1.5-1.2,2.4-1.2c0.6,0,1,0.7,0.6,1.2L61.7,30c-0.2,0.3-0.3,0.6-0.1,1l2.1,5.9c0.2,0.6-0.2,1.2-0.9,1.2
		c-0.8,0-1.5-0.5-1.7-1.2l-1.3-3.6c-0.1-0.2-0.4-0.3-0.5-0.1l-1.7,2.3c-0.6,0.8-1.5,1.2-2.4,1.2c-0.6,0-1-0.7-0.6-1.2l3.7-5.1
		c0.2-0.3,0.3-0.6,0.1-1l-1.8-5c-0.1-0.3-0.4-0.5-0.7-0.5h-6c-0.3,0-0.5,0.2-0.5,0.5v2.6c0,0.3,0.3,0.5,0.5,0.4l2.2-0.7
		c0.6-0.2,1.2,0.3,1.2,0.9c0,0.8-0.5,1.5-1.2,1.7l-2.2,0.7c-0.3,0.1-0.5,0.4-0.5,0.7v6.1c0,0.7-0.6,1.2-1.2,1.2
		c-0.6,0-1.2-0.5-1.2-1.2v-5.4c0-0.3-0.3-0.4-0.5-0.4l-2.6,0.9c-0.6,0.2-1.3-0.3-1.3-0.9c0-0.8,0.5-1.5,1.3-1.7l2.6-0.9
		c0.3-0.1,0.5-0.4,0.5-0.7v-3.4c0-0.3-0.2-0.5-0.5-0.5h-3.2c-0.7,0-1.2-0.6-1.2-1.2c0-0.7,0.5-1.2,1.2-1.2h3.2
		c0.3,0,0.5-0.2,0.5-0.5v-2c0-0.3-0.3-0.5-0.5-0.4L44.6,19c-0.6,0.1-1.2-0.3-1.2-1c0-0.7,0.5-1.3,1.2-1.5l6.4-1.3
		c0.6-0.1,1.2,0.3,1.2,1c0,0.7-0.5,1.4-1.2,1.5l-1,0.2c-0.3,0.1-0.5,0.3-0.5,0.6v2.5c0,0.3,0.2,0.5,0.5,0.5h5.6
		c0.3,0,0.5-0.2,0.5-0.5v-4.9c0-0.7,0.6-1.2,1.2-1.2c0.7,0,1.2,0.5,1.2,1.2v4.9c0,0.3,0.2,0.5,0.5,0.5h5.7
		C65.4,21.6,65.9,22.2,65.9,22.8z M64.2,18.2c0.3,0.6-0.1,1.2-0.7,1.2c-0.9,0-1.7-0.5-2.1-1.2l-0.7-1.1c-0.3-0.6,0.1-1.2,0.7-1.2
		c0.9,0,1.7,0.5,2.1,1.2L64.2,18.2z"/>
	<path class="st4" d="M74.4,15.4c0.6,0,1,0.6,0.8,1.1L75,17.4c-0.1,0.3,0.1,0.5,0.4,0.5h1.5c1.1,0,2,0.9,2,2v12.7c0,1.1-0.9,2-2,2
		h-4.2c-1.1,0-2-0.9-2-2V19.4c0-0.8,0.6-1.5,1.5-1.5c0.2,0,0.4-0.2,0.5-0.4l0.3-1C73.2,15.9,73.7,15.4,74.4,15.4z M76.3,24.7
		c0.3,0,0.6-0.3,0.6-0.6v-3.6c0-0.3-0.3-0.5-0.6-0.5h-3c-0.3,0-0.5,0.3-0.5,0.5v3.6c0,0.3,0.3,0.6,0.5,0.6H76.3z M72.8,32
		c0,0.3,0.3,0.6,0.5,0.6h3c0.3,0,0.6-0.3,0.6-0.6v-4.4c0-0.3-0.3-0.5-0.6-0.5h-3c-0.3,0-0.5,0.2-0.5,0.5V32z M84.4,17
		c-0.1,0.3,0.1,0.5,0.4,0.5h6.7c1.1,0,2,1,1.9,2l-0.8,10.1l0,0.2L90.5,37c-0.2,0.7-0.8,1.2-1.6,1.2c-0.6,0-1.1-0.6-0.9-1.2l2.1-7.3
		c0.1-0.4,0.2-0.7,0.2-1.1l0.6-8.2c0-0.3-0.2-0.5-0.5-0.5h-6.1c-0.3,0-0.6,0.2-0.7,0.5L83,22.8c-0.2,0.7-0.8,1.2-1.5,1.2
		c-0.6,0-1.1-0.6-1-1.2l1.6-6.8c0.2-0.7,0.8-1.2,1.5-1.2c0.6,0,1.1,0.6,1,1.2L84.4,17z M85.4,23.8c0.8,0,1.4,0.5,1.7,1.2l0.8,2.8
		c0.2,0.6-0.3,1.2-0.9,1.2c-0.8,0-1.4-0.5-1.6-1.2l-0.8-2.8C84.3,24.5,84.7,23.8,85.4,23.8z"/>
	<path class="st4" d="M120.1,23.8c0.6,0,1,0.7,0.6,1.2l-3.2,5c-0.2,0.3-0.2,0.7-0.1,1l2,6.2c0.2,0.6-0.3,1.2-0.9,1.2
		c-0.8,0-1.4-0.5-1.7-1.2l-1.1-3.6c-0.1-0.2-0.3-0.3-0.4-0.1l-1.8,2.8c-0.5,0.8-1.3,1.2-2.2,1.2c-0.6,0-1-0.7-0.6-1.2l3.8-5.8
		c0.2-0.3,0.2-0.6,0.1-1l-2.8-8.5c-0.1-0.3-0.4-0.5-0.7-0.5h-8.7c-0.3,0-0.5,0.3-0.5,0.6v3c0,0.3,0.2,0.5,0.5,0.5h4.6
		c1.1,0,2,1,1.9,2l-0.5,5.9c-0.1,0.7-0.6,1.2-1.3,1.2c-0.7,0-1.2-0.6-1.1-1.2l0.4-5c0-0.3-0.2-0.6-0.5-0.6h-3.7
		c-0.3,0-0.6,0.3-0.6,0.6l-0.8,9.6c-0.1,0.7-0.6,1.2-1.3,1.2c-0.6,0-1.1-0.6-1.1-1.2l1.1-12.7V20c0-1.1,0.9-2,2-2h9.3
		c0.3,0,0.6-0.2,0.6-0.5v-1.8c0-0.7,0.5-1.2,1.2-1.2s1.2,0.5,1.2,1.2v1.8c0,0.3,0.3,0.5,0.5,0.5h5.8c0.7,0,1.2,0.5,1.2,1.2
		s-0.5,1.2-1.2,1.2h-5.3c-0.3,0-0.4,0.3-0.4,0.5l1.9,6c0.1,0.2,0.3,0.2,0.4,0.1l1.3-2C118.4,24.2,119.2,23.8,120.1,23.8z M119.4,16
		c0.2,0.5-0.1,1-0.7,1h-0.4c-0.7,0-1.3-0.4-1.6-1c-0.2-0.5,0.1-1.1,0.7-1.1h0.4C118.4,14.9,119.1,15.4,119.4,16z"/>
	<path class="st4" d="M137,16.8c0.6,0,1.2,0.5,1.2,1.2c0,0.6-0.5,1.2-1.2,1.2h-9.9c-0.6,0-1.2-0.5-1.2-1.2c0-0.7,0.5-1.2,1.2-1.2
		h3.3c0.2,0,0.4-0.2,0.4-0.4v-0.3c0-0.7,0.6-1.2,1.2-1.2c0.7,0,1.2,0.5,1.2,1.2v0.3c0,0.2,0.2,0.4,0.4,0.4H137z M127.6,36.2
		c-0.6,0-1.1-0.6-1-1.2l0.6-3.6c0.1-0.7,0.7-1.2,1.4-1.2c0.7,0,1.1,0.6,1,1.2L129,35C128.9,35.7,128.3,36.2,127.6,36.2z M134.7,20.7
		c1.1,0,2,0.9,2,2v2.9c0,1.1-0.9,2-2,2h-0.9c-0.3,0-0.6,0.3-0.6,0.6v8.8c0,0.7-0.5,1.2-1.2,1.2c-0.6,0-1.2-0.5-1.2-1.2v-8.8
		c0-0.3-0.2-0.6-0.5-0.6h-0.9c-1.1,0-2-0.9-2-2v-2.9c0-1.1,0.9-2,2-2H134.7z M134.1,25.5c0.3,0,0.5-0.3,0.5-0.6v-1.6
		c0-0.3-0.2-0.5-0.5-0.5h-4c-0.3,0-0.6,0.3-0.6,0.5V25c0,0.3,0.3,0.6,0.6,0.6H134.1z M134.6,31.5c-0.1-0.6,0.4-1.2,1-1.2
		c0.7,0,1.3,0.5,1.5,1.2l0.3,1.8c0.1,0.6-0.4,1.2-1,1.2c-0.7,0-1.3-0.5-1.5-1.2L134.6,31.5z M149.8,21.3c0,0.6-0.5,1.2-1.1,1.2h-3.9
		c-0.3,0-0.6,0.2-0.6,0.5l-0.1,0.6c0,0.2,0.1,0.3,0.3,0.3c0.7,0,1.3,0.6,1.3,1.3v9.5c0,0.3,0.2,0.5,0.5,0.5h2.1
		c0.6,0,1.1,0.5,1.1,1.1c0,0.6-0.5,1.1-1.1,1.1h-2.9c-1.1,0-2-0.9-2-2l0-7.7c0-0.1-0.1-0.1-0.1,0l-1.9,9c-0.1,0.6-0.7,1.1-1.4,1.1
		c-0.6,0-1-0.5-0.9-1.1l2.8-13.7c0.1-0.3-0.1-0.5-0.4-0.5h-2c-0.6,0-1.1-0.5-1.1-1.2c0-0.6,0.5-1.1,1.1-1.1h2.4
		c0.3,0,0.5-0.3,0.5-0.6v-3.4c0-0.6,0.5-1.1,1.1-1.1c0.6,0,1.1,0.5,1.1,1.1v3.4c0,0.3,0.2,0.6,0.5,0.6h3.6
		C149.3,20.1,149.8,20.6,149.8,21.3z M148.9,17.3c0.3,0.6-0.2,1.2-0.8,1.2c-0.8,0-1.5-0.5-1.8-1.2l-0.3-0.6
		c-0.3-0.6,0.2-1.2,0.8-1.2c0.8,0,1.5,0.5,1.8,1.2L148.9,17.3z"/>
</g>
<text transform="matrix(1 0 0 1 -144 -227)" class="st4" style="font-family:'Mamelon-83pv-RKSJ-H'; font-size:28px;">訂單記針碌</text>
</svg>
