<?xml version="1.0" encoding="utf-8"?>
<!-- Generator: Adobe Illustrator 22.1.0, SVG Export Plug-In . SVG Version: 6.00 Build 0)  -->
<svg version="1.1" id="圖層_1" xmlns="http://www.w3.org/2000/svg" xmlns:xlink="http://www.w3.org/1999/xlink" x="0px" y="0px"
	 viewBox="0 0 181 48" style="enable-background:new 0 0 181 48;" xml:space="preserve">
<style type="text/css">
	.st0{fill:#BB7232;}
	.st1{fill:#EAAE07;}
	.st2{fill:#F9F3DC;}
	.st3{fill:#5B3824;}
	.st4{fill:#FFFFFF;}
</style>
<g>
	<path class="st0" d="M180.6,6.9H17.3c0.4,12.8,1.6,25.6,3,38.3h160.4L160.5,26L180.6,6.9z"/>
	<g>
		<g>
			<g>
				<g>
					<ellipse class="st1" cx="17.8" cy="18.4" rx="17.8" ry="18"/>
					<polygon class="st1" points="17.8,48.1 2.1,26.8 33.4,26.8 					"/>
				</g>
				<ellipse class="st2" cx="17.8" cy="18.4" rx="13.8" ry="14"/>
			</g>
		</g>
		<path class="st1" d="M15.3,14.8l2.4-2.5c0.1-0.1,0.2-0.1,0.2,0l2.4,2.5c0.1,0.1,0,0.3-0.1,0.3h-4.8C15.3,15.1,15.2,14.9,15.3,14.8
			z"/>
		<path class="st1" d="M15.9,15.8h3.8c0.2,0,0.3,0.3,0.2,0.3L18,18.2c-0.1,0.1-0.2,0.1-0.3,0l-1.9-2.1C15.6,16,15.7,15.8,15.9,15.8z
			"/>
		<ellipse class="st3" cx="23.7" cy="10.3" rx="1" ry="1"/>
		<ellipse class="st3" cx="11.8" cy="10.3" rx="1" ry="1"/>
	</g>
</g>
<g>
	<path class="st4" d="M66.2,26.6c0.6,0,1.1,0.5,1.1,1.1s-0.5,1.1-1.1,1.1h-2.5c-0.2,0-0.4,0.3-0.2,0.4l2.9,3.9
		c0.3,0.4,0,1.1-0.6,1.1c-0.9,0-1.7-0.4-2.2-1.1l-2.9-3.9c-0.2-0.3-0.5-0.4-0.9-0.4H51c-0.3,0-0.6,0.2-0.9,0.4l-2.9,3.9
		c-0.5,0.7-1.3,1.1-2.2,1.1c-0.6,0-0.9-0.6-0.6-1.1l2.9-3.9c0.1-0.2,0-0.4-0.2-0.4h-3c-0.6,0-1.1-0.5-1.1-1.1s0.5-1.1,1.1-1.1h4
		c0.3,0,0.5-0.2,0.5-0.5v-8c0-0.3-0.3-0.5-0.5-0.5h-2.8c-0.6,0-1.1-0.5-1.1-1.1c0-0.6,0.5-1.1,1.1-1.1h3.1c0.1,0,0.3-0.1,0.3-0.3
		c0-0.6,0.4-1,1-1h0.1c0.5,0,1,0.4,1,1c0,0.1,0.1,0.3,0.3,0.3h8.2c0.1,0,0.3-0.1,0.3-0.3c0-0.6,0.4-1,1-1h0.1c0.5,0,1,0.4,1,1
		c0,0.1,0.1,0.3,0.3,0.3H65c0.6,0,1.1,0.5,1.1,1.1c0,0.6-0.5,1.1-1.1,1.1h-2.8c-0.3,0-0.5,0.2-0.5,0.5v8c0,0.3,0.3,0.5,0.5,0.5H66.2
		z M56.8,33.8c-0.3,0-0.5,0.2-0.5,0.5v1.2c0,0.3,0.3,0.5,0.5,0.5h6.3c0.6,0,1.1,0.5,1.1,1.1s-0.5,1.1-1.1,1.1H47.3
		c-0.6,0-1.1-0.5-1.1-1.1s0.5-1.1,1.1-1.1h6.3c0.3,0,0.5-0.2,0.5-0.5v-1.2c0-0.3-0.3-0.5-0.5-0.5h-3.2c-0.6,0-1-0.5-1-1
		c0-0.6,0.4-1,1-1h3.2c0.3,0,0.5-0.2,0.5-0.5v-0.8c0-0.6,0.5-1,1-1c0.6,0,1,0.4,1,1v0.8c0,0.3,0.2,0.5,0.5,0.5H60c0.6,0,1,0.4,1,1
		c0,0.6-0.4,1-1,1H56.8z M59.6,18.1c0-0.3-0.3-0.5-0.5-0.5h-7.6c-0.3,0-0.6,0.2-0.6,0.5v0.5c0,0.3,0.3,0.5,0.6,0.5h7.6
		c0.3,0,0.5-0.3,0.5-0.5V18.1z M51.4,21.3c-0.3,0-0.6,0.2-0.6,0.5v0.5c0,0.3,0.3,0.5,0.6,0.5h7.6c0.3,0,0.5-0.2,0.5-0.5v-0.5
		c0-0.3-0.3-0.5-0.5-0.5H51.4z M51.4,25.1c-0.3,0-0.6,0.2-0.6,0.5v0.5c0,0.3,0.3,0.5,0.6,0.5h7.6c0.3,0,0.5-0.2,0.5-0.5v-0.5
		c0-0.3-0.3-0.5-0.5-0.5H51.4z"/>
	<path class="st4" d="M93.5,32.1c-1,0-1.8-0.4-2.5-1.2l-6.4-8c-0.3-0.1-0.6-0.1-0.6,0.2v7.4c0,0.4,0.3,0.7,0.7,0.7h2.7
		c0.7,0,1.1,0.4,1.1,1.1c0,0.6-0.4,1.1-1.1,1.1h-2.7c-0.4,0-0.7,0.5-0.7,0.8V37c0,0.6-0.4,1-1.1,1s-1-0.4-1-1v-2.9
		c0-0.3-0.4-0.8-0.7-0.8h-2.7c-0.6,0-1.1-0.4-1.1-1.1c0-0.7,0.4-1.1,1.1-1.1h2.7c0.3,0,0.7-0.4,0.7-0.7v-7.2c0-0.3-0.4-0.4-0.6-0.2
		l-6,7.9c-0.6,0.8-1.3,1.2-2.4,1.2c-0.5,0-0.9-0.6-0.5-1l7.8-10.3c0.1-0.3,0-0.7-0.3-0.7h-7.1c-0.7,0-1.1-0.4-1.1-1.3
		c0-0.6,0.4-1.1,1.1-1.1h8.3c0.3,0,0.7-0.3,0.7-0.6v-1.5c0-0.6,0.4-1,1-1s1.1,0.4,1.1,1v1.5c0,0.3,0.3,0.6,0.7,0.6h8.3
		c0.7,0,1.1,0.4,1.1,1.1c0,0.8-0.4,1.3-1.1,1.3h-7c-0.3,0-0.4,0.4-0.3,0.7L94,31.1C94.4,31.5,94.1,32.1,93.5,32.1z"/>
	<path class="st4" d="M103.5,15.4c0.6,0.2,1.1,0.8,1.1,1.4c0,0.6-0.5,1-1.1,0.8l-1.6-0.4c-0.6-0.2-1.1-0.8-1.1-1.4
		c0-0.6,0.5-1,1.1-0.8L103.5,15.4z M104.6,20.2c0.6,0,0.9,0.6,0.6,1.1l-0.9,1.3c-0.4,0.7-1.2,1.1-2.1,1.1c-0.6,0-0.9-0.6-0.6-1.1
		l0.8-1.3C103,20.6,103.7,20.2,104.6,20.2z M102.6,38.4c-0.5,0-0.7-0.6-0.3-0.9c0.8-0.6,1.7-0.9,2.7-0.9h0.8c0.5,0,0.6,0.6,0.3,0.9
		c-0.8,0.6-1.7,0.9-2.7,0.9H102.6z M104.9,35.3c-1.1,0-2-0.9-2-2v-6.7c0-1.1,0.9-2,2-2h12.7c1.1,0,2,0.9,2,2v6.7c0,1.1-0.9,2-2,2
		H104.9z M117.6,27c0-0.3-0.2-0.5-0.5-0.5h-11.8c-0.3,0-0.5,0.2-0.5,0.5c0,0.3,0.2,0.5,0.5,0.5h11.8C117.4,27.5,117.6,27.3,117.6,27
		z M104.9,29.9c0,0.3,0.2,0.5,0.5,0.5h11.7c0.3,0,0.5-0.2,0.5-0.5s-0.2-0.5-0.5-0.5h-11.7C105.1,29.4,104.9,29.6,104.9,29.9z
		 M104.9,32.8c0,0.3,0.2,0.5,0.5,0.5h11.7c0.3,0,0.5-0.2,0.5-0.5s-0.2-0.5-0.5-0.5h-11.7C105.1,32.3,104.9,32.5,104.9,32.8z
		 M110.6,17c-0.2,0-0.3,0.1-0.4,0.3c-0.3,0.6-0.9,1-1.5,1h-0.1c-0.6,0-1-0.6-0.8-1.1l0.8-2.1c0.3-0.7,0.9-1.1,1.6-1.1h0.4
		c0.4,0,0.6,0.4,0.5,0.7c-0.1,0.1,0,0.2,0.1,0.2h8.6c0.9,0,1.6,0.8,1.5,1.7l-0.1,0.7c-0.1,0.6-0.6,1.1-1.3,1.1h0
		c-0.6,0-1-0.5-0.9-1.1c0-0.1-0.1-0.3-0.3-0.3H110.6z M115.3,19.2c0,0.3,0.2,0.6,0.4,0.7l3.7,2.4c0.5,0.3,0.3,1-0.3,1
		c-1.2,0-2.4-0.3-3.4-1l-1-0.7c-0.3-0.2-0.6-0.2-0.9,0l-0.8,0.6c-0.9,0.7-1.9,1-3,1c-0.4,0-0.7-0.7-0.3-1l3.3-2.6
		c0.2-0.2,0.3-0.4,0.3-0.6v-0.5c0-0.6,0.4-1,1-1c0.5,0,1,0.4,1,1V19.2z M118,36.7c1,0,1.9,0.3,2.7,0.9c0.3,0.2,0.1,0.9-0.3,0.9h-0.8
		c-1,0-1.9-0.3-2.7-0.9c-0.3-0.2-0.1-0.9,0.3-0.9H118z"/>
	<path class="st4" d="M132.7,14.4c0.6,0,1.2,0.5,1.2,1.2v7c0,0.3,0.3,0.5,0.5,0.5h2.4c0.6,0,1.2,0.5,1.2,1.2c0,0.6-0.5,1.2-1.2,1.2
		h-0.6c-0.2,0-0.4,0.2-0.3,0.4l0.9,2.1c0.3,0.6-0.2,1.2-0.8,1.2c-0.8,0-1.5-0.5-1.8-1.2l-0.2-0.4c0-0.1-0.2-0.1-0.2,0.1v9
		c0,0.7-0.5,1.2-1.2,1.2c-0.7,0-1.2-0.5-1.2-1.2l0-8.4c0-0.1-0.1-0.1-0.2,0l-1.3,4.1c-0.2,0.7-0.9,1.2-1.6,1.2
		c-0.6,0-1.1-0.6-0.9-1.2l2-6.6c0.1-0.3-0.1-0.5-0.3-0.5h-0.6c-0.6,0-1.2-0.5-1.2-1.2c0-0.7,0.5-1.2,1.2-1.2h2.4
		c0.3,0,0.5-0.3,0.5-0.5v-7C131.5,15,132.1,14.4,132.7,14.4z M130.5,20.2c0.1,0.6-0.3,1.1-0.9,1.1c-0.7,0-1.3-0.5-1.4-1.1l-0.5-2.2
		c-0.1-0.6,0.3-1.1,0.9-1.1c0.7,0,1.3,0.5,1.4,1.1L130.5,20.2z M136.6,16.9c0.6,0,1.1,0.6,1,1.2l-0.4,2.2c-0.1,0.6-0.7,1.1-1.3,1.1
		c-0.6,0-1.1-0.6-1-1.1l0.4-2.2C135.4,17.4,136,16.9,136.6,16.9z M149.5,28.1c0.6-0.1,1.2,0.3,1.2,1c0,0.7-0.5,1.3-1.2,1.5l-0.3,0.1
		c-0.3,0.1-0.4,0.3-0.4,0.5v5.6c0,0.7-0.6,1.2-1.2,1.2c-0.7,0-1.2-0.6-1.2-1.2v-5c0-0.3-0.3-0.5-0.5-0.4l-5.2,1.2
		c-0.6,0.1-1.2-0.3-1.2-1c0-0.7,0.5-1.4,1.2-1.5l5.2-1.2c0.3-0.1,0.5-0.3,0.5-0.7V15.7c0-0.7,0.5-1.2,1.2-1.2c0.7,0,1.2,0.6,1.2,1.2
		v12.2c0,0.2,0.2,0.4,0.4,0.3L149.5,28.1z M143.8,24.8c0.3,0.5-0.1,1.2-0.6,1.2c-0.9,0-1.7-0.4-2.2-1.2l-0.7-1.1
		c-0.3-0.5,0-1.2,0.6-1.2c0.9,0,1.7,0.4,2.2,1.2L143.8,24.8z M144.7,18.5c0.3,0.5-0.1,1.2-0.7,1.2c-0.8,0-1.6-0.4-2.1-1.2l-0.8-1.2
		c-0.3-0.5,0.1-1.2,0.7-1.2c0.8,0,1.7,0.4,2.1,1.2L144.7,18.5z"/>
</g>
<text transform="matrix(1 0 0 1 22 -126)" class="st4" style="font-family:'Mamelon-83pv-RKSJ-H'; font-size:28px;">密碼修改</text>
<text transform="matrix(1 0 0 1 50 -186)" class="st4" style="font-family:'Mamelon-83pv-RKSJ-H'; font-size:28px;">我的成就</text>
<text transform="matrix(1 0 0 1 -144 -227)" class="st4" style="font-family:'Mamelon-83pv-RKSJ-H'; font-size:28px;">訂單記針碌</text>
</svg>
