<?xml version="1.0" encoding="utf-8"?>
<!-- Generator: Adobe Illustrator 22.1.0, SVG Export Plug-In . SVG Version: 6.00 Build 0)  -->
<svg version="1.1" id="圖層_1" xmlns="http://www.w3.org/2000/svg" xmlns:xlink="http://www.w3.org/1999/xlink" x="0px" y="0px"
	 viewBox="0 0 181 48" style="enable-background:new 0 0 181 48;" xml:space="preserve">
<style type="text/css">
	.st0{fill:#BB7232;}
	.st1{fill:#EAAE07;}
	.st2{fill:#F9F3DC;}
	.st3{fill:#5B3824;}
	.st4{display:none;}
	.st5{display:inline;fill:#FFFFFF;}
	.st6{fill:#FFFFFF;}
</style>
<g>
	<path class="st0" d="M180.6,6.9H17.3c0.4,12.8,1.6,25.6,3,38.3h160.4L160.5,26L180.6,6.9z"/>
	<g>
		<g>
			<g>
				<g>
					<ellipse class="st1" cx="17.8" cy="18.4" rx="17.8" ry="18"/>
					<polygon class="st1" points="17.8,48.1 2.1,26.8 33.4,26.8 					"/>
				</g>
				<ellipse class="st2" cx="17.8" cy="18.4" rx="13.8" ry="14"/>
			</g>
		</g>
		<path class="st1" d="M15.3,14.8l2.4-2.5c0.1-0.1,0.2-0.1,0.2,0l2.4,2.5c0.1,0.1,0,0.3-0.1,0.3h-4.8C15.3,15.1,15.2,14.9,15.3,14.8
			z"/>
		<path class="st1" d="M15.9,15.8h3.8c0.2,0,0.3,0.3,0.2,0.3L18,18.2c-0.1,0.1-0.2,0.1-0.3,0l-1.9-2.1C15.6,16,15.7,15.8,15.9,15.8z
			"/>
		<ellipse class="st3" cx="23.7" cy="10.3" rx="1" ry="1"/>
		<ellipse class="st3" cx="11.8" cy="10.3" rx="1" ry="1"/>
	</g>
</g>
<g class="st4">
	<path class="st5" d="M46.7,13.9c0.7,0,1.2,0.5,1.2,1.2v2.7c0,0.3,0.2,0.6,0.5,0.6h0.9c0.7,0,1.2,0.5,1.2,1.2s-0.5,1.2-1.2,1.2h-0.9
		c-0.3,0-0.5,0.3-0.5,0.5v3.2c0,0.2,0.2,0.4,0.4,0.3l0.6-0.3c0.6-0.3,1.2,0.1,1.2,0.7c0,0.8-0.4,1.5-1.1,1.8l-0.6,0.3
		c-0.3,0.1-0.4,0.4-0.4,0.7v9.2c0,0.6-0.5,1.2-1.2,1.2c-0.6,0-1.2-0.5-1.2-1.2v-8c0-0.3-0.3-0.4-0.5-0.3l-0.8,0.4
		c-0.5,0.3-1.2-0.1-1.2-0.7c0-0.8,0.5-1.5,1.2-1.8l0.8-0.4c0.3-0.1,0.5-0.4,0.5-0.8v-4.3c0-0.3-0.3-0.5-0.5-0.5h-0.8
		c-0.6,0-1.2-0.5-1.2-1.2s0.6-1.2,1.2-1.2H45c0.3,0,0.5-0.3,0.5-0.5v-2.7C45.5,14.4,46,13.9,46.7,13.9z M62.5,31.7
		c-0.3,0-0.6,0.3-0.6,0.6v2.5c0,0.3,0.3,0.5,0.6,0.5H66c0.7,0,1.2,0.5,1.2,1.2c0,0.6-0.5,1.2-1.2,1.2l-10.6,0c-1.1,0-2-0.9-2-2V23.5
		c0-0.3-0.2-0.5-0.5-0.5c-0.9,0-1.5-0.9-1.1-1.7l2.6-5.6c0.3-0.7,1-1.1,1.8-1.1c0.6,0,1,0.6,0.8,1.1l-1.1,2.5
		c-0.1,0.3,0.1,0.5,0.3,0.5h2.9c0.3,0,0.6-0.2,0.8-0.5l1.1-2.4c0.3-0.7,1.1-1.2,1.9-1.2c0.6,0,1,0.6,0.8,1.2l-1.1,2.4
		c-0.1,0.3,0.1,0.5,0.3,0.5H66c0.7,0,1.2,0.5,1.2,1.2c0,0.6-0.5,1.2-1.2,1.2h-3.5c-0.3,0-0.6,0.3-0.6,0.5v2c0,0.3,0.3,0.5,0.6,0.5
		h2.8c0.7,0,1.2,0.5,1.2,1.2c0,0.6-0.5,1.2-1.2,1.2h-2.8c-0.3,0-0.6,0.3-0.6,0.5v1.8c0,0.3,0.3,0.6,0.6,0.6h2.8
		c0.6,0,1.2,0.5,1.2,1.2c0,0.6-0.5,1.2-1.2,1.2H62.5z M59.6,21.6c0-0.3-0.2-0.5-0.5-0.5h-2.8c-0.3,0-0.5,0.3-0.5,0.5v2
		c0,0.3,0.3,0.5,0.5,0.5h2.8c0.3,0,0.5-0.3,0.5-0.5V21.6z M59.1,29.4c0.3,0,0.5-0.3,0.5-0.6V27c0-0.3-0.2-0.5-0.5-0.5h-2.8
		c-0.3,0-0.5,0.3-0.5,0.5v1.8c0,0.3,0.3,0.6,0.5,0.6H59.1z M56.3,31.7c-0.3,0-0.5,0.3-0.5,0.6v2.5c0,0.3,0.3,0.5,0.5,0.5h2.8
		c0.3,0,0.5-0.3,0.5-0.5v-2.5c0-0.3-0.2-0.6-0.5-0.6H56.3z"/>
	<path class="st5" d="M83.5,17.6c0.6,0,1,0.4,1,1c0,0.2,0.2,0.3,0.3,0.3h8.7c0.6,0,1,0.5,1,1.1c0,0.6-0.4,1-1,1H88
		c-0.3,0-0.6,0.3-0.6,0.6v0.2c0,0.3,0.3,0.6,0.6,0.6h2.7c1.1,0,2,0.9,2,2v1c0,1.1-0.9,2-2,2h-9.3c-0.3,0-0.6,0.2-0.6,0.5
		c0,0.3,0.2,0.5,0.5,0.5h11c0.5,0,0.9,0.4,0.9,1c0,0.6-0.4,1-0.9,1H80.9c-0.3,0-0.6,0.2-0.7,0.6c0,0.3,0.2,0.6,0.5,0.6h11.8
		c1.1,0,2,0.9,1.9,2l0,3.4c0,0.6-0.4,1-1,1c-0.6,0-1-0.4-1-1l0.1-2.8c0-0.3-0.3-0.6-0.6-0.6H79.7c-1.1,0-1.8-1-1.6-2l0.6-3.5
		c0.1-0.3-0.2-0.6-0.5-0.6h-1.3c-0.5,0-0.9-0.4-0.9-0.9s0.4-0.9,0.9-0.9h1.7c0.3,0,0.6-0.3,0.6-0.6v-0.2c0-0.3-0.3-0.6-0.6-0.6h-1.7
		c-0.5,0-0.9-0.4-0.9-0.9s0.4-0.9,0.9-0.9h1.7c0.3,0,0.6-0.3,0.6-0.6v-0.2c0-0.3-0.3-0.6-0.6-0.6h-3.2c-0.3,0-0.6,0.3-0.6,0.6v2.5
		L73.5,37c-0.1,0.6-0.5,1-1.1,1c-0.6,0-1-0.4-0.9-1l1.2-13v-3c0-1.1,0.8-2,2-2h7.6c0.2,0,0.3-0.2,0.3-0.3C82.6,18,83,17.6,83.5,17.6
		z M88.5,14.7c0,0.1,0.1,0.3,0.3,0.3h5.2c0.6,0,1,0.4,1,1c0,0.6-0.4,1-1,1h-5.2c-0.1,0-0.3,0.1-0.3,0.3c0,0.4-0.3,0.7-0.7,0.7h-0.6
		c-0.4,0-0.7-0.3-0.7-0.7c0-0.2-0.2-0.3-0.3-0.3h-5.9c-0.1,0-0.3,0.1-0.3,0.3c0,0.4-0.3,0.7-0.8,0.7h-0.6c-0.4,0-0.8-0.3-0.8-0.7
		c0-0.1-0.1-0.3-0.3-0.3h-5.2c-0.6,0-1-0.4-1-1c0-0.6,0.4-1,1-1h5.2c0.2,0,0.3-0.2,0.3-0.3c0-0.4,0.3-0.8,0.8-0.8h0.5
		c0.4,0,0.8,0.3,0.8,0.8c0,0.1,0.1,0.3,0.3,0.3h5.9c0.1,0,0.3-0.2,0.3-0.3c0-0.4,0.3-0.8,0.8-0.8h0.5C88.2,13.9,88.5,14.2,88.5,14.7
		z M76.4,37.6c-0.5,0-1-0.5-0.8-1l0.2-1c0.1-0.6,0.7-1,1.3-1c0.6,0,1,0.5,0.8,1l-0.2,1C77.6,37.2,77,37.6,76.4,37.6z M79.9,35.5
		c-0.1-0.6,0.4-1,1-1c0.6,0,1.1,0.4,1.1,1l0.1,0.9c0.1,0.6-0.4,1-1,1c-0.6,0-1.1-0.4-1.1-1L79.9,35.5z M84.7,22.4
		c0.3,0,0.6-0.3,0.6-0.6v-0.2c0-0.3-0.3-0.6-0.6-0.6h-2.9c-0.3,0-0.6,0.3-0.6,0.6v0.2c0,0.3,0.3,0.6,0.6,0.6H84.7z M81.8,24.2
		c-0.3,0-0.6,0.3-0.6,0.6V25c0,0.3,0.3,0.6,0.6,0.6h2.9c0.3,0,0.6-0.3,0.6-0.6v-0.2c0-0.3-0.3-0.6-0.6-0.6H81.8z M84,35.5
		c-0.1-0.5,0.3-1,0.8-1c0.6,0,1.1,0.4,1.3,1l0.1,0.4c0.1,0.5-0.3,1-0.8,1c-0.6,0-1.1-0.4-1.3-1L84,35.5z M90.9,24.8
		c0-0.3-0.3-0.6-0.6-0.6H88c-0.3,0-0.6,0.3-0.6,0.6V25c0,0.3,0.3,0.6,0.6,0.6h2.3c0.3,0,0.6-0.3,0.6-0.6V24.8z M87.9,35.4
		c-0.1-0.5,0.2-1,0.7-1h0.2c0.6,0,1.1,0.4,1.3,1c0.1,0.5-0.2,1-0.7,1h-0.2C88.6,36.4,88.1,36,87.9,35.4z"/>
	<path class="st5" d="M105,17.1c-0.3-0.2-0.6-0.2-1,0l-1.3,1.3c-0.8,0.7-1.7,1.2-2.7,1.2c-0.5,0-0.8-0.8-0.4-1.1l3.4-3.3
		c0.8-0.8,2.9-0.1,2.9-0.1l3.9,3.4c0.4,0.3,0.2,1.1-0.4,1.1c-1.1,0-2.2-0.4-3-1.2L105,17.1z M105.9,32.7c-0.1-0.6,0.3-1.1,0.8-1.1
		c0.7,0,1.3,0.5,1.5,1.1l1.2,4.1c0.2,0.6-0.2,1.1-0.8,1.1c-0.7,0-1.3-0.4-1.5-1.1l-0.1-0.2c-0.1-0.3-0.3-0.4-0.5-0.3l-4.6,1.2
		c-1,0.3-1.9-0.4-1.9-1.5V22.9c0-1.1,0.8-2,2-2h1.1c0.2,0,0.5-0.3,0.5-0.5V20c0-0.6,0.4-1.1,1.1-1.1c0.6,0,1.1,0.5,1.1,1.1v0.5
		c0,0.2,0.3,0.5,0.5,0.5h0.7c1.1,0,2,0.9,2,2v5.2c0,1.1-0.9,2-2,2h-4.3c-0.3,0-0.6,0.3-0.6,0.6v4.1c0,0.3,0.3,0.5,0.6,0.4l3.1-0.8
		c0.4-0.1,0.5-0.4,0.4-0.7L105.9,32.7z M107,23.6c0-0.3-0.3-0.6-0.6-0.6h-3.6c-0.3,0-0.6,0.3-0.6,0.6v0.3c0,0.3,0.3,0.6,0.6,0.6h3.6
		c0.3,0,0.6-0.3,0.6-0.6V23.6z M102.1,27.4c0,0.3,0.3,0.6,0.6,0.6h3.6c0.3,0,0.6-0.3,0.6-0.6v-0.2c0-0.3-0.3-0.6-0.6-0.6h-3.6
		c-0.3,0-0.6,0.3-0.6,0.6V27.4z M123.3,36.5c0.3,0.5-0.1,1.2-0.6,1.2c-0.9,0-1.6-0.5-2-1.2l-1.1-1.9c-0.1-0.3-0.5-0.3-0.6,0
		l-0.9,1.9c-0.3,0.7-1,1.2-1.9,1.2c-0.6,0-1-0.6-0.7-1.2l2.1-4.6c0.1-0.3,0.2-0.7,0-1l-2.7-7c-0.1-0.3-0.3-0.4-0.6-0.4
		c-0.2,0-0.4,0.2-0.4,0.4l-0.4,13c0,0.6-0.5,1.1-1.1,1.1c-0.6,0-1.1-0.5-1.1-1.1l0.6-20.2c0-1.1,0.9-2,2-2h8.4
		c0.6,0,1.1,0.4,1.1,1.1s-0.5,1.1-1.1,1.1h-7.6c-0.3,0-0.6,0.3-0.6,0.6l-0.1,3.1c0,0.3,0.3,0.6,0.6,0.6h6.2c1,0,1.7,0.9,1.5,1.9
		l-1.8,7.6c-0.1,0.3,0,0.7,0.1,1L123.3,36.5z M119.6,24.1c0.1-0.3-0.2-0.6-0.5-0.6h-1.4c-0.3,0-0.5,0.3-0.4,0.6l1.1,2.8
		c0.1,0.2,0.4,0.2,0.4,0L119.6,24.1z"/>
	<path class="st5" d="M127.3,16.2c0-1.1,0.8-2,2-2h19.9c1.1,0,2,0.8,2,2v20.1c0,1.1-0.8,2-2,2h-19.9c-1.1,0-2-0.9-2-2V16.2z
		 M148.5,36.1c0.3,0,0.6-0.3,0.6-0.6V17c0-0.3-0.3-0.6-0.6-0.6H130c-0.3,0-0.6,0.3-0.6,0.6v18.6c0,0.3,0.3,0.6,0.6,0.6H148.5z
		 M143.1,35.1c-0.5,0-0.8-0.4-0.8-0.8v-1.8c0-0.3-0.3-0.5-0.5-0.5h-9.8c-0.5,0-0.8-0.4-0.8-0.8c0-0.5,0.4-0.8,0.8-0.8H142
		c0.1,0,0.2-0.1,0.2-0.2c0-0.4,0.3-0.7,0.7-0.7h0.2c0.4,0,0.7,0.3,0.7,0.7c0,0.1,0.1,0.2,0.2,0.2h2.5c0.5,0,0.8,0.4,0.8,0.8
		c0,0.4-0.4,0.8-0.8,0.8h-2.2c-0.3,0-0.5,0.2-0.5,0.5v1.8C143.9,34.7,143.5,35.1,143.1,35.1z M145.9,29.4c-0.3,0-0.6-0.1-0.7-0.4
		c0-0.1-0.1-0.1-0.2-0.1L132.5,29c-0.4,0-0.8-0.4-0.8-0.8c0-0.5,0.4-0.8,0.8-0.8l5.5-0.1c0.3,0,0.5-0.2,0.5-0.5
		c0-0.3-0.2-0.5-0.5-0.5h-3.8c-1.1,0-2-0.9-2-2v-1.4c0-1.1,0.9-2,2-2h4c0.2,0,0.3-0.1,0.3-0.3c0-0.2-0.2-0.3-0.3-0.3h-5.5
		c-0.5,0-0.8-0.4-0.8-0.8c0-0.4,0.4-0.8,0.8-0.8h5.6c0.1,0,0.3-0.1,0.3-0.3v-0.1c0-0.4,0.4-0.8,0.8-0.8s0.8,0.4,0.8,0.8v0.1
		c0,0.1,0.1,0.3,0.2,0.3h5.6c0.5,0,0.8,0.4,0.8,0.8c0,0.5-0.4,0.8-0.8,0.8h-5.5c-0.2,0-0.3,0.1-0.3,0.3c0,0.2,0.1,0.3,0.3,0.3h4
		c1.1,0,2,0.9,2,2v1.4c0,1.1-0.9,2-2,2h-3.9c-0.3,0-0.5,0.2-0.5,0.5c0,0.3,0.2,0.5,0.5,0.5l3.7,0c0,0,0.1-0.1,0.1-0.1
		c-0.1-0.2,0.1-0.3,0.2-0.3h0.6c0.6,0,1.1,0.3,1.3,0.8l0.4,1c0.2,0.4-0.1,0.8-0.5,0.8H145.9z M138.4,22.5c0-0.2-0.1-0.3-0.3-0.3
		h-4.3c-0.2,0-0.3,0.1-0.3,0.3c0,0.2,0.1,0.3,0.3,0.3h4.3C138.3,22.8,138.4,22.7,138.4,22.5z M133.5,24.6c0,0.2,0.1,0.3,0.3,0.3h4.3
		c0.2,0,0.3-0.1,0.3-0.3s-0.1-0.3-0.3-0.3h-4.3C133.6,24.2,133.5,24.4,133.5,24.6z M135.4,33c-0.3-0.3-0.1-0.7,0.3-0.7
		c0.6,0,1.3,0.3,1.7,0.7l0.5,0.5c0.3,0.3,0.1,0.7-0.3,0.7c-0.6,0-1.2-0.3-1.7-0.7L135.4,33z M145,22.5c0-0.2-0.1-0.3-0.3-0.3h-4.3
		c-0.2,0-0.3,0.1-0.3,0.3c0,0.2,0.1,0.3,0.3,0.3h4.3C144.9,22.8,145,22.7,145,22.5z M140.1,24.6c0,0.2,0.1,0.3,0.3,0.3h4.3
		c0.2,0,0.3-0.1,0.3-0.3s-0.1-0.3-0.3-0.3h-4.3C140.2,24.2,140.1,24.4,140.1,24.6z"/>
</g>
<g>
	<path class="st6" d="M61.7,15c0,0.2,0.1,0.3,0.3,0.3h5c0.6,0,1.1,0.5,1.1,1.1c0,0.6-0.5,1.1-1.1,1.1h-5c-0.2,0-0.3,0.1-0.3,0.3v0
		c0,0.6-0.5,1.1-1.1,1.1c-0.6,0-1.1-0.5-1.1-1.1v0c0-0.2-0.1-0.3-0.3-0.3h-5.6c-0.2,0-0.3,0.1-0.3,0.3v0c0,0.6-0.5,1.1-1.1,1.1
		S51,18.4,51,17.8v0c0-0.2-0.1-0.3-0.3-0.3h-5c-0.6,0-1.1-0.5-1.1-1.1c0-0.6,0.5-1.1,1.1-1.1h5c0.2,0,0.3-0.1,0.3-0.3v0
		c0-0.6,0.5-1.1,1.1-1.1s1.1,0.5,1.1,1.1v0c0,0.2,0.1,0.3,0.3,0.3h5.6c0.2,0,0.3-0.1,0.3-0.3v0c0-0.6,0.5-1.1,1.1-1.1
		C61.1,13.8,61.7,14.3,61.7,15L61.7,15z M56.4,27.3c0.6,0,1.1,0.5,1.1,1.1c0,0.1,0.1,0.3,0.3,0.3h8.5c0.6,0,1.1,0.5,1.1,1.1
		c0,0.6-0.5,1.1-1.1,1.1h-5.6c-0.2,0-0.3,0.2-0.1,0.4l4.1,4c0.4,0.4,0.1,1.1-0.4,1.1c-1.1,0-2.1-0.4-2.9-1.1L57.8,32
		c-0.1-0.1-0.4,0-0.4,0.2v4.9c0,0.6-0.5,1.1-1.1,1.1c-0.6,0-1.1-0.5-1.1-1.1v-4.6c0-0.2-0.3-0.3-0.4-0.2l-3.2,3.1
		c-0.8,0.7-1.8,1.1-2.9,1.1c-0.5,0-0.9-0.8-0.5-1.1l4.2-4c0.1-0.1,0-0.4-0.2-0.4h-5.9c-0.6,0-1.1-0.5-1.1-1.1c0-0.6,0.5-1.1,1.1-1.1
		h8.5c0.2,0,0.3-0.1,0.3-0.3c0-0.6,0.5-1.1,1.1-1.1H56.4z M48.6,23c-0.6,0-1.1-0.5-1.1-1.1c0-0.6,0.5-1.2,1.1-1.2l15-0.8
		c0.6,0,1.1,0.4,1.1,1.1s-0.5,1.1-1.1,1.2L48.6,23z M50.5,27c-0.7,0-1.4-0.4-1.6-1.1l-0.2-0.4c-0.2-0.6,0.2-1.1,0.8-1.1
		c0.8,0,1.4,0.5,1.7,1.1l0.2,0.4C51.5,26.4,51,27,50.5,27z M56.5,26.3c-0.7,0-1.4-0.4-1.6-1.1l-0.2-0.5c-0.2-0.5,0.2-1.1,0.8-1.1
		c0.7,0,1.4,0.4,1.7,1.1l0.2,0.5C57.5,25.7,57.1,26.3,56.5,26.3z M61.8,27c-0.6,0-0.9-0.6-0.6-1.1l0.8-1.5c0.4-0.7,1.1-1.1,1.9-1.1
		c0.6,0,1,0.6,0.7,1.1l-0.9,1.5C63.4,26.6,62.7,27,61.8,27z"/>
	<path class="st6" d="M95.8,18.4c0,0.6-0.5,1.1-1.1,1.1H81.4c-0.3,0-0.6,0.2-0.7,0.5l-0.5,2.2c-0.1,0.3,0.1,0.5,0.4,0.5h10.2
		c1,0,1.6,1,1.2,1.8l-3.6,7.5c-0.1,0.3-0.1,0.6,0.2,0.8l4.7,3.6c0.5,0.4,0.2,1.2-0.4,1.2c-1.3,0-2.5-0.4-3.6-1.2l-2.5-1.9
		c-0.3-0.2-0.6-0.2-0.8,0.1l-1.8,1.8c-0.8,0.8-1.8,1.2-2.9,1.2c-0.6,0-0.9-0.8-0.5-1.2l3.6-3.6c0.2-0.2,0.3-0.6,0.1-0.8l-4.2-6.6
		c-0.1-0.1-0.3-0.3-0.5-0.3c-0.2,0-0.3,0.1-0.4,0.3l-2.3,10.3C77,36.5,76.4,37,75.7,37c-0.6,0-1.1-0.6-0.9-1.2L78.3,20
		c0.1-0.3-0.2-0.5-0.4-0.5h-4c-0.6,0-1.1-0.5-1.1-1.1s0.5-1.2,1.1-1.2h4.5c0.3,0,0.6-0.2,0.7-0.5l0.3-1.4c0.2-0.7,0.8-1.2,1.5-1.2
		c0.6,0,1.1,0.6,0.9,1.2l-0.3,1.4c-0.1,0.3,0.1,0.5,0.4,0.5h12.7C95.3,17.2,95.8,17.7,95.8,18.4z M86.2,30.1c0.1,0.2,0.4,0.2,0.5,0
		l2.1-4.4c0.1-0.2-0.1-0.5-0.3-0.5h-4.9c-0.2,0-0.4,0.3-0.3,0.4L86.2,30.1z"/>
	<path class="st6" d="M109.2,24.5c-0.4,0-0.8-0.3-0.9-0.8c0-0.1-0.2-0.2-0.3-0.2l-5,1c-1,0.2-2-0.5-2-1.6v-5c0-1.2,0.8-2.2,2-2.5
		l4.3-1c0.6-0.1,1.1,0.3,1.1,0.9c0,0.7-0.5,1.3-1.1,1.4l-3.5,0.8c-0.3,0.1-0.6,0.4-0.6,0.7v3.4c0,0.3,0.3,0.5,0.6,0.5l3.6-0.7
		c0.2-0.1,0.4-0.3,0.3-0.5l-0.1-0.3c-0.1-0.6,0.3-1.1,1-1.1c0.6,0,1.2,0.5,1.3,1.1l0.4,2.7c0.1,0.6-0.3,1.1-0.9,1.1H109.2z
		 M105.3,37.6c-1.1,0-2-0.9-2-2v-7.1c0-1.1,0.9-2,2-2h14.2c1.1,0,2,0.9,2,2v7.1c0,1.1-0.9,2-2,2H105.3z M111.2,29.3
		c0-0.3-0.3-0.6-0.6-0.6h-4.6c-0.3,0-0.6,0.3-0.6,0.6v1.1c0,0.3,0.3,0.6,0.6,0.6h4.6c0.3,0,0.6-0.3,0.6-0.6V29.3z M106.1,33.2
		c-0.3,0-0.6,0.3-0.6,0.6v1.1c0,0.3,0.3,0.6,0.6,0.6h4.6c0.3,0,0.6-0.3,0.6-0.6v-1.1c0-0.3-0.3-0.6-0.6-0.6H106.1z M111.9,16.5
		c0-0.6,0.5-1.1,1.1-1.1h8.5c1.1,0,2,0.9,2,2v6.3c0,0.6-0.5,1.1-1.1,1.1c-0.6,0-1.1-0.5-1.1-1.1v-5.5c0-0.3-0.3-0.6-0.6-0.6h-2
		c-0.3,0-0.6,0.2-0.7,0.6l-1.3,4.9c-0.2,0.6-0.8,1.1-1.5,1.1c-0.6,0-1-0.5-0.8-1.1l1.3-4.9c0.1-0.3-0.1-0.6-0.4-0.6h-2.2
		C112.4,17.6,111.9,17.1,111.9,16.5z M118.6,30.9c0.3,0,0.6-0.3,0.6-0.6v-1.1c0-0.3-0.3-0.6-0.6-0.6H114c-0.3,0-0.6,0.3-0.6,0.6v1.1
		c0,0.3,0.3,0.6,0.6,0.6H118.6z M113.5,34.8c0,0.3,0.3,0.6,0.6,0.6h4.6c0.3,0,0.6-0.3,0.6-0.6v-1.1c0-0.3-0.3-0.6-0.6-0.6H114
		c-0.3,0-0.6,0.3-0.6,0.6V34.8z"/>
	<path class="st6" d="M129.2,19.5c0-0.7,0.5-1.2,1.2-1.2h19.7c0.7,0,1.2,0.5,1.2,1.2c0,0.6-0.5,1.2-1.2,1.2h-19.7
		C129.8,20.7,129.2,20.2,129.2,19.5z M134.8,38.1c-1.1,0-2-0.9-2-2v-4.3c0-1.1,0.9-2,2-2h11c1.1,0,2,0.9,2,2v4.3c0,1.1-0.9,2-2,2
		H134.8z M146.2,22.1c0.7,0,1.2,0.5,1.2,1.2c0,0.7-0.5,1.2-1.2,1.2h-11.8c-0.7,0-1.2-0.5-1.2-1.2c0-0.6,0.5-1.2,1.2-1.2H146.2z
		 M134.4,28.2c-0.6,0-1.2-0.5-1.2-1.2c0-0.6,0.5-1.2,1.2-1.2h11.9c0.6,0,1.2,0.5,1.2,1.2c0,0.6-0.5,1.2-1.2,1.2H134.4z M145.5,14.6
		c0.6,0,1.2,0.5,1.2,1.2c0,0.6-0.5,1.2-1.2,1.2h-10.4c-0.7,0-1.2-0.5-1.2-1.2c0-0.7,0.5-1.2,1.2-1.2H145.5z M135.6,32.1
		c-0.3,0-0.6,0.3-0.6,0.5v2.7c0,0.3,0.3,0.5,0.6,0.5h9.5c0.3,0,0.6-0.3,0.6-0.5v-2.7c0-0.3-0.3-0.5-0.6-0.5H135.6z"/>
</g>
</svg>
