<?xml version="1.0" encoding="utf-8"?>
<!-- Generator: Adobe Illustrator 21.1.0, SVG Export Plug-In . SVG Version: 6.00 Build 0)  -->
<svg version="1.1" id="圖層_1" xmlns="http://www.w3.org/2000/svg" xmlns:xlink="http://www.w3.org/1999/xlink" x="0px" y="0px"
	 viewBox="0 0 100 100" style="enable-background:new 0 0 100 100;" xml:space="preserve">
<style type="text/css">
	.st0{fill:#724527;}
	.st1{fill:#FFE000;}
	.st2{fill:#FFF9D9;}
</style>
<g>
	<ellipse class="st0" cx="13.5" cy="69.7" rx="12" ry="11.6"/>
	<ellipse class="st0" cx="86.5" cy="69.7" rx="12" ry="11.6"/>
	<path class="st1" d="M86.2,74.3c-0.2,0-0.4,0-0.6,0c-4.2-0.3-7.3-4-6.9-8.3c1.1-15.1-6-23-12.1-27c-9.6-6.2-23.1-6.5-32.8-0.8
		C27.6,41.9,20.4,49.5,21,65c0.2,4.3-3.1,7.9-7.3,8S6,69.9,5.8,65.6c-0.7-17.9,6.7-32.7,20.4-40.8c14.6-8.6,34-8.2,48.4,1.1
		C88.1,34.6,95,49.6,93.7,67.2C93.4,71.2,90.1,74.3,86.2,74.3z"/>
	<path class="st2" d="M79.6,40.1c-0.7,0-1.5-0.3-2-1c-5.3-6.7-11.4-10.6-18.6-12c-1.4-0.2-2.3-1.6-2-3c0.2-1.4,1.5-2.3,2.9-2.1
		c8.5,1.5,15.6,6.1,21.7,13.8c0.9,1.1,0.7,2.7-0.4,3.6C80.7,39.9,80.2,40.1,79.6,40.1z"/>
</g>
</svg>
