<?xml version="1.0" encoding="utf-8"?>
<!-- Generator: Adobe Illustrator 22.1.0, SVG Export Plug-In . SVG Version: 6.00 Build 0)  -->
<svg version="1.1" id="圖層_1" xmlns="http://www.w3.org/2000/svg" xmlns:xlink="http://www.w3.org/1999/xlink" x="0px" y="0px"
	 viewBox="0 0 616 926" style="enable-background:new 0 0 616 926;" xml:space="preserve">
<style type="text/css">
	.st0{fill:#F9E6C5;}
	.st1{fill:#FFFFFF;}
	.st2{opacity:0.15;}
</style>
<g>
	<path class="st0" d="M616,0H0v926h616V0z"/>
	<path class="st1" d="M18,438.9c-0.8,0-1.4,0.6-1.4,1.4v11c0,0.8,0.6,1.4,1.4,1.4s1.4-0.6,1.4-1.4v-11
		C19.3,439.5,18.7,438.9,18,438.9z"/>
	<path class="st1" d="M18,395c-0.8,0-1.4,0.6-1.4,1.4v11c0,0.8,0.6,1.4,1.4,1.4s1.4-0.6,1.4-1.4v-11C19.3,395.6,18.7,395,18,395z"/>
	<path class="st1" d="M18,460.8c-0.8,0-1.4,0.6-1.4,1.4v11c0,0.8,0.6,1.4,1.4,1.4s1.4-0.6,1.4-1.4v-11
		C19.3,461.4,18.7,460.8,18,460.8z"/>
	<path class="st1" d="M18,351.2c-0.8,0-1.4,0.6-1.4,1.4v11c0,0.8,0.6,1.4,1.4,1.4s1.4-0.6,1.4-1.4v-11
		C19.3,351.8,18.7,351.2,18,351.2z"/>
	<path class="st1" d="M18,329.2c-0.8,0-1.4,0.6-1.4,1.4v11c0,0.8,0.6,1.4,1.4,1.4s1.4-0.6,1.4-1.4v-11
		C19.3,329.8,18.7,329.2,18,329.2z"/>
	<path class="st1" d="M18,482.7c-0.8,0-1.4,0.6-1.4,1.4v11c0,0.8,0.6,1.4,1.4,1.4s1.4-0.6,1.4-1.4v-11
		C19.3,483.3,18.7,482.7,18,482.7z"/>
	<path class="st1" d="M18,373.1c-0.8,0-1.4,0.6-1.4,1.4v11c0,0.8,0.6,1.4,1.4,1.4s1.4-0.6,1.4-1.4v-11
		C19.3,373.7,18.7,373.1,18,373.1z"/>
	<path class="st1" d="M18,592.4c-0.8,0-1.4,0.6-1.4,1.4v11c0,0.8,0.6,1.4,1.4,1.4s1.4-0.6,1.4-1.4v-11C19.3,593,18.7,592.4,18,592.4
		z"/>
	<path class="st1" d="M18,570.4c-0.8,0-1.4,0.6-1.4,1.4v11c0,0.8,0.6,1.4,1.4,1.4s1.4-0.6,1.4-1.4v-11
		C19.3,571.1,18.7,570.4,18,570.4z"/>
	<path class="st1" d="M18,504.7c-0.8,0-1.4,0.6-1.4,1.4v11c0,0.8,0.6,1.4,1.4,1.4s1.4-0.6,1.4-1.4v-11
		C19.3,505.3,18.7,504.7,18,504.7z"/>
	<path class="st1" d="M18,614.3c-0.8,0-1.4,0.6-1.4,1.4v11c0,0.8,0.6,1.4,1.4,1.4s1.4-0.6,1.4-1.4v-11
		C19.3,614.9,18.7,614.3,18,614.3z"/>
	<path class="st1" d="M18,307.3c-0.8,0-1.4,0.6-1.4,1.4v11c0,0.8,0.6,1.4,1.4,1.4s1.4-0.6,1.4-1.4v-11
		C19.3,307.9,18.7,307.3,18,307.3z"/>
	<path class="st1" d="M18,548.5c-0.8,0-1.4,0.6-1.4,1.4v11c0,0.8,0.6,1.4,1.4,1.4s1.4-0.6,1.4-1.4v-11
		C19.3,549.1,18.7,548.5,18,548.5z"/>
	<path class="st1" d="M18,526.6c-0.8,0-1.4,0.6-1.4,1.4v11c0,0.8,0.6,1.4,1.4,1.4s1.4-0.6,1.4-1.4v-11
		C19.3,527.2,18.7,526.6,18,526.6z"/>
	<path class="st1" d="M18,416.9c-0.8,0-1.4,0.6-1.4,1.4v11c0,0.8,0.6,1.4,1.4,1.4s1.4-0.6,1.4-1.4v-11
		C19.3,417.6,18.7,416.9,18,416.9z"/>
	<path class="st1" d="M18,131.9c-0.8,0-1.4,0.6-1.4,1.4v11c0,0.8,0.6,1.4,1.4,1.4s1.4-0.6,1.4-1.4v-11
		C19.3,132.5,18.7,131.9,18,131.9z"/>
	<path class="st1" d="M18,285.4c-0.8,0-1.4,0.6-1.4,1.4v11c0,0.8,0.6,1.4,1.4,1.4s1.4-0.6,1.4-1.4v-11C19.3,286,18.7,285.4,18,285.4
		z"/>
	<path class="st1" d="M18,109.9c-0.8,0-1.4,0.6-1.4,1.4v11c0,0.8,0.6,1.4,1.4,1.4s1.4-0.6,1.4-1.4v-11
		C19.3,110.6,18.7,109.9,18,109.9z"/>
	<path class="st1" d="M18,88c-0.8,0-1.4,0.6-1.4,1.4v11c0,0.8,0.6,1.4,1.4,1.4s1.4-0.6,1.4-1.4v-11C19.3,88.6,18.7,88,18,88z"/>
	<path class="st1" d="M18,44.2c-0.8,0-1.4,0.6-1.4,1.4v11c0,0.8,0.6,1.4,1.4,1.4s1.4-0.6,1.4-1.4v-11C19.3,44.8,18.7,44.2,18,44.2z"
		/>
	<path class="st1" d="M18,0.3c-0.8,0-1.4,0.6-1.4,1.4v11c0,0.8,0.6,1.4,1.4,1.4s1.4-0.6,1.4-1.4v-11C19.3,0.9,18.7,0.3,18,0.3z"/>
	<path class="st1" d="M18,22.2c-0.8,0-1.4,0.6-1.4,1.4v11c0,0.8,0.6,1.4,1.4,1.4s1.4-0.6,1.4-1.4v-11C19.3,22.8,18.7,22.2,18,22.2z"
		/>
	<path class="st1" d="M18,66.1c-0.8,0-1.4,0.6-1.4,1.4v11c0,0.8,0.6,1.4,1.4,1.4s1.4-0.6,1.4-1.4v-11C19.3,66.7,18.7,66.1,18,66.1z"
		/>
	<path class="st1" d="M18,197.7c-0.8,0-1.4,0.6-1.4,1.4v11c0,0.8,0.6,1.4,1.4,1.4s1.4-0.6,1.4-1.4v-11
		C19.3,198.3,18.7,197.7,18,197.7z"/>
	<path class="st1" d="M18,241.5c-0.8,0-1.4,0.6-1.4,1.4v11c0,0.8,0.6,1.4,1.4,1.4s1.4-0.6,1.4-1.4v-11
		C19.3,242.1,18.7,241.5,18,241.5z"/>
	<path class="st1" d="M18,219.6c-0.8,0-1.4,0.6-1.4,1.4v11c0,0.8,0.6,1.4,1.4,1.4s1.4-0.6,1.4-1.4v-11
		C19.3,220.2,18.7,219.6,18,219.6z"/>
	<path class="st1" d="M18,263.4c-0.8,0-1.4,0.6-1.4,1.4v11c0,0.8,0.6,1.4,1.4,1.4s1.4-0.6,1.4-1.4v-11
		C19.3,264.1,18.7,263.4,18,263.4z"/>
	<path class="st1" d="M18,153.8c-0.8,0-1.4,0.6-1.4,1.4v11c0,0.8,0.6,1.4,1.4,1.4s1.4-0.6,1.4-1.4v-11
		C19.3,154.4,18.7,153.8,18,153.8z"/>
	<path class="st1" d="M18,175.7c-0.8,0-1.4,0.6-1.4,1.4v11c0,0.8,0.6,1.4,1.4,1.4s1.4-0.6,1.4-1.4v-11
		C19.3,176.3,18.7,175.7,18,175.7z"/>
	<path class="st1" d="M18,768.9c-0.8,0-1.4,0.6-1.4,1.4v11c0,0.8,0.6,1.4,1.4,1.4s1.4-0.6,1.4-1.4v-11
		C19.3,769.5,18.7,768.9,18,768.9z"/>
	<path class="st1" d="M18,746.9c-0.8,0-1.4,0.6-1.4,1.4v11c0,0.8,0.6,1.4,1.4,1.4s1.4-0.6,1.4-1.4v-11
		C19.3,747.6,18.7,746.9,18,746.9z"/>
	<path class="st1" d="M18,725c-0.8,0-1.4,0.6-1.4,1.4v11c0,0.8,0.6,1.4,1.4,1.4s1.4-0.6,1.4-1.4v-11C19.3,725.6,18.7,725,18,725z"/>
	<path class="st1" d="M18,681.2c-0.8,0-1.4,0.6-1.4,1.4v11c0,0.8,0.6,1.4,1.4,1.4s1.4-0.6,1.4-1.4v-11
		C19.3,681.8,18.7,681.2,18,681.2z"/>
	<path class="st1" d="M18,637.3c-0.8,0-1.4,0.6-1.4,1.4v11c0,0.8,0.6,1.4,1.4,1.4s1.4-0.6,1.4-1.4v-11
		C19.3,637.9,18.7,637.3,18,637.3z"/>
	<path class="st1" d="M18,659.2c-0.8,0-1.4,0.6-1.4,1.4v11c0,0.8,0.6,1.4,1.4,1.4s1.4-0.6,1.4-1.4v-11
		C19.3,659.8,18.7,659.2,18,659.2z"/>
	<path class="st1" d="M18,703.1c-0.8,0-1.4,0.6-1.4,1.4v11c0,0.8,0.6,1.4,1.4,1.4s1.4-0.6,1.4-1.4v-11
		C19.3,703.7,18.7,703.1,18,703.1z"/>
	<path class="st1" d="M18,834.7c-0.8,0-1.4,0.6-1.4,1.4v11c0,0.8,0.6,1.4,1.4,1.4s1.4-0.6,1.4-1.4v-11
		C19.3,835.3,18.7,834.7,18,834.7z"/>
	<path class="st1" d="M18,878.5c-0.8,0-1.4,0.6-1.4,1.4v11c0,0.8,0.6,1.4,1.4,1.4s1.4-0.6,1.4-1.4v-11
		C19.3,879.1,18.7,878.5,18,878.5z"/>
	<path class="st1" d="M18,856.6c-0.8,0-1.4,0.6-1.4,1.4v11c0,0.8,0.6,1.4,1.4,1.4s1.4-0.6,1.4-1.4v-11
		C19.3,857.2,18.7,856.6,18,856.6z"/>
	<path class="st1" d="M18,900.4c-0.8,0-1.4,0.6-1.4,1.4v11c0,0.8,0.6,1.4,1.4,1.4s1.4-0.6,1.4-1.4v-11
		C19.3,901.1,18.7,900.4,18,900.4z"/>
	<path class="st1" d="M18,790.8c-0.8,0-1.4,0.6-1.4,1.4v11c0,0.8,0.6,1.4,1.4,1.4s1.4-0.6,1.4-1.4v-11
		C19.3,791.4,18.7,790.8,18,790.8z"/>
	<path class="st1" d="M18,812.7c-0.8,0-1.4,0.6-1.4,1.4v11c0,0.8,0.6,1.4,1.4,1.4s1.4-0.6,1.4-1.4v-11
		C19.3,813.3,18.7,812.7,18,812.7z"/>
	<path class="st1" d="M601,439.9c-0.8,0-1.4,0.6-1.4,1.4v11c0,0.8,0.6,1.4,1.4,1.4s1.4-0.6,1.4-1.4v-11
		C602.3,440.5,601.7,439.9,601,439.9z"/>
	<path class="st1" d="M601,396c-0.8,0-1.4,0.6-1.4,1.4v11c0,0.8,0.6,1.4,1.4,1.4s1.4-0.6,1.4-1.4v-11C602.3,396.6,601.7,396,601,396
		z"/>
	<path class="st1" d="M601,461.8c-0.8,0-1.4,0.6-1.4,1.4v11c0,0.8,0.6,1.4,1.4,1.4s1.4-0.6,1.4-1.4v-11
		C602.3,462.4,601.7,461.8,601,461.8z"/>
	<path class="st1" d="M601,352.2c-0.8,0-1.4,0.6-1.4,1.4v11c0,0.8,0.6,1.4,1.4,1.4s1.4-0.6,1.4-1.4v-11
		C602.3,352.8,601.7,352.2,601,352.2z"/>
	<path class="st1" d="M601,330.2c-0.8,0-1.4,0.6-1.4,1.4v11c0,0.8,0.6,1.4,1.4,1.4s1.4-0.6,1.4-1.4v-11
		C602.3,330.8,601.7,330.2,601,330.2z"/>
	<path class="st1" d="M601,483.7c-0.8,0-1.4,0.6-1.4,1.4v11c0,0.8,0.6,1.4,1.4,1.4s1.4-0.6,1.4-1.4v-11
		C602.3,484.3,601.7,483.7,601,483.7z"/>
	<path class="st1" d="M601,374.1c-0.8,0-1.4,0.6-1.4,1.4v11c0,0.8,0.6,1.4,1.4,1.4s1.4-0.6,1.4-1.4v-11
		C602.3,374.7,601.7,374.1,601,374.1z"/>
	<path class="st1" d="M601,593.4c-0.8,0-1.4,0.6-1.4,1.4v11c0,0.8,0.6,1.4,1.4,1.4s1.4-0.6,1.4-1.4v-11
		C602.3,594,601.7,593.4,601,593.4z"/>
	<path class="st1" d="M601,571.4c-0.8,0-1.4,0.6-1.4,1.4v11c0,0.8,0.6,1.4,1.4,1.4s1.4-0.6,1.4-1.4v-11
		C602.3,572.1,601.7,571.4,601,571.4z"/>
	<path class="st1" d="M601,505.7c-0.8,0-1.4,0.6-1.4,1.4v11c0,0.8,0.6,1.4,1.4,1.4s1.4-0.6,1.4-1.4v-11
		C602.3,506.3,601.7,505.7,601,505.7z"/>
	<path class="st1" d="M601,615.3c-0.8,0-1.4,0.6-1.4,1.4v11c0,0.8,0.6,1.4,1.4,1.4s1.4-0.6,1.4-1.4v-11
		C602.3,615.9,601.7,615.3,601,615.3z"/>
	<path class="st1" d="M601,308.3c-0.8,0-1.4,0.6-1.4,1.4v11c0,0.8,0.6,1.4,1.4,1.4s1.4-0.6,1.4-1.4v-11
		C602.3,308.9,601.7,308.3,601,308.3z"/>
	<path class="st1" d="M601,549.5c-0.8,0-1.4,0.6-1.4,1.4v11c0,0.8,0.6,1.4,1.4,1.4s1.4-0.6,1.4-1.4v-11
		C602.3,550.1,601.7,549.5,601,549.5z"/>
	<path class="st1" d="M601,527.6c-0.8,0-1.4,0.6-1.4,1.4v11c0,0.8,0.6,1.4,1.4,1.4s1.4-0.6,1.4-1.4v-11
		C602.3,528.2,601.7,527.6,601,527.6z"/>
	<path class="st1" d="M601,417.9c-0.8,0-1.4,0.6-1.4,1.4v11c0,0.8,0.6,1.4,1.4,1.4s1.4-0.6,1.4-1.4v-11
		C602.3,418.6,601.7,417.9,601,417.9z"/>
	<path class="st1" d="M601,132.9c-0.8,0-1.4,0.6-1.4,1.4v11c0,0.8,0.6,1.4,1.4,1.4s1.4-0.6,1.4-1.4v-11
		C602.3,133.5,601.7,132.9,601,132.9z"/>
	<path class="st1" d="M601,286.4c-0.8,0-1.4,0.6-1.4,1.4v11c0,0.8,0.6,1.4,1.4,1.4s1.4-0.6,1.4-1.4v-11
		C602.3,287,601.7,286.4,601,286.4z"/>
	<path class="st1" d="M601,110.9c-0.8,0-1.4,0.6-1.4,1.4v11c0,0.8,0.6,1.4,1.4,1.4s1.4-0.6,1.4-1.4v-11
		C602.3,111.6,601.7,110.9,601,110.9z"/>
	<path class="st1" d="M601,89c-0.8,0-1.4,0.6-1.4,1.4v11c0,0.8,0.6,1.4,1.4,1.4s1.4-0.6,1.4-1.4v-11C602.3,89.6,601.7,89,601,89z"/>
	<path class="st1" d="M601,45.2c-0.8,0-1.4,0.6-1.4,1.4v11c0,0.8,0.6,1.4,1.4,1.4s1.4-0.6,1.4-1.4v-11
		C602.3,45.8,601.7,45.2,601,45.2z"/>
	<path class="st1" d="M601,1.3c-0.8,0-1.4,0.6-1.4,1.4v11c0,0.8,0.6,1.4,1.4,1.4s1.4-0.6,1.4-1.4v-11C602.3,1.9,601.7,1.3,601,1.3z"
		/>
	<path class="st1" d="M601,23.2c-0.8,0-1.4,0.6-1.4,1.4v11c0,0.8,0.6,1.4,1.4,1.4s1.4-0.6,1.4-1.4v-11
		C602.3,23.8,601.7,23.2,601,23.2z"/>
	<path class="st1" d="M601,67.1c-0.8,0-1.4,0.6-1.4,1.4v11c0,0.8,0.6,1.4,1.4,1.4s1.4-0.6,1.4-1.4v-11
		C602.3,67.7,601.7,67.1,601,67.1z"/>
	<path class="st1" d="M601,198.7c-0.8,0-1.4,0.6-1.4,1.4v11c0,0.8,0.6,1.4,1.4,1.4s1.4-0.6,1.4-1.4v-11
		C602.3,199.3,601.7,198.7,601,198.7z"/>
	<path class="st1" d="M601,242.5c-0.8,0-1.4,0.6-1.4,1.4v11c0,0.8,0.6,1.4,1.4,1.4s1.4-0.6,1.4-1.4v-11
		C602.3,243.1,601.7,242.5,601,242.5z"/>
	<path class="st1" d="M601,220.6c-0.8,0-1.4,0.6-1.4,1.4v11c0,0.8,0.6,1.4,1.4,1.4s1.4-0.6,1.4-1.4v-11
		C602.3,221.2,601.7,220.6,601,220.6z"/>
	<path class="st1" d="M601,264.4c-0.8,0-1.4,0.6-1.4,1.4v11c0,0.8,0.6,1.4,1.4,1.4s1.4-0.6,1.4-1.4v-11
		C602.3,265.1,601.7,264.4,601,264.4z"/>
	<path class="st1" d="M601,154.8c-0.8,0-1.4,0.6-1.4,1.4v11c0,0.8,0.6,1.4,1.4,1.4s1.4-0.6,1.4-1.4v-11
		C602.3,155.4,601.7,154.8,601,154.8z"/>
	<path class="st1" d="M601,176.7c-0.8,0-1.4,0.6-1.4,1.4v11c0,0.8,0.6,1.4,1.4,1.4s1.4-0.6,1.4-1.4v-11
		C602.3,177.3,601.7,176.7,601,176.7z"/>
	<path class="st1" d="M601,769.9c-0.8,0-1.4,0.6-1.4,1.4v11c0,0.8,0.6,1.4,1.4,1.4s1.4-0.6,1.4-1.4v-11
		C602.3,770.5,601.7,769.9,601,769.9z"/>
	<path class="st1" d="M601,747.9c-0.8,0-1.4,0.6-1.4,1.4v11c0,0.8,0.6,1.4,1.4,1.4s1.4-0.6,1.4-1.4v-11
		C602.3,748.6,601.7,747.9,601,747.9z"/>
	<path class="st1" d="M601,726c-0.8,0-1.4,0.6-1.4,1.4v11c0,0.8,0.6,1.4,1.4,1.4s1.4-0.6,1.4-1.4v-11C602.3,726.6,601.7,726,601,726
		z"/>
	<path class="st1" d="M601,682.2c-0.8,0-1.4,0.6-1.4,1.4v11c0,0.8,0.6,1.4,1.4,1.4s1.4-0.6,1.4-1.4v-11
		C602.3,682.8,601.7,682.2,601,682.2z"/>
	<path class="st1" d="M601,638.3c-0.8,0-1.4,0.6-1.4,1.4v11c0,0.8,0.6,1.4,1.4,1.4s1.4-0.6,1.4-1.4v-11
		C602.3,638.9,601.7,638.3,601,638.3z"/>
	<path class="st1" d="M601,660.2c-0.8,0-1.4,0.6-1.4,1.4v11c0,0.8,0.6,1.4,1.4,1.4s1.4-0.6,1.4-1.4v-11
		C602.3,660.8,601.7,660.2,601,660.2z"/>
	<path class="st1" d="M601,704.1c-0.8,0-1.4,0.6-1.4,1.4v11c0,0.8,0.6,1.4,1.4,1.4s1.4-0.6,1.4-1.4v-11
		C602.3,704.7,601.7,704.1,601,704.1z"/>
	<path class="st1" d="M601,835.7c-0.8,0-1.4,0.6-1.4,1.4v11c0,0.8,0.6,1.4,1.4,1.4s1.4-0.6,1.4-1.4v-11
		C602.3,836.3,601.7,835.7,601,835.7z"/>
	<path class="st1" d="M601,879.5c-0.8,0-1.4,0.6-1.4,1.4v11c0,0.8,0.6,1.4,1.4,1.4s1.4-0.6,1.4-1.4v-11
		C602.3,880.1,601.7,879.5,601,879.5z"/>
	<path class="st1" d="M601,857.6c-0.8,0-1.4,0.6-1.4,1.4v11c0,0.8,0.6,1.4,1.4,1.4s1.4-0.6,1.4-1.4v-11
		C602.3,858.2,601.7,857.6,601,857.6z"/>
	<path class="st1" d="M601,901.4c-0.8,0-1.4,0.6-1.4,1.4v11c0,0.8,0.6,1.4,1.4,1.4s1.4-0.6,1.4-1.4v-11
		C602.3,902.1,601.7,901.4,601,901.4z"/>
	<path class="st1" d="M601,791.8c-0.8,0-1.4,0.6-1.4,1.4v11c0,0.8,0.6,1.4,1.4,1.4s1.4-0.6,1.4-1.4v-11
		C602.3,792.4,601.7,791.8,601,791.8z"/>
	<path class="st1" d="M601,813.7c-0.8,0-1.4,0.6-1.4,1.4v11c0,0.8,0.6,1.4,1.4,1.4s1.4-0.6,1.4-1.4v-11
		C602.3,814.3,601.7,813.7,601,813.7z"/>
</g>
<g class="st2">
	
		<image style="overflow:visible;opacity:0.51;enable-background:new    ;" width="414" height="265" xlink:href="28579DF2.jpg"  transform="matrix(-4.189546e-16 -2.2367 2.2 -3.963425e-16 17 926)">
	</image>
</g>
</svg>
