<?xml version="1.0" encoding="utf-8"?>
<!-- Generator: Adobe Illustrator 22.1.0, SVG Export Plug-In . SVG Version: 6.00 Build 0)  -->
<svg version="1.1" id="圖層_1" xmlns="http://www.w3.org/2000/svg" xmlns:xlink="http://www.w3.org/1999/xlink" x="0px" y="0px"
	 viewBox="0 0 4206.6 663.3" style="enable-background:new 0 0 4206.6 663.3;" xml:space="preserve">
<style type="text/css">
	.st0{fill:#F2DC4A;}
	.st1{fill:#F4E68C;stroke:#74391D;stroke-width:7.0503;stroke-miterlimit:10;}
	.st2{fill:#FFFFFF;stroke:#74391D;stroke-width:7.0503;stroke-miterlimit:10;}
	.st3{fill:#F4E68C;stroke:#74391D;stroke-width:10.5755;stroke-miterlimit:10;}
	.st4{fill:#414E72;}
	.st5{fill:#FFFFFF;stroke:#74391D;stroke-width:2.3581;stroke-miterlimit:10;}
	.st6{fill:#FFFFFF;stroke:#74391D;stroke-width:2.3329;stroke-miterlimit:10;}
	.st7{fill:#FFFFFF;stroke:#74391D;stroke-width:7.0503;stroke-linecap:round;stroke-linejoin:round;stroke-miterlimit:10;}
	.st8{fill:none;stroke:#74391D;stroke-width:10.5755;stroke-linecap:square;stroke-linejoin:bevel;stroke-miterlimit:10;}
	.st9{fill:#74391D;}
	.st10{fill:#B67032;stroke:#74391D;stroke-width:3.5252;stroke-miterlimit:10;}
	.st11{fill:#B67032;stroke:#74391D;stroke-width:3.0424;stroke-miterlimit:10;}
	.st12{fill:#F4E68C;stroke:#FFFFFF;stroke-width:10.5755;stroke-linecap:round;stroke-linejoin:round;stroke-miterlimit:10;}
	.st13{fill:#FFFFFF;}
	.st14{fill:#FFFFFF;stroke:#6A3906;stroke-width:7;stroke-miterlimit:10;}
	.st15{display:none;fill:#6A3906;enable-background:new    ;}
	.st16{font-family:'MicrosoftJhengHeiBold';}
	.st17{font-size:70px;}
	.st18{font-size:45px;}
	.st19{enable-background:new    ;}
	.st20{fill:#6A3906;}
</style>
<rect x="-18.9" y="-8.5" class="st0" width="4238.1" height="687.5"/>
<g id="圖層_1_5_">
	<g>
		<path class="st1" d="M2778.3,455.7c0,0-93.1-129.3-84.9-145.5c5.3-10.6,34.4,2.1,34.4,2.1s-32.4-30.3-24.3-46.5s34.4,6.1,34.4,6.1
			s-38.4-48.5-10.1-68.7c28.3-20.2,96.5,80.8,96.5,80.8L2778.3,455.7z"/>
		<path class="st2" d="M2828.8,275.5l-47.7-53.1c-3-3.3-8.6-1.4-8.7,3.1c-0.9,24.1-3.2,77.3-6.1,102.9c-4.5,40.5-28.9,81-28.3,72.9
			l39,63.7"/>
		<path class="st3" d="M2770.3,514.5c0,0,44.2-510,351.9-453s241.2,463.1,241.2,463.1L2770.3,514.5z"/>
		<path class="st2" d="M2922,120.6c0,0,46.9,22.7,103.2,29.3c56.2,6.5,230.6-30.6,230.6-30.6s10.8-5.3,17,6s3.7,16.6,3.7,16.6
			s-141.9,46.2-251.3,41.7c-109.3-4.5-121.6-49-121.6-49s-3.9-10.1,5.2-15.4C2917.9,113.8,2922,120.6,2922,120.6z"/>
		<path class="st2" d="M3178.1,139.4c0,0,14.9-57.8,41.9-68.5s18.9,15.3,11.4,18.6c-7.7,3.3-39.8,43.6-39.8,55.9
			S3178.1,139.4,3178.1,139.4z"/>
		<path class="st4" d="M3314.3,194.9c0,0-188.1,66.8-277.1,141.6c-62,41-117.6,179.1-117.6,179.1l73.3,3
			c-4.1,2.4,19.6-85.4,98.9-161.9c65.6-57.6,246.2-112.9,246.2-112.9L3314.3,194.9z"/>
		<path class="st4" d="M2844,236.8c0,0,49.7,73.4,59.8,83.5c10.1,10.1,30.3,30.3,30.3,30.3l55.1,36.6l-29.6,48.2
			c0,0-63.9-38.3-90.2-66.6c-30.2-32.5-48-78-48-78L2844,236.8z"/>
		<path class="st2" d="M3124.2,85.6l41,73.1l11.2-6L3151,74.9c0,0-7.7-8.9-18.9-3c-11.2,6-12.3,12.3-3.7,14.9s17-8.9,17-8.9
			s-6.7-3-10.3-0.3"/>
		<path class="st2" d="M3176.7,136.3l-18.6-1c0,0-6.3,11.4-1,18.6c5.3,7.3,7,17.3,13,16.3s15.3-6.7,15.3-6.7s11,4.4,14.3-0.3
			s3.7-27.3,0.9-30.9C3197.9,128.6,3176.7,136.3,3176.7,136.3z"/>
		<path class="st5" d="M3338.6,243.5c0,0,31.3,115.3,30.9,156.7s-6.5,124.4-6.5,124.4l-370.2-6.1c0,0,34.4-131.5,123.3-182
			S3338.6,243.5,3338.6,243.5z"/>
		<path class="st6" d="M2823.8,289.9c0,0-67.4,218.8-49.5,222.5c9.9,2.1,146.5,4,146.5,4l39.6-80.9c0,0-67.4-40.5-85.1-68.7
			C2857.5,338.5,2823.8,289.9,2823.8,289.9z"/>
		<path class="st7" d="M3195,328.4c0,0-74.8,58.6-74.8,62.6s0,4,0,4l0,0c0,0,97.1,34.4,103.2,40.5c6.1,6.1,62.6,46.5,62.6,46.5
			l60.7-42.5"/>
		<path class="st1" d="M3126.2,397.3c0,0-60.7,58.5-42.5,74.7s70.8-6.1,70.8-6.1s-28.3,26.3-8.1,30.3s56.7-18.2,56.7-18.2
			s-22.3,14.1-6.1,22.3c16.2,8.1,80.5-24.2,80.5-24.2s-40.3-33.3-56.5-41.9S3126.2,397.3,3126.2,397.3z"/>
		<line class="st8" x1="3022" y1="218.2" x2="3066.6" y2="208.1"/>
		<line class="st8" x1="2943.2" y1="210.1" x2="2914.9" y2="196"/>
		<polygon class="st9" points="2997.8,247.7 2997.8,262.6 2963.4,262.6 2963.4,246.4 		"/>
		<path class="st10" d="M2957.3,252.2c-2.8-0.1-4.5-3-3.3-5.5c3.4-7.2,11.1-18.9,24.1-16.9c12.4,2,18.2,12.2,20.7,18.6
			c1,2.5-1,5.3-3.7,5.2L2957.3,252.2z"/>
		<path class="st11" d="M2994.5,255.5c2.1-0.3,3.9,1.5,3.4,3.6c-1.5,6.3-5.5,17.4-16.4,18c-10.4,0.6-16.9-6.8-20-11.4
			c-1.1-1.8-0.1-4.1,2-4.6L2994.5,255.5z"/>
		<circle class="st9" cx="3042.4" cy="238.4" r="12.2"/>
		<circle class="st9" cx="2929" cy="232.3" r="10.1"/>
		<path class="st12" d="M3078.7,72.6c0,0-37.8,3.9-52.6,8.1c-28.3,8-44.5,22.1-44.5,22.1"/>
		<circle class="st13" cx="2965.5" cy="115.1" r="6.1"/>
	</g>
</g>
<g>
	<path class="st1" d="M1690.2,457.1c0,0,93.1-129.3,84.9-145.5c-5.3-10.6-34.4,2.1-34.4,2.1s32.4-30.3,24.3-46.5
		c-8-16.2-34.4,6.1-34.4,6.1s38.4-48.5,10.1-68.7s-96.5,80.8-96.5,80.8L1690.2,457.1z"/>
	<path class="st2" d="M1639.7,276.8l47.7-53.1c3-3.3,8.6-1.4,8.7,3.1c0.9,24.1,3.2,77.3,6.1,102.9c4.5,40.5,28.9,81,28.3,72.9
		l-39,63.7"/>
	<path class="st3" d="M1698.3,515.9c0,0-44.2-510-351.9-453S1105.2,526,1105.2,526L1698.3,515.9z"/>
	<path class="st2" d="M1546.6,121.9c0,0-46.9,22.7-103.2,29.3c-56.2,6.5-230.6-30.6-230.6-30.6s-10.8-5.3-17,6s-3.7,16.6-3.7,16.6
		s141.9,46.2,251.3,41.7c109.3-4.5,121.6-49,121.6-49s3.9-10.1-5.2-15.4C1550.7,115.2,1546.6,121.9,1546.6,121.9z"/>
	<path class="st2" d="M1290.5,140.8c0,0-14.9-57.8-41.9-68.5s-18.9,15.3-11.4,18.6c7.7,3.3,39.8,43.6,39.8,55.9
		S1290.5,140.8,1290.5,140.8z"/>
	<path class="st4" d="M1154.3,196.3c0,0,188.1,66.8,277.1,141.6c62,41,117.6,179.1,117.6,179.1l-73.3,3
		c4.1,2.4-19.6-85.4-98.9-161.9c-65.6-57.6-246.2-112.9-246.2-112.9L1154.3,196.3z"/>
	<path class="st4" d="M1624.6,238.2c0,0-49.7,73.4-59.8,83.5s-30.3,30.3-30.3,30.3l-55.1,36.6l29.6,48.2c0,0,63.9-38.3,90.2-66.6
		c30.2-32.5,48-78,48-78L1624.6,238.2z"/>
	<path class="st2" d="M1344.4,86.9l-41,73.1l-11.2-6l25.4-77.8c0,0,7.7-8.9,18.9-3c11.2,6,12.3,12.3,3.7,14.9
		c-8.6,2.6-17-8.9-17-8.9s6.7-3,10.3-0.3"/>
	<path class="st2" d="M1291.8,137.7l18.6-1c0,0,6.3,11.4,1,18.6c-5.3,7.3-7,17.3-13,16.3s-15.3-6.7-15.3-6.7s-11,4.4-14.3-0.3
		s-3.7-27.3-0.9-30.9C1270.6,130,1291.8,137.7,1291.8,137.7z"/>
	<path class="st5" d="M1129.9,244.8c0,0-31.3,115.3-30.9,156.7s6.5,124.4,6.5,124.4l370.2-6.1c0,0-34.4-131.5-123.3-182
		S1129.9,244.8,1129.9,244.8z"/>
	<path class="st6" d="M1644.8,291.3c0,0,67.4,218.8,49.5,222.5c-9.9,2.1-146.5,4-146.5,4l-39.6-80.9c0,0,67.4-40.5,85.1-68.7
		C1611.1,339.8,1644.8,291.3,1644.8,291.3z"/>
	<path class="st7" d="M1273.6,329.7c0,0,74.8,58.6,74.8,62.6s0,4,0,4l0,0c0,0-97.1,34.4-103.2,40.5s-62.6,46.5-62.6,46.5l-60.7-42.5
		"/>
	<path class="st1" d="M1342.3,398.7c0,0,60.7,58.5,42.5,74.7s-70.8-6.1-70.8-6.1s28.3,26.3,8.1,30.3c-20.2,4-56.7-18.2-56.7-18.2
		s22.3,14.1,6.1,22.3c-16.2,8.1-80.5-24.2-80.5-24.2s40.3-33.3,56.5-41.9C1263.6,426.9,1342.3,398.7,1342.3,398.7z"/>
	<line class="st8" x1="1446.5" y1="219.6" x2="1402" y2="209.5"/>
	<line class="st8" x1="1525.3" y1="211.4" x2="1553.7" y2="197.3"/>
	<polygon class="st9" points="1470.7,249.1 1470.7,264 1505.2,264 1505.2,247.8 	"/>
	<path class="st10" d="M1511.2,253.6c2.8-0.1,4.5-3,3.3-5.5c-3.4-7.2-11.1-18.9-24.1-16.9c-12.4,2-18.2,12.2-20.7,18.6
		c-1,2.5,1,5.3,3.7,5.2L1511.2,253.6z"/>
	<path class="st11" d="M1474.1,256.9c-2.1-0.3-3.9,1.5-3.4,3.6c1.5,6.3,5.5,17.4,16.4,18c10.4,0.6,16.9-6.8,20-11.4
		c1.1-1.8,0.1-4.1-2-4.6L1474.1,256.9z"/>
	<circle class="st9" cx="1426.2" cy="239.8" r="12.2"/>
	<circle class="st9" cx="1539.6" cy="233.7" r="10.1"/>
	<path class="st12" d="M1389.8,74c0,0,37.8,3.9,52.6,8.1c28.3,8,44.5,22.1,44.5,22.1"/>
	<circle class="st13" cx="1503.1" cy="116.4" r="6.1"/>
</g>
<path class="st14" d="M2524,358.2h-571.2c-30.2,0-55-24.7-55-55v-89.6c0-30.2,24.7-55,55-55H2524c30.2,0,55,24.7,55,55v89.6
	C2579,333.4,2554.2,358.2,2524,358.2z"/>
<text transform="matrix(1 0 0 1 1946.3804 326.1674)" class="st15 st16 st17">“日食雙胞胎主廚”</text>
<text transform="matrix(1 0 0 1 1946.3805 234.0415)" class="st15 st16 st18">你好!我們是</text>
<g class="st19">
	<path class="st20" d="M2002.7,274.4h-15.1v25.6h-6.1v-31.4h21.2V274.4z"/>
	<path class="st20" d="M2074.9,329.5h-6.5v-4.7h-33.1v4.7h-6.7v-59.2h46.3V329.5z M2068.4,293.6v-17.3h-33.1v17.3H2068.4z
		 M2068.4,318.8v-19.1h-33.1v19.1H2068.4z"/>
	<path class="st20" d="M2152.9,283.8l-3.2,5.4c-6.7-2.4-12.9-5.1-18.5-8.1v4H2112v-3.9c-5.6,3-11.7,5.6-18.4,8l-3.1-5.5
		c13.6-4.3,23.5-9.6,29.6-15.9l6.6,1.6c-0.2,0.4-0.4,0.8-0.9,1.2C2132.9,276.1,2141.9,280.5,2152.9,283.8z M2142.7,311.3h-36.4v11.5
		c4.5-0.9,9.1-2.2,13.8-3.9v5.9c-6.5,2.3-13.1,4-19.8,5.2l-2.1-5.3c1-0.7,1.5-1.5,1.5-2.5v-33.5h42.9V311.3z M2136.3,297.5V294
		h-29.9v3.4H2136.3z M2136.3,306v-3.6h-29.9v3.6H2136.3z M2129,279.9c-2.2-1.3-4.7-3-7.4-5.1c-1.9,1.5-4.3,3.2-7.4,5.1H2129z
		 M2150.9,325.6l-3.7,4.7c-8.5-5.1-17.8-9.4-27.9-12.9l3.6-4.5c2.3,0.8,5.9,2.1,10.6,4.1c3.9-1.3,8.1-3.7,12.4-7l4.5,3.9
		c-3,2.4-6.2,4.5-9.6,6.3C2144.5,322,2147.8,323.8,2150.9,325.6z"/>
	<path class="st20" d="M2181.7,285c-1.6,2.8-3.9,6.2-6.7,10.2v34.4h-6.2v-27.5c-2.4,2.4-4.1,4-5.1,4.7l-3.3-5.8
		c5.2-3.4,10.5-9.7,16.1-18.8L2181.7,285z M2179.1,270.8c-4.5,6.6-9.6,12-15.1,16l-3.3-5.4c4.6-3.1,8.8-7.5,12.8-13.4L2179.1,270.8z
		 M2223,324.6l-2.7,5.6c-9.1-1.8-15.9-4-20.6-6.5c-4.1,2.1-10.9,4.1-20.4,6.3l-2.6-5.5c6.8-1.1,12.5-2.6,17.2-4.5
		c-2.1-1.6-4.3-3.7-6.5-6.3c-1.4,1.2-3.4,2.8-6.2,4.7l-3.9-4.3c2.7-1.8,4.9-3.4,6.6-4.9l-2.5-3.9l4.7-3c0.5,0.8,1.2,1.8,2.1,2.8
		c1.3-1.4,2.7-3.1,4.1-5.3c-4.6,0.1-8.3,0.2-10.9,0.3l-1.3-5.6c4.5-1.2,9.8-3.8,16.1-7.7c-2.7,0.2-6.9,0.4-12.5,0.5l-1.1-5
		c5.6-3.1,11-7.8,16-14.2l6,2.6c-3.9,4.8-8.4,8.5-13.3,11.1c3.8-0.2,8.1-0.5,12.8-1c4.1-3.9,6.6-6.2,7.4-7.1l5.9,2.8
		c-8.5,8.5-17.5,14.6-27,18.4c4.8-0.3,11.3-0.9,19.8-2.1c-0.8-1-1.7-2.2-2.9-3.6l5.1-2.9c4.4,5,7.6,9.3,9.7,13l-5.3,2.8
		c-0.6-1.2-1.6-2.7-2.8-4.3c-5,0.5-10,1-14.8,1.4c-0.4,0.8-1.5,2.6-3.1,5.1h20.6v5.7c-3.3,4.1-6.9,7.6-10.8,10.2
		C2211.9,322.5,2217.7,323.9,2223,324.6z M2209.1,310h-17.2c2.1,2.6,4.7,5,7.9,7.1C2201.9,316,2205,313.6,2209.1,310z"/>
	<path class="st20" d="M2292.8,294l-5.4,4.3c-1.3-2.1-2.8-4.2-4.3-6.2c-18,2.1-34.7,3.4-50,3.8l-1.5-5.9c6.7-2.2,14-9.5,21.8-22.1
		l7.1,1.4c-4.6,7.5-10.2,14.2-16.6,20.1c9.1-0.3,20.7-1.3,34.6-2.7c-2.9-3.2-6.4-6.5-10.5-9.8l5.4-4.1
		C2281.6,280.1,2288.1,287.1,2292.8,294z M2286.6,329.7h-6.4v-3.1h-36.8v3.1h-6.4v-29h49.6V329.7z M2280.2,320.4v-13.6h-36.8v13.6
		H2280.2z"/>
	<path class="st20" d="M2331,277.8h-18.5c-2.1,2.4-4.7,4.8-7.8,7.2l-4.1-5.1c5.4-3.6,8.9-7.6,10.6-11.9l6.3,1.7
		c-0.3,0.9-0.8,1.8-1.4,2.8h14.8V277.8z M2360.5,298.6h-6.2v-6.7h-45.4v6.7h-6.2v-11.9h25.2c-0.3-0.7-0.8-1.7-1.7-3.1l7.1-1.1
		c0.6,0.9,1.4,2.4,2.3,4.3h24.8V298.6z M2354.1,326.8H2317v2.8h-6.1v-34.2h40.9v13.4H2317v3.7h37.2V326.8z M2324.6,283.8l-6.8,1.3
		c-0.6-1.3-1.6-3-2.9-4.9l6.6-1.4C2322.3,279.8,2323.3,281.5,2324.6,283.8z M2345.6,304.2v-4.1H2317v4.1H2345.6z M2347.9,322v-4.9
		H2317v4.9H2347.9z M2362.2,277.8h-21.6c-1.1,1.6-2.4,3.3-4,5l-5.7-3c3.8-4.1,6.6-8,8.2-11.9l6.3,1.8c-0.6,1.2-1.1,2.2-1.5,2.9h18.3
		V277.8z M2352.9,284.2l-6.7,1.1c-0.5-1.6-1.4-3.4-2.7-5.5l6.8-0.8C2351.2,280.5,2352.1,282.3,2352.9,284.2z"/>
	<path class="st20" d="M2392.3,314.8c-5.4,3.3-11.8,6.7-19.5,10.1l-2.2-5.9c1.7-0.7,4.5-1.9,8.3-3.8v-17.4h-6.7v-5.8h6.7V278h-7.8
		v-5.6h21v5.6h-7.1v13.8h6.1v5.8h-6.1v14.2c2.4-1,4.8-2.2,7.1-3.7L2392.3,314.8z M2432.1,328.1H2392v-5.7h17.2v-6.9h-14.8V310h14.8
		v-6h-14.3v-33.6h34.6V304h-14.1v6h15.1v5.5h-15.1v6.9h16.8V328.1z M2409.2,284.3v-8.4h-8.2v8.4H2409.2z M2409.2,298.4v-9.1h-8.2
		v9.1H2409.2z M2423.4,284.3v-8.4h-8v8.4H2423.4z M2423.4,298.4v-9.1h-8v9.1H2423.4z"/>
	<path class="st20" d="M2471.8,316.8h-13.3c-1.4,6.6-6.4,11.1-15.1,13.6l-2.7-5.1c6.2-1.8,10.2-4.6,11.9-8.5h-11.1v-5.5h12.1
		l0.2-2.5l5.8,0.1c0,0.2,0,1-0.1,2.5h12.4V316.8z M2472.3,272.5c-5.6,1.7-15.1,3.2-28.5,4.3l-1.9-5.2c9.8-0.3,18.9-1.5,27.1-3.6
		L2472.3,272.5z M2471.4,306.8l-5.2,1.7c0-0.6-0.3-1.4-0.8-2.5c-9.4,0.9-16.8,1.5-22.2,1.7l-0.9-4.4c3.2-1,6.5-2.9,10-5.6
		c-2.6,0.3-5.4,0.4-8.5,0.5l-1-4.4c3-0.9,6.5-3.7,10.6-8.5l5.8,1.4c-1.7,1.9-4.1,4-7.3,6.5c1.7,0,3.8-0.2,6.3-0.6
		c1.5-1.4,3.1-3,4.8-4.9l5.7,2.1c-6,6-11.5,10.4-16.4,13.1c3.7-0.2,7.5-0.6,11.5-1.1c-0.6-1.3-1.2-2.4-1.7-3.4l5-2.1
		C2469,299.9,2470.5,303.4,2471.4,306.8z M2451.2,284.5l-4.9,2.1c-0.8-1.8-2-4.1-3.7-6.9l5-1.9
		C2449.2,280.2,2450.4,282.5,2451.2,284.5z M2461,283.5l-5.3,1.3c-0.6-2.3-1.4-4.7-2.4-6.9l5.3-1.3
		C2459.5,278.5,2460.3,280.9,2461,283.5z M2472.2,325.9l-3.8,4.2c-2.3-2.2-5.6-4.6-10-7.3l3.7-4.2
		C2465.9,320.8,2469.3,323.2,2472.2,325.9z M2472.1,277.5c-1,2.9-2.2,5.7-3.8,8.4l-5-2.2c1.4-2.5,2.7-5.2,3.7-8.3L2472.1,277.5z
		 M2502.2,326.7h-21.6v3.1h-5.9v-35.4l-2.2,3l-3.4-6c4-6,7.1-13.8,9.3-23.2l5.7,0.9c-1.1,4.2-2.1,7.8-3.1,10.8h7.1
		c-0.5-3.9-1.3-7.3-2.4-10.2l5.7-1c1,3.6,1.8,7.3,2.4,11.2h7.5v5.5h-7.9v8.3h7.3v5.4h-7.3v8.2h7.3v5.5h-7.3v8.3h8.9V326.7z
		 M2487.5,293.7v-8.3h-6.9v8.3H2487.5z M2487.5,307.3v-8.2h-6.9v8.2H2487.5z M2487.5,321v-8.3h-6.9v8.3H2487.5z"/>
	<path class="st20" d="M2541.2,330.2h-21.3v-5.7h15.2v-25.8h6.1V330.2z"/>
</g>
<g class="st19">
	<path class="st20" d="M1961.6,197.7c-0.5,1.7-1.3,3.7-2.4,6.1l-1.6,3.5v29.2h-3.9v-22.7c-0.5,0.6-1.4,1.8-2.8,3.4l-2.1-4.1
		c3.9-4.7,6.8-10.2,8.8-16.5L1961.6,197.7z M1988,202.1c-0.7,5.1-1.8,9.2-3.3,12.3l-3.7-1.5c0.9-2.3,1.6-4.6,2.1-7.1h-14.8
		c-1.8,3.3-4,6.5-6.7,9.5l-2.7-2.9c3.7-4.2,6.7-9.4,8.9-15.6l3.8,0.9c-0.7,1.9-1.2,3.4-1.7,4.3H1988z M1970.1,215.7
		c-2.1,6.8-4.6,12.2-7.7,16.1l-3.1-2.4c3.1-4.3,5.5-9.2,7.2-14.7L1970.1,215.7z M1976.4,232.1c0,2.8-1.4,4.2-4.2,4.2
		c-2.5,0-4.2,0-5.1,0l-1.3-4l4.4,0.2c1.5,0,2.2-0.5,2.2-1.5v-22.2h4V232.1z M1989.1,230l-3.6,1.9c-1.3-4.9-3.5-10.2-6.6-15.9
		l3.5-1.4C1985.6,220.4,1987.8,225.5,1989.1,230z"/>
	<path class="st20" d="M2012.4,230.1l-2.8,3.3c-1.4-1.7-3.1-3.3-5.1-5c-1.7,2.7-4.1,5.4-7.4,8.1l-2.8-3c2.7-2.1,5-4.7,7.1-7.7
		c-0.8-0.7-2.9-2.3-6.4-4.8c1.1-4.4,1.9-8.2,2.4-11.4c-1.2,0.2-2.2,0.2-3,0.2l0-3.9c1.8-0.1,3.1-0.2,3.7-0.3
		c0.6-2.8,1.1-5.7,1.5-8.8l3.8,0.5c-0.3,2.6-0.7,5.2-1.2,7.8c0.9,0,2.3-0.1,4-0.3c0.1-1.2,0.2-2.3,0.2-3.3h3.7
		c0.1,1.3,0.1,2.2,0,2.7c0.7-0.1,1.4-0.1,2.1-0.3l0,3.9c-1.1,0.2-1.9,0.3-2.3,0.4c-0.6,6.8-1.8,12.3-3.6,16.5
		C2008.7,226.4,2010.6,228.2,2012.4,230.1z M2006.1,208.8c-1.3,0.2-2.8,0.4-4.4,0.5c-0.7,3.9-1.4,7.3-2.2,10.2
		c1.9,1.4,3.2,2.3,3.7,2.7C2004.7,218.6,2005.6,214.1,2006.1,208.8z M2033.5,218.6h-8.6v13.3c0,1.4-0.3,2.4-1,3
		c-0.7,0.6-1.5,1-2.6,1.2s-3.2,0.3-6.5,0.3l-1.5-4c2,0.1,4.1,0.1,6.1,0.1c0.9,0,1.4-0.5,1.4-1.4v-12.5h-10.1v-4h10.1v-5
		c2.3-2.6,4.4-5.1,6.2-7.6h-15.3v-4h20.4v4c-2.3,3.2-4.7,6.3-7.1,9.2v3.4h8.6V218.6z"/>
	<path class="st20" d="M2040.4,231.4c0-0.9,0.3-1.6,0.9-2.2c0.6-0.6,1.4-0.9,2.3-0.9c0.9,0,1.7,0.3,2.3,0.9c0.6,0.6,0.9,1.3,0.9,2.2
		c0,0.8-0.3,1.6-0.9,2.2c-0.6,0.6-1.4,0.9-2.2,0.9c-1,0-1.8-0.3-2.4-0.9S2040.4,232.3,2040.4,231.4z M2046.3,200l-0.6,24.1h-4.2
		l-0.6-24.1H2046.3z"/>
	<path class="st20" d="M2100.7,227.5c-0.6,2.9-1.4,5.1-2.3,6.6c-1,1.6-2.2,2.4-3.7,2.4c-2.5,0-5-2.2-7.5-6.7
		c-2.5,1.9-5.3,3.6-8.3,5.1l-2.2-3.3c3.5-1.6,6.5-3.4,9.1-5.4c-0.7-2.8-1.2-7.4-1.5-13.7h-9.4v6.2c2.2-0.5,4.7-1.1,7.5-1.9l0.1,3.9
		c-2.7,0.8-5.2,1.4-7.6,1.9v10c0,1.1-0.2,2-0.7,2.5s-1.1,0.9-1.8,1.1c-0.7,0.2-2,0.3-3.9,0.3c-1.4,0-2.8,0-4.1-0.1l-1.4-4.3
		c2,0.1,3.7,0.1,5,0.1c1.4,0,2.2-0.1,2.4-0.2c0.2-0.1,0.4-0.4,0.4-0.8v-7.8c-3.2,0.6-6.2,1.1-8.9,1.3l-0.7-3.7
		c2.9-0.3,6.1-0.8,9.6-1.5v-7.1h-9.4v-3.8h9.4v-5.1c-2,0.3-4.6,0.6-7.6,0.9l-1.8-3.7c7.6-0.5,14-1.6,19.1-3.5l2.3,3.3
		c-2.8,1-5.4,1.8-7.8,2.2v6h9.4c-0.1-1.8-0.1-5.6-0.1-11.5h4c0,3.9,0,7.7,0,11.5h12.3v3.8h-12.2c0.1,3.7,0.4,7.2,0.8,10.5
		c2.1-2.4,4-5.3,5.6-8.8l3.5,1.8c-2.4,4.9-5.1,8.6-7.9,11.2c0.9,1.8,1.7,3,2.4,3.9c0.7,0.8,1.3,1.2,1.7,1.2c1,0,1.9-2.3,2.7-6.9
		L2100.7,227.5z M2099.1,204.8l-3.3,2.4c-1.6-2.4-3.5-4.6-5.8-6.5l3.1-2.6C2095.5,200.1,2097.5,202.3,2099.1,204.8z"/>
	<path class="st20" d="M2116.6,197.5c-0.3,1.4-0.8,3.3-1.5,5.7l-1.1,3.5v29.6h-3.7v-21.2c-0.7,1.4-1.5,2.6-2.4,3.7l-1.8-4.1
		c2.8-4.2,5.1-10.2,7-18.1L2116.6,197.5z M2129.5,216.7h-8.1v19.6h-3.7v-38.1h11.8V216.7z M2125.8,205.7v-3.9h-4.3v3.9H2125.8z
		 M2125.8,213v-3.9h-4.4v3.9H2125.8z M2144.4,232.4c0,0.7-0.2,1.4-0.5,1.9c-0.3,0.6-0.9,1.1-1.5,1.4s-2.1,0.5-4.2,0.5
		c-1,0-1.8-0.1-2.6-0.2l-1.1-3.6c0.9,0.1,2,0.1,3.2,0.1c1.4,0,2.2-0.1,2.5-0.2s0.4-0.5,0.4-1v-14.8h-8.2v-18.4h12V232.4z
		 M2140.6,205.7v-3.9h-4.5v3.9H2140.6z M2140.6,213v-3.9h-4.5v3.9H2140.6z"/>
	<path class="st20" d="M2190.8,232.1l-1.4,3.6c-2.8,0-5.2,0.1-7.2,0.1c-4.2,0-7.7-0.1-10.5-0.3s-5.2-0.8-7.2-1.7
		c-1.9-0.9-3.6-2.3-4.9-4c-2.2,3.2-4.3,5.4-6.3,6.9l-2.7-3.3c3.5-2.3,6.4-6.3,8.6-11.8l3.9,1c-0.4,1.2-1,2.5-1.6,3.8
		c1.5,2.3,4.1,3.9,7.7,5V220h-18.1v-3.6h39.2v3.6h-17.1v4.1h14.7v3.6h-14.7v4.2C2176.1,231.9,2182,232,2190.8,232.1z M2185.3,213.6
		h-28.9v-15.9h28.9V213.6z M2181.2,204.1v-2.7h-20.7v2.7H2181.2z M2181.2,210.1v-2.7h-20.7v2.7H2181.2z"/>
</g>
<g>
	<path class="st13" d="M4323.6,675V365c-55.9,0.8-101.4,25.6-105.9,57c-69.1,4.8-127.7,28.8-158.7,62.4
		c0.3,63.7-4.6,126.5-0.4,190.2c0.5,0,1,0,1.5,0C4175,674.7,4267.8,674.8,4323.6,675z"/>
	<path class="st13" d="M1800.2,479.1c-0.5,0.5-1,1.1-1.5,1.6c-25.3-16.5-62.5-27-104.1-27c-45.4,0-85.7,12.5-110.8,31.8
		c-35-23.6-87.3-38.6-145.8-38.6c-85.7,0-158.2,32.2-182.2,76.4c-32.9-32.6-94.7-54.6-165.5-54.6c-46.7,0-89.4,9.5-122.5,25.4
		c-32.3-33.8-95.2-56.8-167.6-56.8c-78.3,0-145.6,26.9-174.9,65.3c-21.9-13.3-53-21.7-87.6-21.7c-28.7,0-55,5.8-75.7,15.3
		c-0.1,74.9,6.9,149.1,3.9,223.8c417.4-0.4,964.9-0.7,1333.6-0.6C1794.4,638.9,1800.6,559.6,1800.2,479.1z"/>
	<path class="st13" d="M4110,465.2c-0.4,0.5-0.9,0.9-1.3,1.4c-22.2-14.5-54.9-23.7-91.4-23.7c-39.9,0-75.3,11-97.3,27.9
		c-30.7-20.7-76.7-33.9-128-33.9c-75.3,0-138.9,28.3-160,67.2c-28.9-28.7-83.2-48-145.4-48c-41,0-78.5,8.4-107.6,22.3
		c-28.4-29.7-83.7-49.9-147.2-49.9c-68.8,0-127.9,23.6-153.7,57.4c-19.2-11.7-46.6-19-77-19c-25.2,0-48.3,5.1-66.5,13.5
		c-0.1,65.8,6.1,130.9,3.5,196.6c366.7-0.3,847.6-0.6,1171.5-0.5C4104.9,605.6,4110.3,535.9,4110,465.2z"/>
	<path class="st13" d="M463.7,496.9c-0.3,0.1-0.7,0.3-1,0.4c-38.4-19.2-88.7-30.9-143.9-30.9c-44.2,0-85.3,7.5-119.6,20.4
		c-15.5-17.8-47.7-30.1-85-30.1c-4.3,0-8.5,0.2-12.6,0.5C94.2,423.6,52.5,396-3,386.2v288c0,0,200.7-0.2,469.8-0.5
		C469.2,614.7,463.6,556.2,463.7,496.9z M447,938.5c0.8-0.3,1.7-0.6,2.5-0.9c0.2,0.1,0.3,0.3,0.5,0.4C449,938.2,448,938.3,447,938.5
		z"/>
	<path class="st13" d="M2965.6,465.2c-0.4,0.5-0.9,0.9-1.3,1.4c-22.2-14.5-54.9-23.7-91.4-23.7c-39.9,0-75.3,11-97.3,27.9
		c-30.7-20.7-76.7-33.9-128-33.9c-75.3,0-138.9,28.3-160,67.2c-28.9-28.7-83.2-48-145.4-48c-41,0-78.5,8.4-107.6,22.3
		c-28.4-29.7-83.7-49.9-147.2-49.9c-68.8,0-127.9,23.6-153.7,57.4c-19.2-11.7-46.6-19-77-19c-25.2,0-48.3,5.1-66.5,13.5
		c-0.1,65.8,6.1,130.9,3.5,196.6c366.7-0.3,847.6-0.6,1171.5-0.5C2960.6,605.6,2966,535.9,2965.6,465.2z"/>
</g>
</svg>
